<svg width="52" height="52" viewBox="0 0 52 52" fill="none" xmlns="http://www.w3.org/2000/svg">
<g clip-path="url(#clip0_130_1521)">
<path d="M46.9127 52C45.6249 52 44.3384 52 43.0506 52C42.7382 51.9091 42.5453 51.7166 42.514 51.3817C42.5222 50.6426 42.8007 50.3389 43.5424 50.3213C44.3982 50.3023 45.2554 50.3023 46.1112 50.3213C48.5836 50.3647 50.177 48.8812 50.1906 46.4173C50.2219 40.9418 50.2015 35.4676 50.1988 29.9921C50.1988 29.3846 50.1499 29.3453 49.5196 29.3398C44.8139 29.2937 40.1082 29.3263 35.4026 29.3168C35.2178 29.3168 35.0263 29.2951 34.8796 29.4456C34.631 30.1724 34.7369 30.3284 35.4379 30.4911C38.5284 31.203 40.6598 32.9536 41.4341 36.1212C41.5414 36.5619 41.7329 36.7395 42.1907 36.7328C43.5451 36.7138 44.8995 36.7246 46.2525 36.7273C46.4549 36.7273 46.66 36.7206 46.8597 36.7612C47.2523 36.8412 47.4873 37.0785 47.5457 37.4745C47.6069 37.8881 47.4547 38.2027 47.0798 38.3993C46.8013 38.5444 46.4956 38.5607 46.19 38.562C44.9035 38.5647 43.6171 38.5607 42.3306 38.5634C41.6772 38.5647 41.3254 39.1085 41.593 39.6997C41.6949 39.9261 41.9068 39.8665 42.0807 39.8678C43.4351 39.876 44.7894 39.8719 46.1438 39.8719C46.3462 39.8719 46.55 39.8638 46.7524 39.8895C47.2306 39.9519 47.5036 40.219 47.5525 40.6638C47.5987 41.0964 47.3773 41.453 46.9562 41.6171C46.713 41.712 46.4576 41.7052 46.2049 41.7052C44.7663 41.7066 43.3277 41.7039 41.8892 41.7066C41.2507 41.7079 40.8839 42.1351 40.9573 42.7697C40.9749 42.9175 41.0469 42.9772 41.1773 42.9975C41.3281 43.0219 41.4816 43.0151 41.6338 43.0151C43.1403 43.0151 44.6468 43.0151 46.1533 43.0151C46.3557 43.0151 46.5595 43.007 46.7619 43.0355C47.2401 43.1019 47.5118 43.3704 47.5552 43.8152C47.5973 44.2491 47.3732 44.6016 46.9507 44.7644C46.7076 44.8579 46.4522 44.8498 46.1981 44.8498C44.4376 44.8511 42.6771 44.862 40.9165 44.843C40.4587 44.8376 40.2115 44.9868 40.0525 45.4275C39.626 46.6031 39.1125 47.7449 38.5908 48.8812C38.3789 49.3422 38.095 49.7612 37.7948 50.2141C38.0651 50.3592 38.3368 50.3104 38.5963 50.3186C38.9006 50.328 39.2062 50.3091 39.5105 50.328C40.1218 50.366 40.3527 50.5667 40.5239 51.1932C40.5389 51.6312 40.3079 51.8807 39.9045 51.9986C39.0908 51.9986 38.2784 51.9986 37.4647 51.9986C36.5165 51.7193 35.5669 51.7193 34.6187 51.9986C24.1505 51.9986 13.681 51.9986 3.2128 51.9986C1.83941 51.8074 0.915667 51.025 0.308441 49.8141C0.0489776 49.2961 0.0190917 48.7375 0.0190917 48.1842C0.010941 37.3402 0.0122995 26.4977 0.0136579 15.6537C0.0136579 14.9364 0.203841 14.7018 0.864046 14.554C1.52425 14.7059 1.71987 14.9337 1.74975 15.5886C1.76062 15.8246 1.75519 16.0619 1.75519 16.2992C1.75519 26.5953 1.75519 36.8914 1.75519 47.1875C1.75519 47.6106 1.76062 48.031 1.853 48.4486C2.08257 49.4955 2.81478 50.1626 3.88116 50.286C4.09987 50.3118 4.32129 50.3077 4.54136 50.3077C9.7741 50.3077 15.0082 50.3077 20.2409 50.3063C20.4067 50.3063 20.5792 50.343 20.7721 50.2372C20.6593 49.9036 20.4039 49.6473 20.245 49.3395C19.7342 48.3456 19.2941 47.3204 18.8608 46.2912C18.5633 45.5875 18.5537 45.5725 17.7726 45.5725C13.878 45.5698 9.98194 45.5373 6.08728 45.5875C4.39601 45.6092 3.04979 44.5949 3.04843 42.5622C3.04707 41.4462 3.04707 40.3302 3.04707 39.2142C3.04707 28.0218 3.04707 16.8307 3.04164 5.63826C3.04164 5.38604 3.1802 4.99551 2.899 4.9128C2.62459 4.83144 2.4249 5.184 2.24966 5.40503C1.85028 5.9081 1.76334 6.51017 1.75926 7.12851C1.74568 8.55095 1.7647 9.97069 1.74568 11.3904C1.73481 12.1389 1.50931 12.383 0.821934 12.4671C0.263612 12.3695 0.0190917 12.1701 0.0190917 11.6711C0.0204502 9.79576 -0.04068 7.92041 0.0489776 6.04506C0.141352 4.10326 2.17766 2.61166 3.78878 2.62793C5.51537 2.64556 7.24331 2.62929 8.9699 2.632C9.8461 2.63336 9.71433 2.50454 9.80535 1.94315C9.99553 0.766142 10.9057 0.00542401 12.1011 0.00406801C16.6737 -0.001356 21.2448 -0.001356 25.8174 0.00406801C26.9612 0.00542401 27.8822 0.85157 28.0479 2.0218C28.1335 2.62115 28.1335 2.62793 28.7353 2.62929C30.4116 2.63336 32.088 2.62793 33.7643 2.632C36.1103 2.63607 37.8858 4.3704 37.9184 6.71764C37.9429 8.50892 37.9225 10.3016 37.9252 12.0928C37.9252 12.2094 37.9035 12.3288 37.9741 12.4807C38.3477 12.2461 38.6085 11.9599 38.6167 11.4975C38.6262 10.9904 38.6139 10.4833 38.6234 9.97611C38.6506 8.59706 39.4426 7.80922 40.8078 7.80651C41.9421 7.8038 43.0764 7.79973 44.2107 7.80786C45.4361 7.81736 46.209 8.57129 46.2538 9.78492C46.2566 9.86899 46.2552 9.95442 46.2566 10.0385C46.2905 12.1796 46.0025 11.5152 47.5172 13.0597C48.3703 13.9289 49.2424 14.7791 50.101 15.6442C51.3643 16.9175 52.0001 18.4362 51.9974 20.2451C51.9851 29.0686 51.9946 37.8921 51.9906 46.7157C51.9892 48.9842 50.9201 50.5992 48.9191 51.6298C48.4708 51.8603 47.9967 51.9498 47.4995 51.9471C47.3053 51.9729 47.1015 51.8929 46.9127 52Z" fill="#333333"/>
<path d="M42.6132 51.4413C42.6703 51.6963 42.889 51.8264 43.0506 52C42.0006 52 40.9505 52 39.9004 52C40.1503 51.8129 40.3609 51.5986 40.4152 51.2732C41.0646 51.0061 41.7329 51.1267 42.3959 51.1905C42.5249 51.2027 42.5833 51.3206 42.6132 51.4413Z" fill="#FEFEFE"/>
<path d="M34.6152 52C35.918 51.4753 36.1625 51.4753 37.4612 52C36.513 52 35.5648 52 34.6152 52Z" fill="#F8F7F7"/>
<path d="M47.4452 51.9119C47.433 51.9403 47.4262 51.9702 47.4221 52C47.2523 52 47.0839 52 46.9141 52C47.0703 51.8522 47.2578 51.8861 47.4452 51.9119Z" fill="#444241"/>
<path d="M15.9117 43.8775C13.9311 43.8856 11.9505 43.8951 9.96852 43.8992C8.61415 43.9033 7.25842 43.9046 5.90405 43.8979C5.16641 43.8951 4.82408 43.5589 4.7874 42.8266C4.78197 42.7086 4.78605 42.5893 4.78605 42.4713C4.78605 29.9419 4.79012 17.4138 4.77246 4.88429C4.77246 4.37986 4.90966 4.28223 5.38376 4.29308C6.75444 4.32698 8.12783 4.31342 9.49986 4.2985C9.81094 4.29443 9.92777 4.35003 9.92913 4.70123C9.9332 6.2186 10.8909 7.15424 12.4056 7.15424C16.7417 7.1556 21.0779 7.1556 25.4141 7.15424C26.9369 7.15424 27.8959 6.22267 27.9 4.71208C27.9014 4.38257 27.9815 4.28359 28.3157 4.29579C29.1267 4.32562 29.9404 4.31613 30.7528 4.32291C30.9959 4.59411 30.9266 4.92904 30.9266 5.24363C30.9321 9.63437 30.9294 14.0265 30.9294 18.4172C30.9294 22.4039 30.9294 26.3891 30.9294 30.3758C30.9294 30.6117 30.9443 30.8504 30.9008 31.0836C30.8261 31.4836 30.6903 31.5474 30.2596 31.3996C30.0803 29.4103 29.6076 27.52 28.4339 25.8549C28.0522 25.3138 27.6107 24.8297 27.0469 24.2806C27.7859 24.2806 28.4312 24.2819 29.0778 24.2806C29.3658 24.2792 29.6565 24.2995 29.9404 24.2629C30.4118 24.2019 30.7052 23.8561 30.6468 23.4344C30.5843 22.9883 30.3099 22.7537 29.8508 22.7537C28.3605 22.7523 26.8703 22.7442 25.3801 22.7591C24.9644 22.7632 24.5868 22.694 24.2105 22.5123C23.159 22.0025 22.1171 21.8628 21.1336 22.6791C20.9842 22.8025 20.8089 22.7496 20.6459 22.751C18.918 22.7551 17.1914 22.7523 15.4634 22.7551C14.8657 22.7564 14.5125 23.029 14.4989 23.4832C14.4854 23.9605 14.8562 24.2778 15.4702 24.2806C16.9604 24.2873 18.4507 24.2819 19.9409 24.2846C20.1487 24.2846 20.3661 24.2128 20.3919 24.5775C20.5508 26.8068 21.2885 28.8435 22.5491 30.7446C22.0614 30.9358 21.5887 31.1216 21.1159 31.3074C20.5223 31.5392 19.8825 31.5582 19.2685 31.6979C17.9997 31.7047 16.7309 31.7169 15.4621 31.7169C15.0084 31.7169 14.6402 31.8579 14.5275 32.3203C14.412 32.7908 14.6755 33.0851 15.1062 33.2492C15.492 33.3183 15.8805 33.279 16.2676 33.2776C16.5502 33.2776 16.5964 33.3834 16.4755 33.6126C16.4116 33.7319 16.3328 33.8431 16.25 33.9489C15.4865 34.9279 15.1524 36.0561 15.0423 37.2792C14.8576 39.3213 15.3208 41.2659 15.8642 43.2036C15.9226 43.4219 16.0734 43.6402 15.9117 43.8775Z" fill="#DEF1F6"/>
<path d="M18.1749 35.8514C18.6843 35.9354 18.9886 35.7076 19.2196 35.2574C20.1026 33.5313 21.567 32.5739 23.4253 32.1481C23.6617 32.0939 23.8098 32.178 23.9673 32.3217C25.4032 33.6424 27.1339 34.3489 29.0194 34.7286C29.4337 34.8127 29.7475 34.7001 30.0287 34.3394C31.1345 32.9224 32.5419 32.0613 34.407 32.1224C36.3509 33.0567 37.3739 34.6445 37.6972 36.7341C38.0232 38.84 37.6034 40.8727 37.0329 42.8741C36.4447 44.9379 35.65 46.9313 34.6678 48.8446C34.3269 49.509 33.8894 50.1097 33.1912 50.4623C30.3344 50.4677 27.4762 50.5071 24.6208 50.4623C23.2474 50.4406 22.2883 49.6406 21.696 48.4391C20.3593 45.7285 19.2685 42.9311 18.7917 39.9275C18.7332 39.5614 18.6735 39.1899 18.6803 38.821C18.6884 38.2596 18.4466 37.9288 17.9059 37.8054C17.694 37.1111 17.7361 36.4548 18.1749 35.8514Z" fill="#FA8488"/>
<path d="M0.857542 14.6611C0.833089 13.9004 0.915955 13.1383 0.81543 12.3789C1.45933 12.2352 1.60605 12.0698 1.6074 11.4162C1.61284 9.89475 1.6074 8.37332 1.61012 6.85188C1.61284 5.90539 1.98234 5.15417 2.79876 4.63888C3.08947 4.45582 3.26879 4.44226 3.23482 4.86669C3.22396 5.00094 3.23347 5.13654 3.23347 5.27214C3.23347 17.7135 3.23347 30.1548 3.23347 42.5961C3.23347 44.0267 3.89775 45.0044 5.09046 45.3488C5.42192 45.4437 5.76018 45.4342 6.09843 45.4342C10.0434 45.4356 13.9897 45.4478 17.9346 45.4207C18.5078 45.4166 18.7741 45.5671 18.9942 46.1217C19.5824 47.6066 20.1312 49.1226 21.1568 50.3972C21.0577 50.5464 20.9096 50.4731 20.79 50.4731C15.253 50.4772 9.71598 50.4799 4.17895 50.4759C2.68873 50.4745 1.69435 49.5226 1.61284 48.0405C1.60333 47.8723 1.61012 47.7028 1.61012 47.5333C1.61012 36.9687 1.61012 26.4027 1.61012 15.8381C1.60876 15.011 1.55307 14.9255 0.857542 14.6611Z" fill="#EA9679"/>
<path d="M42.6132 51.4413C42.4896 51.2705 42.3116 51.2691 42.1242 51.2705C41.555 51.2759 40.9844 51.2732 40.4139 51.2732C40.2074 50.5803 40.0688 50.4894 39.3353 50.4745C38.7294 50.4623 38.1154 50.5572 37.5068 50.3579C38.6479 48.7117 39.3353 46.8567 40.0308 45.0057C40.1368 44.725 40.293 44.6816 40.5552 44.683C42.5195 44.6925 44.4838 44.6844 46.4481 44.6911C46.8271 44.6925 47.1626 44.6206 47.361 44.2708C47.6558 43.7514 47.2822 43.1697 46.6383 43.1656C44.8261 43.1561 43.0153 43.1534 41.2031 43.1683C40.7929 43.1724 40.638 43.1358 40.7875 42.6531C41.1298 41.5466 41.0999 41.5371 42.2342 41.5371C43.6565 41.5371 45.0788 41.5344 46.5011 41.5384C46.8624 41.5398 47.1776 41.4489 47.3623 41.1167C47.653 40.5933 47.2835 40.0184 46.6369 40.0129C45.0285 40.0007 43.4201 39.998 41.8117 40.017C41.4314 40.0211 41.2643 39.9424 41.4055 39.5465C41.4164 39.5153 41.4137 39.48 41.4164 39.4461C41.5074 38.3871 41.5074 38.3871 42.5534 38.3871C43.8575 38.3871 45.1617 38.3857 46.4644 38.3884C46.8611 38.3898 47.217 38.303 47.3909 37.9071C47.6245 37.3728 47.2577 36.8656 46.6193 36.8616C45.0272 36.8507 43.4364 36.8507 41.8443 36.8629C41.5455 36.8656 41.3947 36.8046 41.3363 36.4778C40.8051 33.4878 38.906 31.7359 36.1239 30.8057C35.7422 30.6782 35.3428 30.5819 34.9339 30.5901C34.6731 30.5955 34.5671 30.4965 34.5861 30.2321C34.6092 29.9134 34.6092 29.592 34.6187 29.272C34.7763 29.1798 34.9502 29.2232 35.1159 29.2232C39.247 29.2205 43.3794 29.2205 47.5104 29.2219C48.138 29.2219 48.1964 29.2666 48.1978 29.9148C48.2046 35.6113 48.2168 41.3079 48.1896 47.0045C48.1842 48.2466 47.6096 49.2771 46.7266 50.1409C46.5486 50.3145 46.3299 50.3931 46.1017 50.4596C45.2595 50.465 44.4186 50.4704 43.5763 50.4758C42.8591 50.4826 42.62 50.7213 42.6132 51.4413Z" fill="#BDDBFF"/>
<path d="M48.0293 27.6353C44.75 27.6407 41.4694 27.6475 38.1901 27.6529C37.1074 27.6543 36.0261 27.6529 34.9434 27.6543C34.7559 27.6543 34.5793 27.6896 34.5821 27.3899C34.6024 25.2474 34.6092 23.1063 34.6187 20.9638C34.7546 20.8607 34.9135 20.9068 35.0616 20.9068C39.2266 20.9041 43.3916 20.9041 47.5566 20.9055C48.1244 20.9055 48.1937 20.9597 48.1991 21.5441C48.2127 23.387 48.21 25.2284 48.2005 27.0712C48.2005 27.2719 48.1923 27.478 48.0293 27.6353Z" fill="#018CFF"/>
<path d="M30.2588 31.4023C30.7342 31.4837 30.7587 31.2084 30.7587 30.8369C30.7505 21.9998 30.7519 13.1627 30.7519 4.32566C31.3442 4.31888 31.9378 4.33787 32.5274 4.29855C32.939 4.27143 33.0681 4.37855 33.0653 4.81383C33.0436 7.416 33.0545 10.0195 33.0545 12.6217C33.0545 18.4688 33.0504 24.3172 33.064 30.1643C33.0653 30.5548 32.9635 30.7121 32.5777 30.8057C31.7531 31.0037 31.0114 31.405 30.2588 31.919C30.2588 31.7142 30.2588 31.5583 30.2588 31.4023Z" fill="#C4E7ED"/>
<path d="M47.9293 19.3203C45.6309 19.3271 43.331 19.3353 41.0325 19.3393C39.0886 19.342 37.1433 19.3393 35.1993 19.3393C35.0322 19.3393 34.8665 19.3393 34.6709 19.3393C34.8013 18.4701 35.1531 17.7487 35.7278 17.1629C37.0278 15.8354 38.3591 14.5391 39.6727 13.2251C39.799 13.099 39.9213 13.0217 40.1088 13.0244C41.1222 13.0393 42.1369 13.0421 43.1503 13.0488C43.3541 13.1383 43.5239 13.2712 43.6815 13.4285C44.6691 14.4211 45.6635 15.4069 46.6524 16.3982C47.3113 17.0599 47.7324 17.8572 47.9864 18.7481C48.0435 18.9447 48.0964 19.1441 47.9293 19.3203Z" fill="#BDDBFF"/>
<path d="M23.9387 5.61383C21.9241 5.62061 19.9095 5.62875 17.895 5.63282C16.0665 5.63553 14.238 5.63553 12.4096 5.63146C11.7643 5.63011 11.46 5.34806 11.4491 4.72158C11.4356 3.97849 11.4369 3.23405 11.4491 2.49096C11.4586 1.90517 11.748 1.57973 12.3077 1.57837C16.1847 1.57566 20.0617 1.58651 23.9373 1.59193C24.1791 1.75601 24.2036 2.00822 24.2063 2.26451C24.2158 3.15676 24.2158 4.04765 24.2063 4.9399C24.205 5.19754 24.1778 5.44976 23.9387 5.61383Z" fill="#95A5A4"/>
<path d="M46.1015 50.4609C47.3567 49.4778 48.0441 48.2344 48.0386 46.5977C48.0183 41.0394 48.0305 35.4798 48.0305 29.9215C48.0305 29.272 48.0305 29.272 47.3621 29.272C43.1143 29.272 38.8651 29.2734 34.6172 29.2734C34.7313 29.0767 34.9201 29.1798 35.0696 29.1784C39.9926 29.173 44.9156 29.1812 49.8386 29.1649C50.2787 29.1635 50.3575 29.3018 50.3562 29.7059C50.3426 35.2967 50.3507 40.8862 50.3453 46.477C50.3453 48.9842 48.6241 50.5911 46.1015 50.4609Z" fill="#9BC9FF"/>
<path d="M33.1924 50.4609C34.6704 49.1727 35.226 47.3557 35.9324 45.6349C36.579 44.062 37.0911 42.4388 37.3954 40.7615C37.697 39.099 37.826 37.4338 37.3506 35.7727C36.9458 34.3598 36.0709 33.3129 34.8796 32.4939C34.7166 32.3814 34.5128 32.3122 34.4068 32.1237C37.0966 32.0234 39.789 34.5686 39.914 37.2521C40.043 40.0306 39.3217 42.6273 38.3409 45.1752C37.9483 46.1963 37.4959 47.1957 37.0327 48.1869C36.2367 49.8928 35.0833 50.5613 33.1924 50.4609Z" fill="#F16A6E"/>
<path d="M18.1748 35.8513C18.0037 36.4914 17.9276 37.1436 17.9059 37.8026C17.213 38.0494 17.0894 38.2162 17.1478 38.962C17.2728 40.5635 17.6152 42.1229 18.096 43.6524C18.1151 43.7148 18.1273 43.7785 18.1517 43.8762C17.3883 43.8762 16.6507 43.8762 15.9117 43.8762C15.4471 42.5025 15.0857 41.0936 14.9227 39.659C14.6714 37.4379 14.8344 35.2764 16.4116 33.4756C16.4292 33.4553 16.4238 33.4146 16.4306 33.3712C15.9959 33.237 15.5259 33.458 15.102 33.2465C16.2553 33.2465 17.4087 33.2465 18.6245 33.2465C18.3501 33.7306 18.0336 34.1184 17.8352 34.5767C17.5635 35.2127 17.6151 35.4432 18.1748 35.8513Z" fill="#C5E8ED"/>
<path d="M22.1104 23.8968C22.3576 23.5985 22.6578 23.5673 23.0151 23.6826C26.164 24.7023 28.3388 27.4428 28.635 30.7365C28.692 31.3779 28.7178 32.0139 28.7165 32.6553C28.7165 33.0132 28.5929 33.0878 28.2532 32.9726C27.5998 32.7502 26.9437 32.54 26.3637 32.1508C26.2495 31.9718 26.2414 31.7711 26.2414 31.5677C26.2509 30.0748 25.876 28.6754 25.2117 27.3438C24.6371 26.1912 23.8356 25.2379 22.7977 24.4759C22.5573 24.2996 22.2706 24.1694 22.1104 23.8968Z" fill="#77BA61"/>
<path d="M48.0297 27.6354C48.0297 25.5919 48.0216 23.547 48.0392 21.5035C48.0433 21.1035 47.9604 20.9462 47.5149 20.9476C43.2168 20.9652 38.9186 20.9611 34.6191 20.9625C34.7305 20.7604 34.9207 20.8648 35.0701 20.8635C39.9945 20.8581 44.9189 20.8635 49.8433 20.8526C50.2195 20.8513 50.3717 20.9164 50.3663 21.3435C50.3418 23.3029 50.35 25.2624 50.3608 27.2218C50.3622 27.5282 50.3146 27.6788 49.9547 27.6598C49.3162 27.6259 48.6723 27.6408 48.0297 27.6354Z" fill="#007FE9"/>
<path d="M22.1103 23.8969C22.8466 24.2264 23.4416 24.7538 23.985 25.3234C24.872 26.2509 25.4833 27.3574 25.8882 28.5723C26.274 29.7331 26.4777 30.9223 26.365 32.1522C24.5175 31.1569 23.3927 29.5622 22.6428 27.6625C22.2896 26.7689 22.0682 25.8346 21.931 24.8854C21.8807 24.5532 21.7789 24.1762 22.1103 23.8969Z" fill="#7AC364"/>
<path d="M34.5984 15.9792C34.5984 15.5751 34.5984 15.1723 34.5984 14.7682C34.5984 11.4908 34.597 8.21197 34.6024 4.93451C34.6024 4.79349 34.5155 4.59822 34.6704 4.51822C34.813 4.44499 34.957 4.58737 35.0793 4.66873C35.8237 5.16503 36.2122 5.87151 36.2176 6.75833C36.2312 9.24253 36.2217 11.7254 36.2231 14.2096C36.2231 14.3655 36.2122 14.5079 36.0927 14.6299C35.6335 15.0991 35.1798 15.5724 34.7247 16.0442C34.684 16.0225 34.6418 16.0008 34.5984 15.9792Z" fill="#EA9679"/>
<path d="M47.929 19.3204C47.8475 18.2274 47.3476 17.3202 46.61 16.5514C45.4743 15.3676 44.306 14.215 43.1514 13.0502C43.692 13.0434 44.2327 13.0461 44.7734 13.0244C44.9839 13.0163 45.1157 13.1071 45.2529 13.2441C46.5094 14.497 47.7742 15.7432 49.0321 16.9948C49.6067 17.5657 49.9857 18.2464 50.1949 19.0315C50.2656 19.2959 50.2126 19.3488 49.9585 19.3434C49.282 19.3258 48.6055 19.3258 47.929 19.3204Z" fill="#9BC9FF"/>
<path d="M23.9385 5.61387C24.164 4.80027 24.0186 3.9704 24.0404 3.1473C24.0539 2.62931 24.13 2.10047 23.9385 1.59332C24.4615 1.58654 24.9845 1.56485 25.5061 1.57841C26.0617 1.59332 26.3619 1.87673 26.3769 2.42049C26.3973 3.21103 26.3945 4.00294 26.3782 4.79485C26.3674 5.31284 26.0658 5.61523 25.5577 5.62743C25.0171 5.64099 24.4778 5.6193 23.9385 5.61387Z" fill="#557681"/>
<path d="M42.4452 11.5043C41.8529 11.5043 41.262 11.4935 40.6711 11.5084C40.4035 11.5152 40.3124 11.4202 40.322 11.1572C40.3383 10.7355 40.3315 10.3137 40.3247 9.89203C40.3206 9.60049 40.432 9.47167 40.7444 9.47574C41.8937 9.4893 43.0429 9.48523 44.1922 9.4771C44.4761 9.47574 44.5861 9.58964 44.5793 9.86898C44.5671 10.307 44.559 10.7477 44.582 11.1843C44.597 11.4758 44.4625 11.5125 44.2207 11.507C43.6284 11.4962 43.0361 11.5043 42.4452 11.5043Z" fill="#9BC9FF"/>
<path d="M19.2676 31.6979C19.8463 31.3901 20.4752 31.3236 21.1151 31.3074C20.5798 31.8227 19.9196 31.7426 19.2676 31.6979Z" fill="#C5E5EB"/>
<path d="M22.575 15.2713C20.2059 15.2713 17.8381 15.2726 15.469 15.2713C14.8522 15.2713 14.4855 14.977 14.4963 14.4984C14.5072 14.0346 14.8604 13.7512 15.4472 13.7512C20.2018 13.7498 24.9564 13.7498 29.7096 13.7512C30.2991 13.7512 30.6428 14.0319 30.651 14.5024C30.6578 14.9933 30.3114 15.2713 29.6811 15.2713C27.3119 15.2713 24.9441 15.2713 22.575 15.2713Z" fill="#333333"/>
<path d="M7.17393 32.4207C7.2174 32.0139 7.10329 31.523 7.25816 31.0403C7.52034 30.2226 8.20907 29.6897 9.06625 29.6789C9.64223 29.6721 10.2182 29.6761 10.7928 29.6775C11.9136 29.6802 12.6838 30.3108 12.8006 31.3996C12.8821 32.1536 12.8916 32.9197 12.787 33.675C12.6621 34.5727 12.048 35.1788 11.1569 35.2792C10.3826 35.3673 9.60012 35.37 8.82716 35.2764C7.85452 35.1585 7.19295 34.391 7.17529 33.4119C7.1685 33.1082 7.17393 32.8044 7.17393 32.4207Z" fill="#333333"/>
<path d="M7.19737 23.5158C7.19737 23.0941 7.14304 22.6629 7.20824 22.2507C7.34273 21.3991 8.01516 20.7726 8.90766 20.6994C9.63035 20.6411 10.3666 20.637 11.0893 20.6994C12.0579 20.7835 12.7032 21.4303 12.8023 22.4012C12.8811 23.1727 12.8988 23.9551 12.782 24.7267C12.6407 25.6542 11.903 26.2956 10.9671 26.3227C10.3408 26.3417 9.71322 26.3376 9.08697 26.3241C7.99478 26.3024 7.18922 25.4752 7.17564 24.3769C7.17156 24.0894 7.17564 23.8019 7.17564 23.5144C7.18107 23.5158 7.18922 23.5158 7.19737 23.5158Z" fill="#333333"/>
<path d="M10.0162 11.7037C10.3042 11.7037 10.5922 11.6982 10.8802 11.705C11.9411 11.7281 12.6869 12.3559 12.801 13.4054C12.8853 14.1756 12.8988 14.9594 12.7834 15.7296C12.6462 16.6463 11.9411 17.2768 11.0215 17.3094C10.3287 17.3338 9.63313 17.3351 8.94032 17.3067C7.96632 17.266 7.20559 16.4754 7.17977 15.495C7.16211 14.836 7.16076 14.177 7.17977 13.518C7.20966 12.5227 7.99892 11.747 9.00145 11.7104C9.33971 11.6982 9.67796 11.7091 10.0176 11.7091C10.0162 11.7064 10.0162 11.705 10.0162 11.7037Z" fill="#333333"/>
<path d="M9.98793 31.2003C11.326 31.2179 11.3043 30.9725 11.3015 32.5047C11.2988 33.9475 11.3613 33.7699 10.0056 33.7753C8.54118 33.7807 8.7042 33.8838 8.69876 32.4736C8.69197 31.0714 8.60231 31.1976 9.98793 31.2003Z" fill="#98DD83"/>
<path d="M9.96464 24.8067C8.59668 24.8176 8.69041 24.884 8.69856 23.5524C8.70671 22.13 8.51925 22.2046 10.0244 22.2059C11.3557 22.2073 11.3013 22.1001 11.3013 23.4616C11.3027 24.9762 11.3543 24.8027 9.96464 24.8067Z" fill="#98DD83"/>
<path d="M9.9878 15.792C8.5886 15.7906 8.69728 15.9289 8.69728 14.5241C8.69864 13.08 8.57909 13.2251 10.0109 13.2332C11.3463 13.2413 11.3014 13.0013 11.3001 14.497C11.3001 16.0171 11.368 15.773 9.9878 15.792Z" fill="#98DD83"/>
</g>
<defs>
<clipPath id="clip0_130_1521">
<rect width="52" height="52" fill="white"/>
</clipPath>
</defs>
</svg>
