<svg width="56" height="56" viewBox="0 0 56 56" fill="none" xmlns="http://www.w3.org/2000/svg">
<path d="M24.5 26.25H31.5V29.75H24.5V26.25Z" fill="#8ABEFA"/>
<path d="M52.1242 26.0155L28.0004 3.5L3.87668 26.0155C3.11543 26.726 3.61768 28 4.65893 28H10.5004V52.5H45.5004V28H51.3419C52.3832 28 52.8854 26.726 52.1242 26.0155ZM38.5004 44.625C38.5004 45.108 38.1084 45.5 37.6254 45.5H18.3754C17.8924 45.5 17.5004 45.108 17.5004 44.625V36.75H38.5004V44.625ZM38.5004 35H17.5004V30.625C17.5004 30.142 17.8924 29.75 18.3754 29.75H22.7504V26.25C22.7504 25.2858 23.5344 24.5 24.5004 24.5H31.5004C32.4664 24.5 33.2504 25.2858 33.2504 26.25V29.75H37.6254C38.1084 29.75 38.5004 30.142 38.5004 30.625V35Z" fill="#018CFF"/>
<path fill-rule="evenodd" clip-rule="evenodd" d="M31.3027 42.4207V40.3134C31.3027 40.173 31.1878 40.0582 31.0475 40.0582H29.2958V38.3065C29.2958 38.1661 29.1809 38.0513 29.0406 38.0513H26.9332C26.7928 38.0513 26.678 38.1661 26.678 38.3065V40.0582H24.9264C24.7859 40.0582 24.6712 40.173 24.6712 40.3134V42.4207C24.6712 42.5612 24.7859 42.6761 24.9264 42.6761H26.678V44.4276C26.678 44.568 26.7928 44.6828 26.9332 44.6828H29.0406C29.1809 44.6828 29.2958 44.568 29.2958 44.4276V42.6761H31.0475C31.1878 42.6761 31.3027 42.5612 31.3027 42.4207Z" fill="#F25E64"/>
</svg>
