<svg width="52" height="52" viewBox="0 0 52 52" fill="none" xmlns="http://www.w3.org/2000/svg">
<g clip-path="url(#clip0_107_1205)">
<path d="M52.0002 41.7055C51.7382 42.0316 51.4369 42.2232 50.9794 42.2219C39.6769 42.2097 28.3745 42.211 17.072 42.211C17.0191 42.1689 16.962 42.1159 16.958 42.0507C16.8915 41.0205 16.791 39.9904 17.015 38.9657C17.2729 38.7428 17.5851 38.8148 17.8824 38.8094C18.9671 38.7904 20.0517 38.7904 21.1363 38.808C24.9224 38.7863 28.7084 38.7849 32.4944 38.8067C35.5909 38.7768 38.6873 38.7958 41.7837 38.7958C44.0847 38.7958 46.3856 38.7727 48.6866 38.8094C49.4766 38.8012 50.2667 38.8026 51.0581 38.8094C51.521 38.8135 51.8808 38.9698 52.0029 39.4672C52.0002 40.2133 52.0002 40.9594 52.0002 41.7055Z" fill="#EA9679"/>
<path d="M51.9079 14.9492C51.9378 14.9546 51.969 14.9587 52.0002 14.9587C52.0002 15.2305 52.0002 15.5009 52.0002 15.7727C51.969 15.7714 51.9378 15.7754 51.9079 15.7822C51.6934 15.5036 51.6934 15.2264 51.9079 14.9492Z" fill="#8EA1D2"/>
<path d="M48.7516 16.1791C48.7516 23.7665 48.7503 31.3552 48.7503 38.9426C46.2864 38.948 43.8226 38.9589 41.3587 38.9589C38.4049 38.9589 35.4523 38.9494 32.4984 38.9426C32.2731 38.6816 32.3437 38.3636 32.3423 38.066C32.3382 33.7484 32.3396 29.4322 32.3396 25.1146C32.3396 24.9121 32.3423 24.7082 32.3369 24.5058C32.307 23.4512 31.7382 22.8695 30.693 22.8518C29.6273 22.8342 28.563 22.8491 27.4974 22.8464C27.2612 22.8464 27.0237 22.86 26.7915 22.8083C26.4454 22.686 26.6055 22.5189 26.7657 22.3748C27.1445 22.0364 27.511 21.6844 27.8477 21.3053C28.2495 20.8527 28.373 20.3213 28.1436 19.7478C27.9345 19.226 27.5476 18.8985 26.9843 18.7965C26.4874 18.7055 26.0924 18.9338 25.7273 19.2165C24.606 20.0876 23.5254 21.009 22.4326 21.9155C22.0552 22.228 21.667 22.527 21.2923 22.8437C20.9 23.1753 20.714 23.163 20.433 22.7295C19.7081 21.607 18.9846 20.4831 18.2991 19.3361C18.1416 19.0724 17.8389 18.8754 17.8701 18.5098C17.8701 17.9186 17.8742 17.3274 17.8701 16.7363C17.8687 16.5745 17.9258 16.3924 17.7588 16.2674C17.8199 15.9059 18.147 15.7686 18.3832 15.5784C21.4634 13.0941 24.5272 10.5881 27.6047 8.09972C29.3015 6.72847 30.993 5.35043 32.6857 3.97375C33.2858 3.48586 33.3631 3.50489 33.9781 4.00093C35.808 5.47682 37.6284 6.96494 39.4596 8.43947C39.6442 8.58761 39.8438 8.72215 39.9157 8.96813C39.9945 9.43971 39.9415 9.91536 39.9578 10.3897C39.9918 11.341 40.5755 11.9308 41.5257 11.9648C42.2696 11.9919 43.0149 11.9226 43.7574 12.0042C44.462 12.382 45.0158 12.9609 45.6321 13.4542C46.5932 14.2248 47.5652 14.9804 48.4964 15.7877C48.6145 15.891 48.8032 15.9589 48.7516 16.1791Z" fill="#BDDBFF"/>
<path d="M17.8686 18.5098C18.7401 19.8742 19.6224 21.2332 20.479 22.6072C20.7288 23.0067 20.889 23.0421 21.2759 22.7118C22.7474 21.452 24.2515 20.2303 25.7637 19.0207C26.5348 18.4037 27.3683 18.5288 28.0443 19.298C28.5615 19.8864 28.5018 20.8323 27.8896 21.4507C27.4755 21.8692 27.0384 22.2661 26.6108 22.6724C26.3868 23.1671 25.9483 23.4756 25.5696 23.8235C24.6234 24.6906 23.7003 25.5793 22.7542 26.445C22.2343 26.9207 21.7659 27.4657 21.1279 27.8041C20.2252 28.2077 19.4528 27.9685 18.7944 27.2958C18.4075 26.9003 18.0695 26.4586 17.7043 26.0428C17.3731 25.7275 17.1301 25.332 16.7269 24.9746C16.6753 25.3415 16.7975 25.6459 16.788 25.9504C16.7568 27.0022 16.8681 28.0487 16.9142 29.0965C16.9971 30.9896 17.0649 32.8827 17.1803 34.7744C17.2577 36.0424 17.2075 37.3144 17.1993 38.5851C17.198 38.7237 17.16 38.8529 17.0717 38.9629C17.0717 40.0461 17.0717 41.1292 17.0717 42.2123C17.0676 44.8896 17.0636 47.5669 17.0581 50.2428C17.0568 51.2077 16.5165 51.9442 15.7902 51.9769C14.4708 52.0367 13.94 51.6004 13.8002 50.3977C13.5124 47.9175 13.2002 45.4414 12.9124 42.9612C12.6897 41.0504 12.4834 39.1382 12.2825 37.2248C12.2078 36.5194 12.2241 36.5181 11.4992 36.5181C10.5259 36.5181 10.5571 36.5208 10.4458 37.5278C10.2042 39.7077 9.92318 41.8821 9.66797 44.0592C9.48064 45.6683 9.31095 47.2787 9.13176 48.8892C9.06389 49.4926 9.02995 50.1041 8.91185 50.6967C8.76117 51.4564 8.34034 52.125 6.90412 51.9782C6.28646 51.9157 5.68781 51.243 5.68781 50.5037C5.68238 45.319 5.64844 40.133 5.71224 34.9498C5.73939 32.687 5.90501 30.4242 6.01768 28.1615C6.07605 26.9819 6.0489 25.7982 6.11813 24.5778C5.51134 25.2872 4.86653 25.968 4.31674 26.7196C4.05203 27.0797 4.14163 27.6043 4.07783 28.0528C3.78325 30.0899 3.5199 32.1298 3.25111 34.1697C3.12487 35.1332 2.41626 35.7611 1.50267 35.7027C0.624372 35.6483 -0.0475851 34.9267 0.00264204 33.9835C0.103096 32.0958 0.256493 30.2095 0.381382 28.3232C0.431609 27.5649 0.479121 26.8052 0.498126 26.0441C0.508986 25.6228 0.616227 25.241 0.834783 24.8903C2.01173 22.9931 3.20089 21.1041 4.37104 19.2029C4.96427 18.2393 5.77876 17.7813 6.93263 17.7949C9.85937 17.8302 12.7888 17.8248 15.7156 17.7949C16.5382 17.7868 17.2441 17.9906 17.8686 18.5098Z" fill="#8FB6E0"/>
<path d="M39.7945 8.85127C37.7814 7.22589 35.7628 5.60594 33.7578 3.96833C33.4564 3.72235 33.2555 3.64488 32.9066 3.92892C27.8717 8.03586 22.8245 12.1279 17.7801 16.2226C17.7679 16.2321 17.7638 16.2511 17.7557 16.2661C17.3525 16.5678 16.9724 16.9007 16.4321 16.9496C15.6719 17.019 15.0176 16.5419 14.7217 15.6735C14.9511 15.3311 15.2986 15.0688 15.3746 14.6203C15.4018 14.4572 15.6013 14.4409 15.7547 14.4273C15.9231 14.4124 16.0927 14.4273 16.2597 14.4042C16.8163 14.3267 17.0579 13.8742 16.8109 13.3673C16.7525 13.2477 16.6452 13.1526 16.6357 13.0085C18.2973 11.6495 19.9548 10.285 21.6204 8.93145C25.1133 6.09655 28.6115 3.26708 32.1071 0.43353C32.3446 0.241909 32.5795 0.0489285 32.893 -0.00543213C33.1713 -0.00543213 33.4482 -0.00543213 33.7265 -0.00543213C34.0388 0.0475695 34.275 0.239191 34.5125 0.429453C36.2732 1.84691 38.0338 3.26572 39.7945 4.68317C39.9737 4.8313 39.9669 5.04331 39.9696 5.24309C39.9791 6.25691 39.9791 7.27209 39.9696 8.28592C39.9669 8.49113 39.9737 8.70314 39.7945 8.85127Z" fill="#018CFF"/>
<path d="M6.7836 12.9093C6.06956 10.9034 6.75645 8.63788 8.45874 7.37808C10.1855 6.1006 12.557 6.1006 14.2824 7.37672C15.9847 8.63652 16.6702 10.9047 15.9562 12.9079C15.6711 13.1349 15.4335 13.0574 15.3141 12.7462C15.1308 12.2705 14.7589 12.1401 14.3109 12.0069C12.3439 11.4266 10.3945 11.4266 8.42752 12.0069C7.97955 12.1387 7.60896 12.2719 7.4257 12.7462C7.30624 13.0588 7.06868 13.1349 6.7836 12.9093Z" fill="#8FB6E1"/>
<path d="M6.7832 12.9093C7.09542 12.9663 7.30312 12.931 7.3642 12.5301C7.42122 12.1604 7.75652 12.0028 8.10404 11.9321C9.12487 11.7242 10.1457 11.5244 11.1665 11.3165C11.4095 11.2662 11.6322 11.3464 11.8629 11.3912C12.786 11.572 13.7105 11.7473 14.6322 11.9321C14.9797 12.0014 15.3137 12.1591 15.3734 12.5301C15.4358 12.9283 15.6408 12.9677 15.9558 12.9093C16.1838 12.9364 16.42 12.9065 16.6359 13.0125C16.9644 13.2735 17.1639 13.582 16.9929 14.0182C16.8273 14.4436 16.4838 14.5713 16.0616 14.5523C15.7073 14.536 15.3788 14.4789 15.3761 15.0375C15.3748 15.3786 15.0001 15.5199 14.7218 15.6762C13.9046 15.9956 13.0806 16.2959 12.2742 16.6384C11.6607 16.898 11.081 16.9034 10.4674 16.6357C9.67872 16.2905 8.87509 15.9806 8.0701 15.6735C7.64385 15.5104 7.31805 15.2807 7.30719 14.7779C7.30312 14.5958 7.21217 14.5469 7.05198 14.5523C6.88365 14.5577 6.71397 14.5577 6.54428 14.5509C6.023 14.5278 5.6877 14.2126 5.68363 13.7464C5.67956 13.2789 5.99721 12.9704 6.52935 12.9269C6.61487 12.9188 6.69904 12.9147 6.7832 12.9093Z" fill="#FCE791"/>
<path d="M21.1184 27.6709C21.7144 27.3624 22.1352 26.8433 22.6171 26.4029C23.9637 25.1757 25.2818 23.9173 26.6108 22.6711C27.9642 22.6765 29.3177 22.682 30.6711 22.6874C31.8426 22.6915 32.4955 23.3384 32.4969 24.5085C32.4983 29.3194 32.4983 34.1303 32.4983 38.9412C28.7068 38.9412 24.914 38.9412 21.1225 38.9412C20.9487 38.7659 20.9623 38.5403 20.961 38.3229C20.9555 34.9987 20.9569 31.6732 20.9582 28.349C20.9569 28.1099 20.9827 27.8775 21.1184 27.6709Z" fill="#018CFF"/>
<path d="M21.1187 27.6709C21.1201 31.4286 21.1201 35.1849 21.1215 38.9426C20.0382 38.9426 18.9549 38.9426 17.8716 38.9426C17.6856 38.751 17.7101 38.505 17.7101 38.2726C17.706 34.4198 17.706 30.567 17.7101 26.7128C17.7101 26.4804 17.6843 26.2345 17.873 26.0442C18.2124 26.4342 18.5354 26.8392 18.8925 27.2129C19.5644 27.9156 20.2079 28.0392 21.1187 27.6709Z" fill="#B9DAF3"/>
<path d="M17.8715 26.0428C17.8715 30.3427 17.8701 34.6426 17.8701 38.9412C17.604 38.948 17.3366 38.9548 17.0705 38.9616C17.1018 34.1765 16.723 29.4077 16.5547 24.5003C17.0393 25.0684 17.4561 25.5563 17.8715 26.0428Z" fill="white"/>
<path d="M48.7516 16.1791C47.4267 15.0905 46.1004 14.0047 44.7769 12.9134C44.466 12.6579 44.1674 12.3888 43.8633 12.1265C44.0289 11.9362 44.257 11.9525 44.4728 11.9512C45.7706 11.943 47.067 11.943 48.3647 11.9512C48.5806 11.9525 48.8086 11.9362 48.9742 12.1265C49.7263 12.7448 50.477 13.3646 51.2331 13.9788C51.5535 14.2398 51.8195 14.532 51.9105 14.9492C51.9105 15.2264 51.9105 15.5036 51.9091 15.7822C51.4951 16.9877 50.3209 17.3546 49.315 16.5936C49.1276 16.4522 48.9389 16.3163 48.7516 16.1791Z" fill="#4682C3"/>
<path d="M48.9716 12.1265C47.2679 12.1265 45.5656 12.1265 43.862 12.1265C43.0882 12.121 42.3158 12.1183 41.542 12.1115C40.4872 12.1007 39.8221 11.4279 39.8112 10.3665C39.8058 9.86235 39.8004 9.3568 39.7949 8.8526C39.7949 7.46505 39.7949 6.0775 39.7949 4.68994C39.8004 3.9452 39.8044 3.20046 39.8112 2.45572C39.8221 1.39705 40.471 0.727053 41.5149 0.724335C44.1701 0.71754 46.8267 0.71754 49.482 0.724335C50.5218 0.727053 51.1829 1.40112 51.1843 2.45572C51.1897 5.04736 51.187 7.63764 51.1856 10.2293C51.1856 11.4864 50.5761 12.1007 49.3245 12.1129C49.2078 12.1129 49.0897 12.121 48.9716 12.1265Z" fill="#FCE791"/>
<path d="M35.7485 29.2147C35.7485 27.8924 35.7445 26.5714 35.7499 25.2491C35.754 24.1646 36.411 23.5055 37.4929 23.5028C39.5753 23.4974 41.6563 23.4987 43.7387 23.5028C44.8369 23.5055 45.4967 24.1728 45.498 25.2858C45.5021 27.8951 45.5021 30.5058 45.498 33.1151C45.4967 34.2118 44.822 34.8873 43.7279 34.89C41.6631 34.8941 39.5984 34.8941 37.5323 34.89C36.4015 34.8886 35.7513 34.2254 35.7485 33.0784C35.7458 31.7914 35.7485 30.5031 35.7485 29.2147Z" fill="#018CFF"/>
<path d="M46.3116 4.38554C46.3116 5.60322 46.3116 5.60322 47.5076 5.60322C47.5239 5.60322 47.5415 5.60322 47.5578 5.60322C48.7809 5.60322 48.766 5.60322 48.7578 6.82633C48.7551 7.18104 48.6234 7.24899 48.3126 7.2354C47.8062 7.21501 47.2972 7.2517 46.7908 7.22181C46.4243 7.20006 46.275 7.29247 46.3008 7.69067C46.336 8.2302 46.2994 8.7738 46.313 9.31469C46.3198 9.56747 46.2505 9.66396 45.9763 9.67619C44.684 9.73598 44.684 9.7455 44.684 8.44492C44.684 7.22724 44.684 7.22724 43.488 7.22724C43.4717 7.22724 43.4541 7.22724 43.4378 7.22724C42.2147 7.22724 42.2296 7.22724 42.2378 6.00413C42.2405 5.64943 42.3722 5.58147 42.683 5.59506C43.1894 5.61545 43.6985 5.57876 44.2048 5.60866C44.5713 5.6304 44.7206 5.53799 44.6948 5.13979C44.6596 4.60027 44.6948 4.05666 44.6826 3.51577C44.6758 3.263 44.7451 3.1665 45.0193 3.15427C46.3116 3.09448 46.3116 3.08496 46.3116 4.38554Z" fill="#F15F64"/>
<path d="M43.8744 29.2487C43.8744 30.4338 43.8636 31.6202 43.8812 32.8053C43.8866 33.1355 43.8323 33.2782 43.4509 33.2741C41.5572 33.2537 39.6621 33.2578 37.7671 33.2714C37.4616 33.2741 37.3639 33.1994 37.3652 32.8787C37.3788 30.4229 37.3788 27.9672 37.3652 25.5114C37.3639 25.1853 37.4711 25.12 37.7711 25.1228C39.6662 25.135 41.5599 25.1364 43.4549 25.1214C43.7807 25.1187 43.888 25.2002 43.8826 25.54C43.8622 26.7767 43.8744 28.012 43.8744 29.2487Z" fill="white"/>
</g>
<defs>
<clipPath id="clip0_107_1205">
<rect width="52" height="52" fill="white"/>
</clipPath>
</defs>
</svg>
