<svg width="61" height="41" viewBox="0 0 61 41" fill="none" xmlns="http://www.w3.org/2000/svg">
<g clip-path="url(#clip0_107_1167)">
<path d="M6.35181 14.508C6.35181 13.7482 6.35014 12.9885 6.35014 12.2305C6.05761 11.294 6.05594 10.3575 6.35181 9.42101C6.3585 6.81379 6.36351 4.20827 6.37187 1.60104C6.37521 0.416408 6.78476 0 7.95488 0C18.3957 0 28.8382 0 39.279 0.00169962C40.4307 0.00169962 40.8419 0.431704 40.8469 1.62994C40.8503 2.77378 40.872 3.91933 40.8369 5.06318C40.8219 5.56287 40.9639 5.70563 41.4604 5.70393C45.1914 5.68354 48.9224 5.71923 52.6518 5.67844C53.8904 5.66484 54.7413 6.14074 55.3815 7.2064C56.682 9.37512 58.026 11.5183 59.3733 13.6582C59.7577 14.2683 59.9449 14.8989 59.9449 15.628C59.9433 18.4239 59.9817 21.2215 59.9884 24.0174C59.9918 25.2666 59.9617 26.5158 59.9333 27.765C59.9266 28.071 59.9667 28.2749 60.3127 28.3718C60.8025 28.5095 60.9797 28.9242 60.9864 29.4035C60.9997 30.2941 61.0098 31.1847 60.983 32.0736C60.9613 32.7857 60.5802 33.1579 59.8714 33.1766C59.0807 33.1987 58.2867 33.2055 57.4961 33.1732C57.0347 33.1545 56.8659 33.2514 56.8542 33.7834C56.7806 37.1351 54.5323 39.9564 51.3262 40.7859C46.9282 41.9229 42.4734 38.4846 42.3965 33.8667C42.3881 33.3194 42.2778 33.1647 41.7178 33.1681C36.8819 33.1936 32.0476 33.1936 27.2117 33.1681C26.6851 33.1647 26.5832 33.3109 26.5531 33.8191C26.2923 38.1327 23.1129 41.1105 18.9523 40.9779C15.335 40.8623 12.2308 37.7078 12.1038 34.0197C12.0754 33.1834 12.0754 33.1834 11.263 33.1834C9.70002 33.1834 8.13708 33.1868 6.57413 33.1817C5.59625 33.18 5.25357 32.8316 5.24856 31.8475C5.24521 31.0419 5.24856 30.2363 5.24856 29.4307C5.24856 28.8817 5.47589 28.4806 6.01248 28.3378C6.27492 28.2681 6.3819 28.1695 6.37856 27.8738C6.3585 26.0518 6.3585 24.2298 6.35014 22.4078C6.05761 21.4713 6.05594 20.5348 6.35181 19.5984C6.35181 18.8386 6.35014 18.0789 6.35014 17.3209C6.05761 16.381 6.05594 15.4445 6.35181 14.508Z" fill="#3A7ABE"/>
<path d="M6.35219 19.595C6.35219 20.5315 6.35051 21.468 6.35051 22.4044C4.77085 22.4027 3.19286 22.401 1.6132 22.3959C0.64033 22.3926 0.0118083 21.8487 0.000107121 21.0108C-0.00992248 20.2272 0.685463 19.612 1.61487 19.6052C3.19453 19.5967 4.77252 19.5984 6.35219 19.595Z" fill="#A1C6E9"/>
<path d="M6.35207 14.508C6.35207 15.4445 6.3504 16.381 6.3504 17.3175C5.35413 17.3158 4.35785 17.3192 3.36158 17.3073C2.42883 17.2971 1.85547 16.7583 1.85547 15.9119C1.85547 15.0672 2.42883 14.5301 3.36325 14.5182C4.35952 14.508 5.3558 14.5114 6.35207 14.508Z" fill="#A1C6E9"/>
<path d="M6.35162 9.42102C6.35162 10.3575 6.34995 11.294 6.34995 12.2305C5.89361 12.2271 5.43726 12.239 4.98091 12.2186C4.14679 12.1812 3.60352 11.6203 3.60352 10.8249C3.60352 10.0295 4.14846 9.47031 4.98259 9.43292C5.43893 9.41422 5.89528 9.42442 6.35162 9.42102Z" fill="#A1C6E9"/>
<path d="M23.621 1.03169C28.7696 1.03169 33.9164 1.04019 39.0649 1.01979C39.6767 1.01809 39.9091 1.16766 39.8924 1.83221C39.6818 10.4306 39.7704 19.029 39.7687 27.6291C39.7687 28.1577 39.5898 28.2579 39.1201 28.2579C34.3477 28.2426 29.5753 28.246 24.8029 28.2545C24.4017 28.2545 24.1025 28.1135 23.7899 27.8602C22.2654 26.6246 20.5503 26.0756 18.5795 26.3119C17.0617 26.4937 15.7344 27.0461 14.6011 28.0778C14.3838 28.2749 14.1431 28.2477 13.8973 28.2477C11.9583 28.2494 10.0209 28.2274 8.08352 28.263C7.50849 28.2732 7.35136 28.1084 7.35303 27.522C7.37142 19.4267 7.3664 11.3314 7.3664 3.2361C7.3664 2.74831 7.39983 2.25881 7.35804 1.77442C7.30288 1.16766 7.55362 1.01979 8.11528 1.02149C13.2839 1.04019 18.4524 1.03169 23.621 1.03169Z" fill="#018CFF"/>
<path d="M40.8753 17.5027C40.8753 14.0916 40.8836 10.6805 40.8653 7.26931C40.8636 6.80531 40.9706 6.65065 41.452 6.65405C45.2031 6.67444 48.9524 6.66934 52.7035 6.66084C53.5042 6.65914 54.0742 6.97358 54.5022 7.68402C55.8428 9.90203 57.2185 12.0979 58.5892 14.2973C58.8199 14.6678 58.9352 15.0502 58.9319 15.4921C58.9185 17.0812 58.9085 18.6704 58.9386 20.2595C58.9469 20.7524 58.7798 20.8765 58.3268 20.8578C57.516 20.8255 56.702 20.8425 55.8896 20.851C55.2092 20.8578 54.9602 21.0685 54.9368 21.7365C54.9067 22.5608 54.9067 23.3902 54.9368 24.2145C54.9618 24.8927 55.236 25.1442 55.933 25.1612C56.7655 25.1816 57.5996 25.1833 58.4338 25.1595C58.8166 25.1493 58.9486 25.2836 58.9352 25.6711C58.9118 26.3697 58.9152 27.0699 58.9336 27.7685C58.9419 28.1118 58.8533 28.2614 58.4822 28.2563C57.2954 28.2376 56.1069 28.241 54.9201 28.2563C54.6409 28.2597 54.4604 28.1288 54.2598 27.969C51.3311 25.6456 47.8141 25.6711 44.9122 28.0438C44.7133 28.207 44.5227 28.2546 44.287 28.2529C43.3292 28.2478 42.3697 28.2257 41.4119 28.2614C40.9472 28.2783 40.8703 28.0931 40.8719 27.6733C40.882 24.2825 40.8753 20.8935 40.8753 17.5027Z" fill="#A1C6E9"/>
<path d="M49.6116 39.9598C46.123 39.9581 43.3699 37.1334 43.3799 33.5625C43.3899 30.1088 46.1882 27.2637 49.5949 27.2467C53.015 27.2297 55.8918 30.1564 55.8835 33.6406C55.8734 37.1232 53.0568 39.9615 49.6116 39.9598Z" fill="#7ACED3"/>
<path d="M13.0957 33.6236C13.0957 30.119 15.8739 27.2365 19.3074 27.2552C22.6355 27.2722 25.5892 29.8828 25.5709 33.6508C25.5508 37.5617 22.3831 40.0057 19.3107 39.9683C15.8355 39.9258 13.094 37.1589 13.0957 33.6236Z" fill="#7ACED3"/>
<path d="M25.209 29.2981C31.4223 29.2981 37.5203 29.2981 43.7153 29.2981C43.2104 30.1632 42.7641 31.0113 42.5568 31.9597C42.5 32.2163 42.2827 32.1739 42.1005 32.1739C37.0188 32.1739 31.9372 32.1756 26.8538 32.1722C26.6566 32.1722 26.4359 32.2299 26.3657 31.9206C26.1618 31.0079 25.7556 30.1785 25.209 29.2981Z" fill="#C0D9F1"/>
<path d="M13.4376 29.2896C12.886 30.1785 12.4814 31.0249 12.2675 31.9478C12.2039 32.218 12.01 32.1789 11.8295 32.1789C10.1044 32.1806 8.37765 32.1721 6.65256 32.1857C6.30821 32.1891 6.23299 32.0481 6.23967 31.7353C6.25472 31.0589 6.24302 30.3824 6.23967 29.706C6.238 29.485 6.22797 29.2845 6.54725 29.2845C8.80558 29.2913 11.0622 29.2896 13.4376 29.2896Z" fill="#C0D9F1"/>
<path d="M55.4941 29.2777C56.9367 29.2777 58.264 29.2828 59.5912 29.2726C59.8737 29.2709 60.0091 29.3474 60.0024 29.6618C59.9874 30.3587 59.9841 31.0555 60.0041 31.7507C60.0141 32.0974 59.867 32.179 59.5595 32.1739C58.7504 32.1603 57.9414 32.1688 57.1323 32.1688C56.9217 32.1688 56.7127 32.1841 56.6509 31.8968C56.452 30.9841 56.0341 30.1649 55.4941 29.2777Z" fill="#C0D9F1"/>
<path d="M57.4577 21.8469C58.9053 21.8469 58.9103 21.8469 58.9036 23.3273C58.9003 24.2519 59.0173 24.1363 58.113 24.1431C57.5296 24.1482 56.9462 24.1312 56.3628 24.1482C56.0385 24.1584 55.8964 24.0377 55.9282 23.7063C55.9382 23.6009 55.9298 23.4939 55.9298 23.3885C55.9282 21.8469 55.9282 21.8469 57.4577 21.8469Z" fill="#FDE892"/>
<path d="M27.9747 22.9449C25.3436 22.8956 23.891 22.2174 22.8195 20.7694C22.5319 20.3819 22.2962 20.3003 21.9536 20.7201C20.9339 21.9727 19.6501 22.7035 18.0086 22.6509C15.4343 22.5676 13.5722 20.2119 13.5989 18.1146C13.6173 16.6461 14.0854 15.4699 15.1084 14.4468C17.5589 11.9976 20.0011 9.53826 22.3949 7.03132C23.9261 5.42857 26.6825 5.35719 28.2388 6.48234C30.0558 7.79445 30.7713 10.2198 29.8502 12.2611C29.7031 12.5857 29.6931 12.7421 30.0174 12.9647C31.1791 13.7618 31.9531 14.8547 32.269 16.262C33.0948 19.9485 30.1795 23.0401 27.9747 22.9449Z" fill="#4464AF"/>
<path d="M49.852 17.4313C47.6422 17.4313 45.434 17.433 43.2241 17.4313C42.4552 17.4313 42.3633 17.3361 42.3633 16.5475C42.3616 14.1102 42.3599 11.673 42.3633 9.23573C42.3649 8.49299 42.4552 8.40291 43.2041 8.40291C46.1628 8.40121 49.1232 8.41311 52.0819 8.39441C52.7874 8.38931 53.2671 8.68335 53.6282 9.26972C54.81 11.1903 55.9985 13.1058 57.187 15.0212C57.5882 15.6688 57.4244 16.3826 57.3642 17.0608C57.3291 17.4483 56.9229 17.4313 56.6019 17.4313C54.3536 17.4296 52.1037 17.4313 49.852 17.4313Z" fill="#3A7ABE"/>
<path d="M45.4825 33.593C45.4942 31.2357 47.343 29.378 49.6631 29.3933C51.9566 29.4086 53.7786 31.3122 53.7686 33.6814C53.7586 35.981 51.9048 37.8353 49.6063 37.8472C47.3029 37.8574 45.4708 35.9674 45.4825 33.593Z" fill="#4464AF"/>
<path d="M19.4529 37.8319C17.2046 37.9526 15.2354 36.1459 15.1669 33.7341C15.1017 31.4039 16.7533 29.5785 19.0367 29.4069C21.3786 29.2301 23.3745 31.0657 23.4898 33.4078C23.6035 35.7498 21.8199 37.7061 19.4529 37.8319Z" fill="#4464AF"/>
<path d="M14.6 17.9633C14.5649 16.9537 14.9276 16.092 15.6029 15.3816C16.6143 14.3159 17.6624 13.286 18.682 12.2271C18.901 11.9993 19.0381 11.9569 19.2771 12.2101C20.1464 13.1228 21.0306 14.0185 21.9249 14.9057C22.1322 15.1114 22.189 15.283 22.0771 15.5669C21.6391 16.6631 21.6458 17.7917 21.8982 18.9304C21.9333 19.0885 22.0503 19.2414 21.8898 19.3995C21.0122 20.2578 20.265 21.2691 18.9528 21.5393C16.6895 22.0033 14.6067 20.3156 14.6 17.9633Z" fill="#F7A7A8"/>
<path d="M27.036 21.9047C24.6055 21.8962 22.7115 19.9297 22.7316 17.4398C22.7517 15.0008 24.6757 13.082 27.0911 13.0939C29.525 13.1058 31.4189 15.0705 31.3955 17.5588C31.3738 20.0028 29.4564 21.9132 27.036 21.9047Z" fill="#E1EAF7"/>
<path d="M25.6729 6.72371C28.2589 6.7441 30.0007 9.4465 28.9726 11.826C28.8172 12.1846 28.6634 12.3206 28.2338 12.2254C26.1944 11.7784 24.456 12.3767 23.0451 13.9301C22.8178 14.1817 22.7008 14.2632 22.4317 13.9777C21.641 13.1364 20.8303 12.3138 20.0045 11.5081C19.7354 11.2447 19.7855 11.0917 20.0262 10.8538C21.0526 9.83402 22.0589 8.79045 23.0803 7.76387C23.7957 7.04493 24.6633 6.69651 25.6729 6.72371Z" fill="#A1C6E9"/>
<path d="M49.9027 16.4133C47.9034 16.4133 45.9025 16.4014 43.9033 16.4235C43.4704 16.4286 43.335 16.3079 43.34 15.8592C43.3617 13.8893 43.36 11.9195 43.3417 9.9496C43.3383 9.54169 43.4453 9.40572 43.8615 9.40912C46.5896 9.42612 49.3193 9.42272 52.0473 9.41252C52.4034 9.41082 52.6224 9.54169 52.8079 9.84422C53.9429 11.6934 55.088 13.5358 56.238 15.3748C56.4169 15.662 56.5322 15.9816 56.3902 16.2705C56.2464 16.5611 55.9037 16.4065 55.653 16.4082C53.7357 16.4201 51.82 16.4133 49.9027 16.4133Z" fill="#E1EBF7"/>
<path d="M49.595 30.408C51.3669 30.4012 52.7694 31.8153 52.7727 33.6152C52.7761 35.3913 51.3285 36.8733 49.6084 36.8581C47.89 36.8428 46.4742 35.4083 46.4524 33.6611C46.429 31.8782 47.8449 30.4148 49.595 30.408Z" fill="#F9CFCF"/>
<path d="M19.327 30.408C21.0788 30.408 22.5047 31.8628 22.4947 33.6406C22.4846 35.3794 21.0521 36.8444 19.3504 36.8563C17.622 36.8682 16.1459 35.3862 16.1426 33.6338C16.1376 31.8713 17.5818 30.408 19.327 30.408Z" fill="#F9CFCF"/>
<path d="M29.6442 17.5622C29.6442 18.4426 29.6442 18.4392 28.7833 18.4443C27.782 18.4494 27.9057 18.3356 27.8823 19.3689C27.8757 19.646 28.0345 20.0403 27.6834 20.1626C27.2756 20.3054 26.8025 20.3275 26.403 20.1423C26.1138 20.0097 26.2492 19.646 26.2442 19.3825C26.2241 18.3441 26.3562 18.4596 25.3599 18.4375C25.069 18.4307 24.6461 18.5973 24.5341 18.2047C24.4088 17.7662 24.4388 17.2801 24.5358 16.8212C24.5659 16.6801 24.7264 16.6784 24.8517 16.675C25.0607 16.6716 25.273 16.6427 25.4752 16.6784C26.1338 16.794 26.3378 16.4966 26.2458 15.8728C26.2174 15.6858 26.2492 15.4921 26.2408 15.3017C26.2275 15.006 26.3612 14.87 26.6504 14.8887C26.734 14.8938 26.8175 14.8887 26.9011 14.8887C27.9994 14.8972 27.884 14.7765 27.889 15.8575C27.894 16.6716 27.8907 16.6716 28.7649 16.6733C29.6442 16.6733 29.6442 16.6733 29.6442 17.5622Z" fill="#F15F64"/>
<path d="M45.1386 14.5012C45.1085 14.2412 45.2439 14.0865 45.3943 13.9335C46.2034 13.1143 47.0041 12.2883 47.8198 11.4742C48.1023 11.192 48.4032 10.8776 48.8144 11.3161C49.1972 11.724 48.9665 12.0589 48.6807 12.358C47.8683 13.2027 47.0442 14.0372 46.2134 14.8632C46.0028 15.0723 45.7587 15.2252 45.4328 15.0468C45.1954 14.9176 45.1051 14.7392 45.1386 14.5012Z" fill="#A1C6E9"/>
<path d="M52.0104 11.7257C52.0471 12.0129 51.8766 12.1727 51.7128 12.3375C50.9188 13.1432 50.1332 13.9539 49.3325 14.751C49.05 15.0314 48.7524 15.351 48.3379 14.9142C47.9534 14.508 48.1791 14.1714 48.4666 13.8723C49.279 13.0276 50.1031 12.1931 50.9322 11.3654C51.1428 11.1563 51.3852 10.9999 51.7128 11.1767C51.9502 11.3076 52.0455 11.486 52.0104 11.7257Z" fill="#A1C6E9"/>
</g>
<defs>
<clipPath id="clip0_107_1167">
<rect width="61" height="41" fill="white"/>
</clipPath>
</defs>
</svg>
