<svg width="52" height="52" viewBox="0 0 52 52" fill="none" xmlns="http://www.w3.org/2000/svg">
<g clip-path="url(#clip0_107_1155)">
<path d="M35.0184 2.4375C27.0152 2.4375 20.4746 8.9375 20.4746 16.9812C20.4746 19.9875 21.3684 22.75 22.9121 25.0656L20.4746 32.3375L29.0059 30.225C30.834 31.0781 32.8652 31.525 35.0184 31.525C43.0621 31.525 49.5621 25.025 49.5621 16.9812C49.5621 8.9375 43.0621 2.4375 35.0184 2.4375Z" fill="#BDDBFF"/>
<path d="M34.9375 28.0312C40.9954 28.0312 45.9062 23.1204 45.9062 17.0625C45.9062 11.0046 40.9954 6.09375 34.9375 6.09375C28.8796 6.09375 23.9688 11.0046 23.9688 17.0625C23.9688 23.1204 28.8796 28.0312 34.9375 28.0312Z" fill="white"/>
<path d="M27.5029 39.2844C27.3811 39.5687 27.2186 39.8531 27.0967 40.1375C26.7717 40.8687 26.4873 40.7469 25.5936 40.7469C21.5717 40.7875 11.3342 30.5906 11.4561 26.6094C11.4967 25.7562 11.3342 25.4719 12.0654 25.1062C12.4717 24.9031 12.8779 24.7406 13.2842 24.5375C13.8123 24.2531 10.8061 9.95311 10.2373 9.99374C6.25605 10.1156 2.1123 13.1625 2.1123 21.2062C2.1123 32.2562 17.5904 50.0906 30.9967 50.0906C38.5936 50.0906 41.7217 46.3937 42.1686 42.6562C42.2904 41.8844 27.8279 38.6344 27.5029 39.2844Z" fill="#018CFF"/>
<path d="M42.0064 42.575C42.0877 42.575 42.1283 42.6156 42.2096 42.6562C42.2908 41.8437 42.2502 41.0718 42.1283 40.3C42.0877 39.975 41.6408 39.65 41.3158 39.5687C37.4158 38.6343 33.4752 37.7406 29.5346 36.8875C29.2502 36.8468 28.7627 37.0906 28.6002 37.3343C28.2346 37.9437 27.8689 38.5937 27.5439 39.2843C32.3377 40.3406 37.1721 41.4375 42.0064 42.575Z" fill="#BDDBFF"/>
<path d="M13.3248 24.5781C13.8529 24.2937 14.3811 24.0094 14.9092 23.725C15.1529 23.5625 15.4373 23.075 15.3561 22.7906C14.5029 18.85 13.6092 14.95 12.6748 11.0094C12.5936 10.6844 12.2686 10.2375 11.9436 10.1969C11.3342 10.075 10.6842 10.0344 10.0342 10.075C11.1717 14.8687 12.2686 19.7031 13.3248 24.5781Z" fill="#BDDBFF"/>
<path d="M36.9478 10.9474H32.8426V15.0527H28.7373V19.1579H32.8426V23.2632H36.9478V19.1579H41.0531V15.0527H36.9478V10.9474Z" fill="#F25E64"/>
</g>
<defs>
<clipPath id="clip0_107_1155">
<rect width="52" height="52" fill="white"/>
</clipPath>
</defs>
</svg>
