<svg width="53" height="51" viewBox="0 0 53 51" fill="none" xmlns="http://www.w3.org/2000/svg">
<g clip-path="url(#clip0_107_1222)">
<path d="M33.7373 29.1992C34.0943 28.6022 34.3032 28.5072 34.9575 28.6902C36.0518 28.997 37.1046 29.4111 38.0688 30.0191C38.2832 30.154 38.3967 30.1994 38.5931 29.9531C40.2989 27.8139 42.4791 27.0545 45.1422 27.8098C45.3885 27.8799 45.5171 27.796 45.6914 27.6708C46.5284 27.0751 47.4816 26.7959 48.4984 26.789C49.8195 26.7807 50.6371 27.6763 50.3729 29.0218C50.0796 30.5171 50.1806 31.985 50.3245 33.468C50.4863 35.1354 49.9731 36.5689 48.811 37.7767C48.7792 37.8097 48.7557 37.8496 48.6796 37.9528C49.6452 37.9528 50.55 37.9514 51.4547 37.9528C52.52 37.9556 52.9959 38.4302 52.9972 39.4881C52.9986 41.3756 53 43.2616 52.9972 45.1491C52.9959 46.0653 52.4868 46.5688 51.5571 46.5785C51.1089 46.584 50.6593 46.5991 50.2124 46.573C49.8859 46.5537 49.7656 46.6349 49.7794 46.9857C49.7988 47.5139 49.8541 48.0518 49.7407 48.576C49.4336 49.9806 48.2992 50.9202 46.8466 50.9945C46.7774 50.9986 46.7082 50.9986 46.6391 50.9986C33.202 50.9986 19.7648 51.0013 6.32912 50.9958C4.78247 50.9958 3.58443 50.0521 3.25933 48.6021C3.14174 48.0793 3.19569 47.5414 3.21782 47.0118C3.23304 46.6376 3.10853 46.5427 2.75715 46.573C2.39746 46.6046 2.03085 46.5551 1.67117 46.5853C0.89922 46.6472 0.341703 46.3556 0 45.6622C0 43.3978 0 41.1334 0 38.8676C0.343087 38.1743 0.904753 37.895 1.67393 37.9473C2.17196 37.9817 2.67552 37.928 3.17355 37.9624C3.53463 37.9872 3.57059 37.8414 3.51664 37.5497C3.25656 36.1204 3.00616 34.6883 2.75023 33.2575C2.67276 32.8201 2.59114 32.3826 2.50675 31.9465C2.18026 30.2571 3.28699 30.0274 4.40894 30.2833C5.13939 30.4497 5.67892 30.9519 6.1562 31.5035C6.65146 32.0772 7.06648 32.7073 7.39989 33.3869C7.51886 33.6304 7.67519 33.75 7.95464 33.7514C10.146 33.7555 12.3359 33.7652 14.5272 33.7817C14.7666 33.7831 14.8108 33.684 14.8095 33.4749C14.8025 32.2918 14.8012 31.1073 14.8108 29.9242C14.8122 29.7316 14.7527 29.6174 14.5867 29.5129C12.7274 28.3325 10.7228 27.7534 8.50662 28.0244C8.33646 28.045 8.16215 28.0533 7.9906 28.0574C7.08308 28.0766 6.69158 27.7864 6.52695 26.8963C6.17003 24.9634 5.83386 23.0251 5.48939 21.0895C5.44789 20.8542 5.41192 20.6176 5.37318 20.381C5.15322 19.0328 5.92378 18.3697 7.25186 18.7631C7.97539 18.9778 8.50523 19.4593 8.98805 20.0054C9.41691 20.4924 9.76691 21.0372 10.1141 21.5916C10.3078 21.4953 10.3549 21.3192 10.4392 21.1816C11.7673 19.0424 13.1134 16.9128 14.4055 14.753C15.3158 13.2328 16.482 12.1694 18.4589 12.2217C17.8751 11.5545 17.337 10.9395 17.0741 10.1788C16.1984 7.65299 16.3035 5.17397 17.5915 2.79538C18.0245 1.9961 18.6872 1.38667 19.4563 0.906547C22.9329 -1.26431 27.4649 0.641037 28.3323 4.6966C28.7086 6.45613 28.8331 8.26242 28.1525 10.0096C27.8385 10.8143 27.3294 11.5008 26.7248 12.1694C27.144 12.2341 27.53 12.2643 27.9021 12.3551C29.5442 12.7596 30.7547 14.0954 30.9567 15.7806C31.1351 17.2678 31.0618 18.7645 30.8598 20.242C30.6565 21.7305 29.8555 22.9164 28.71 23.8698C28.4347 24.0995 28.3088 24.3224 28.3171 24.6869C28.3434 25.7503 28.3365 26.8138 28.3199 27.8772C28.3144 28.1853 28.3697 28.3215 28.7155 28.2486C29.3782 28.111 30.0547 28.1372 30.7256 28.1331C31.3606 28.1289 31.5681 28.3215 31.6899 28.9557C31.8282 29.4248 31.5142 29.6133 31.167 29.7564C30.8239 29.8981 30.4531 29.8486 30.092 29.8609C28.4527 29.9132 26.8798 30.2379 25.387 30.9381C24.9568 31.1403 24.7548 31.4196 24.7839 31.8983C24.8115 32.3427 24.7853 32.7898 24.7908 33.2355C24.7977 33.8298 24.8364 33.8725 25.4479 33.8725C27.9491 33.8766 30.4503 33.8739 32.9516 33.8752C33.1923 33.8752 33.4358 33.8628 33.6737 33.9082C34.1441 33.999 34.4678 34.354 34.4788 34.7846C34.4899 35.2317 34.1551 35.6182 33.6585 35.6967C33.2144 35.7668 32.762 35.7379 32.3152 35.7242C31.9057 35.7118 31.7148 35.8535 31.7217 36.2841C31.7494 38.067 31.5197 37.7588 33.1715 37.7836C34.3267 37.8015 35.4832 37.7726 36.6384 37.796C37.3024 37.7946 37.9678 37.8331 38.6969 37.7753C38.1698 37.0118 37.7188 36.2758 37.4629 35.4325C37.1364 34.3609 37.0437 33.2864 37.3564 32.2051C37.4712 31.8076 37.4034 31.5613 37.0229 31.3715C36.702 31.2119 36.4018 31.0069 36.0629 30.8762C35.4915 30.6355 34.8897 30.4772 34.3142 30.2503C33.7484 30.0274 33.5769 29.6876 33.7373 29.1992Z" fill="#4F5052"/>
<path d="M33.7377 29.1992C33.7059 29.7715 34.0075 30.0769 34.5401 30.209C35.0865 30.3438 35.6164 30.5295 36.1255 30.7717C36.2666 30.945 36.2071 31.1349 36.1504 31.3096C35.4932 33.369 35.7741 35.3541 36.6138 37.2994C36.6996 37.4975 36.8241 37.6983 36.7439 37.9349C35.1239 37.9418 33.5025 37.946 31.8825 37.9597C31.6474 37.9611 31.5408 37.9061 31.5477 37.6474C31.563 37.0641 31.5685 36.4808 31.5464 35.8989C31.5353 35.6031 31.6681 35.5646 31.9157 35.5715C32.4152 35.5853 32.9159 35.5784 33.4154 35.5756C34.0241 35.5715 34.363 35.2964 34.3658 34.8094C34.3699 34.321 34.0282 34.0335 33.4278 34.0321C30.6859 34.0307 27.944 34.0183 25.202 34.0445C24.7303 34.0486 24.6168 33.9179 24.6445 33.4749C24.6846 32.86 24.6749 32.2395 24.6459 31.6232C24.6307 31.2876 24.733 31.1073 25.0402 30.9478C26.775 30.0453 28.6301 29.6904 30.5683 29.7041C31.1313 29.7083 31.5533 29.5611 31.6889 28.9585C32.3833 28.9612 33.0584 29.0988 33.7377 29.1992Z" fill="#FCE791"/>
<path d="M28.1612 45.0267C27.7877 45.1382 27.6383 45.4339 27.5401 45.771C27.2744 45.9897 26.9549 45.9113 26.6588 45.9058C26.3379 45.9003 26.0197 45.9939 25.6987 45.9292C25.6614 45.2056 25.4553 45.0267 24.6418 45.0267C17.1451 45.0254 9.64697 45.0199 2.15025 45.0391C1.637 45.0405 1.53048 44.9015 1.54293 44.4173C1.58443 42.8077 1.57475 41.1982 1.58582 39.5886C1.76566 39.4937 1.95796 39.5418 2.14472 39.5418C16.9943 39.5391 31.8439 39.5391 46.6934 39.5391C47.4363 39.5391 47.4709 39.5666 47.4751 40.3163C47.482 41.637 47.4834 42.9577 47.4737 44.2784C47.4681 44.9607 47.428 44.991 46.7336 44.991C40.7323 44.991 34.7297 44.991 28.7284 44.9923C28.5375 44.9937 28.3466 44.9621 28.1612 45.0267Z" fill="#018CFF"/>
<path d="M25.6967 45.9306C25.9042 45.6623 26.2003 45.7847 26.459 45.7724C26.8187 45.7558 27.1783 45.771 27.5394 45.7724C27.7621 46.4437 27.9434 46.5771 28.6558 46.5771C32.6484 46.5785 36.6409 46.5771 40.6321 46.5785C40.8202 46.5785 41.0097 46.5923 41.1979 46.5991C41.5437 47.4934 41.3514 48.3435 40.9627 49.1676C40.8783 49.345 40.6846 49.4152 40.4813 49.4166C40.3263 49.418 40.1714 49.418 40.0151 49.418C28.9076 49.418 17.8002 49.418 6.69274 49.4166C6.488 49.4166 6.2791 49.4565 6.07851 49.3781C5.33838 49.312 4.83897 48.8305 4.76565 48.1138C4.6107 46.5771 4.6107 46.5771 6.16428 46.5771C12.3149 46.5771 18.467 46.5758 24.6176 46.5799C25.1226 46.5813 25.5501 46.4946 25.6967 45.9306Z" fill="#F8F7F8"/>
<path d="M25.1742 23.0155C25.1549 22.988 25.1314 22.9605 25.1148 22.9316C24.6859 22.1557 24.69 22.1598 25.325 21.5793C25.9725 20.9877 26.3377 20.2049 26.7361 19.4524C26.9395 19.0672 26.7195 18.7302 26.3764 18.55C26.0071 18.356 25.628 18.422 25.3762 18.7907C25.1258 19.158 24.8879 19.5363 24.6762 19.927C24.4424 20.3576 24.0883 20.6286 23.6497 20.8185C22.045 21.5091 20.4416 22.2038 18.8368 22.893C18.5671 23.0086 18.253 23.0994 18.087 23.3264C17.737 23.8038 17.405 23.6965 16.9623 23.4653C16.4961 23.2218 15.9759 23.0843 15.4447 22.8875C15.9607 22.0497 16.4712 21.2257 16.9734 20.3989C17.1587 20.0935 17.1615 19.7785 16.9471 19.4854C16.7534 19.2227 16.4739 19.1566 16.1641 19.2103C15.886 19.2584 15.7311 19.4579 15.5913 19.6849C15.0629 20.5447 14.5178 21.3963 13.9976 22.2616C13.8662 22.479 13.7555 22.5753 13.4761 22.5285C12.8674 22.4281 12.2504 22.384 11.585 22.3111C12.7954 20.3549 13.9714 18.4482 15.1556 16.5456C15.554 15.9059 15.9413 15.2579 16.3896 14.654C17.0591 13.7515 18.0593 13.724 19.0568 13.7859C19.375 13.8052 19.2283 14.1119 19.2435 14.2867C19.3722 15.7628 20.075 16.8551 21.4653 17.4109C23.4477 18.2047 25.7179 16.6873 25.8853 14.4985C25.9407 13.7694 25.9407 13.7666 26.6628 13.7735C27.147 13.7776 27.6257 13.8148 28.0531 14.0789C28.2537 14.2812 28.3879 14.5205 28.3879 14.8067C28.3934 16.2924 28.547 17.7906 28.2938 19.2598C28.0144 20.8818 27.0446 22.0814 25.6529 22.9467C25.5076 23.0389 25.3527 23.1379 25.1742 23.0155Z" fill="#BDDBFF"/>
<path d="M12.8184 25.4835C12.8696 25.251 12.9111 25.0144 12.9748 24.7847C13.185 24.0253 13.1906 24.0156 13.9459 24.1725C14.906 24.372 15.8523 24.6168 16.7349 25.0667C17.0046 25.2043 17.1416 25.379 17.1859 25.6899C17.356 26.8771 18.3742 27.7644 19.5819 27.7452C20.0191 27.7383 20.329 27.88 20.6347 28.1565C21.4924 28.931 22.2395 29.8046 22.9658 30.6974C23.0599 30.813 23.0903 30.9327 23.0903 31.0757C23.0875 31.9672 23.0848 32.8587 23.0917 33.7501C23.0931 33.9345 23.0253 34.0019 22.8454 34.0638C20.8658 34.7516 20.3041 35.7972 20.7689 37.9295C20.6126 37.9364 20.4618 37.9487 20.3096 37.9501C17.0005 37.9515 13.6914 37.9432 10.3822 37.9611C9.94508 37.9639 9.81366 37.8387 9.84271 37.415C9.87868 36.9032 9.87453 36.386 9.84409 35.8728C9.81919 35.4766 9.93125 35.3404 10.3532 35.3487C11.7657 35.3762 13.1795 35.3569 14.5934 35.3597C15.7471 35.3611 16.9009 35.3363 18.0436 35.1575C18.9027 35.024 19.5806 34.6539 19.7798 33.7226C20.8187 32.0043 19.7867 30.6988 18.8335 29.4497C17.4695 27.6613 15.5451 26.6267 13.47 25.8453C13.2376 25.7587 12.9499 25.7559 12.8184 25.4835Z" fill="#7E717E"/>
<path d="M21.599 12.4308C19.6443 11.8764 18.0077 9.56937 18.1294 7.55259C18.1391 7.382 18.1599 7.26919 18.3508 7.21967C19.0259 7.04496 19.5986 6.66801 20.1603 6.27456C20.4743 6.05445 20.7842 6.00493 21.1729 6.09435C22.4249 6.38049 23.688 6.61849 24.9469 6.87437C25.2222 7.62 25.1129 8.35875 24.8362 9.06724C24.3022 10.4388 23.3325 11.461 22.1261 12.2781C21.9698 12.3854 21.801 12.4693 21.599 12.4308Z" fill="#FFA791"/>
<path d="M28.1612 45.0267C28.3424 44.874 28.5596 44.9441 28.7588 44.9441C34.7282 44.94 40.6963 44.9331 46.6657 44.9538C47.197 44.9551 47.3353 44.8162 47.3201 44.2976C47.2827 42.926 47.2869 41.553 47.3187 40.1815C47.3298 39.7041 47.1873 39.583 46.7128 39.583C34.861 39.5954 23.0093 39.5927 11.1576 39.5927C7.96608 39.5927 4.77455 39.5913 1.58301 39.5899C1.72135 39.4303 1.90534 39.5156 2.06444 39.5156C18.3431 39.5129 34.6217 39.517 50.9004 39.5046C51.3721 39.5046 51.4648 39.6353 51.4565 40.0755C51.4288 41.5668 51.4316 43.0594 51.4551 44.5507C51.4606 44.9331 51.3652 45.0363 50.9737 45.0349C43.3704 45.0226 35.7658 45.0267 28.1612 45.0267Z" fill="#007FE9"/>
<path d="M41.5063 37.7396C39.4754 36.9623 37.8015 33.7267 39.7286 31.0358C40.5213 29.9298 41.5492 29.2006 42.9575 29.1057C43.1041 29.2584 43.1028 29.4483 43.0765 29.6354C42.9229 30.7483 43.1332 31.8241 43.5399 32.8421C44.1376 34.3361 43.7931 35.61 42.8039 36.7849C42.5729 37.06 42.3087 37.3063 42.0444 37.5498C41.8964 37.686 41.7429 37.8373 41.5063 37.7396Z" fill="#FFA791"/>
<path d="M6.0791 49.3794C6.31982 49.3753 6.56191 49.3657 6.80263 49.3657C17.8755 49.3657 28.9483 49.3657 40.0198 49.3657C40.7751 49.3657 40.9674 49.1799 41.0975 48.4398C41.2054 47.8276 41.1957 47.2154 41.1971 46.6005C43.4368 46.5936 45.6766 46.5895 47.9177 46.5744C48.157 46.573 48.2608 46.6266 48.2414 46.8839C48.2193 47.1742 48.2373 47.4658 48.2359 47.7575C48.2304 48.8635 47.6784 49.4276 46.5523 49.4331C44.4149 49.4441 42.2775 49.4386 40.1402 49.4386C29.0064 49.4386 17.8713 49.4386 6.73761 49.4358C6.51903 49.4358 6.29076 49.4936 6.0791 49.3794Z" fill="#F0F0F0"/>
<path d="M26.4492 37.9597C25.4324 37.9597 24.4156 37.9652 23.3988 37.957C22.6573 37.9515 22.162 37.4892 22.1468 36.8138C22.1316 36.108 22.6283 35.5839 23.3711 35.5784C25.4573 35.566 27.5421 35.5797 29.6283 35.566C29.9396 35.5646 30.0019 35.6747 29.9922 35.9512C29.9728 36.4987 29.9687 37.049 29.9936 37.5965C30.0074 37.9061 29.8843 37.9666 29.6048 37.9638C28.552 37.9528 27.5006 37.9597 26.4492 37.9597Z" fill="#FFA791"/>
<path d="M24.842 5.21805C23.7117 5.09699 22.6105 4.81497 21.5052 4.57285C20.6281 4.38025 19.8769 4.54671 19.1686 5.05985C18.8919 5.2607 18.6152 5.46705 18.2832 5.58674C18.3358 3.38975 20.4662 1.45826 22.67 1.60271C23.9649 2.3277 24.5874 3.50668 24.9153 4.88513C24.943 5.00344 24.9443 5.1245 24.842 5.21805Z" fill="#E39E7B"/>
<path d="M12.819 25.4835C14.4293 26.0063 15.9358 26.7244 17.2902 27.7493C18.722 28.8334 19.772 30.1815 20.2963 31.9108C20.5135 32.6275 20.2756 33.2095 19.7803 33.7226C19.6724 32.5409 19.0789 31.5834 18.336 30.7098C16.8336 28.9448 14.9688 27.6888 12.7816 26.9115C12.5395 26.8262 12.397 26.7492 12.5146 26.4548C12.6391 26.1411 12.7194 25.8082 12.819 25.4835Z" fill="#6B5E6B"/>
<path d="M4.08789 31.8846C4.33414 31.8461 4.45726 32.036 4.60114 32.1639C5.15727 32.6619 5.60411 33.2521 5.90846 33.9248C6.30965 34.8121 6.95848 35.2964 7.93378 35.3225C8.22015 35.3308 8.30731 35.4284 8.29624 35.7146C8.27272 36.3295 8.2741 36.9472 8.29624 37.5622C8.30731 37.8634 8.24644 37.9817 7.90888 37.9694C7.11895 37.9419 6.32626 37.946 5.53494 37.968C5.24858 37.9762 5.14205 37.8703 5.09778 37.6117C4.81833 35.9815 4.53058 34.3526 4.2456 32.7224C4.1958 32.4459 4.14184 32.1708 4.08789 31.8846Z" fill="#FFA791"/>
<path d="M21.79 27.1151C23.3865 26.4685 24.9096 25.8591 26.4259 25.2331C26.7164 25.1134 26.7427 25.2249 26.7413 25.4656C26.7357 26.4093 26.733 27.3517 26.7427 28.2954C26.7454 28.5375 26.6776 28.6476 26.4231 28.7178C25.712 28.9131 25.0258 29.1841 24.3839 29.5528C24.2041 29.656 24.0837 29.6587 23.9551 29.484C23.3367 28.6352 22.6173 27.8758 21.79 27.1151Z" fill="#BDDBFF"/>
<path d="M36.7445 37.9349C36.0874 36.6597 35.718 35.2991 35.6239 33.878C35.5603 32.9219 35.7913 31.9864 36.0639 31.0702C36.0929 30.9739 36.104 30.8721 36.1247 30.7717C36.5896 30.9533 37.0682 31.1486 37.4279 31.4815C37.8844 31.9052 37.3961 32.3812 37.3491 32.8283C37.1664 34.57 37.6423 36.1011 38.6854 37.4823C38.7864 37.6158 38.8902 37.7465 39.0368 37.9363C38.233 37.9349 37.4888 37.9349 36.7445 37.9349Z" fill="#F5DE7F"/>
<path d="M25.1738 23.0155C26.1879 22.6083 26.8962 21.8558 27.4758 20.9684C28.0859 20.0343 28.3031 19.0039 28.2671 17.8965C28.2353 16.9404 28.2505 15.9829 28.2671 15.0254C28.2727 14.6856 28.1219 14.3967 28.0513 14.0817C28.8855 14.5013 29.3573 15.1753 29.4209 16.0998C29.5039 17.3159 29.4845 18.5403 29.3628 19.7482C29.2134 21.2449 28.3335 22.3207 27.1009 23.1338C26.9155 23.2562 26.7205 23.3663 26.524 23.4708C25.5985 23.962 25.5972 23.9606 25.1738 23.0155Z" fill="#9BC9FF"/>
<path d="M21.5996 12.4308C23.6844 11.1569 25.1591 9.51849 24.9461 6.87439C25.5174 6.97894 26.0888 7.08762 26.6615 7.1853C26.9175 7.22932 26.9977 7.3435 27.0212 7.62002C27.2052 9.80463 25.1619 12.1021 23.1477 12.5808C22.6316 12.706 22.0935 12.7005 21.5996 12.4308Z" fill="#F49881"/>
<path d="M46.3735 37.4177C45.9017 37.62 45.4217 37.7754 44.8379 37.7259C45.383 37.1784 45.8824 36.668 46.2033 36.0145C46.6183 35.1698 46.7027 34.3224 46.3071 33.4419C45.946 32.6399 45.6942 31.8131 45.7274 30.912C45.7786 29.546 46.3666 28.8072 47.7154 28.4825C47.833 28.6242 47.7832 28.7783 47.7348 28.9214C47.3557 30.0605 47.4359 31.2174 47.6103 32.3744C47.815 33.7336 47.8233 35.068 47.2118 36.3433C47.0126 36.7615 46.7968 37.1701 46.3735 37.4177Z" fill="#7E717E"/>
<path d="M46.373 37.4177C47.2335 36.3323 47.6596 35.09 47.6015 33.7171C47.5669 32.8724 47.4009 32.0332 47.3179 31.1899C47.2266 30.2586 47.4383 29.3644 47.715 28.4825C47.7316 28.477 47.7482 28.4729 47.7648 28.4674C48.7581 28.1758 48.9504 28.3147 48.7442 29.2818C48.4703 30.5612 48.5326 31.831 48.7332 33.1063C49.043 35.0708 48.2213 36.6982 46.5709 37.3751C46.51 37.3998 46.4395 37.404 46.373 37.4177Z" fill="#6B5E6B"/>
<path d="M41.5068 37.7396C42.9926 36.7629 44.2737 34.9222 43.4464 33.0086C42.911 31.7718 42.7754 30.4498 42.9594 29.1057C43.3731 29.0741 43.7798 29.0837 44.192 29.1676C44.4424 29.2185 44.4577 29.3148 44.3926 29.5102C43.9043 30.9753 44.1547 32.395 44.7579 33.7528C45.112 34.5521 44.9778 35.2138 44.4687 35.8467C43.8019 36.6762 42.9262 37.2554 42.0201 37.7919C41.8361 37.9006 41.6632 37.8992 41.5068 37.7396Z" fill="#F49881"/>
<path d="M7.7743 24.87C7.49762 23.3787 7.22094 21.8874 6.93457 20.3398C7.23615 20.4196 7.40078 20.6094 7.57094 20.78C8.13122 21.344 8.59605 21.9851 8.91424 22.7087C9.27116 23.5218 9.86603 23.8767 10.7376 23.8354C11.0087 23.8231 11.2813 23.8341 11.6105 23.8341C11.4805 24.2935 11.3698 24.6842 11.2591 25.0749C11.1249 25.1781 10.97 25.1781 10.8164 25.1506C9.98362 25.0034 9.14388 25.0254 8.30415 25.0227C8.11462 25.0213 7.92371 25.013 7.7743 24.87Z" fill="#FFA791"/>
<path d="M24.8419 5.21805C24.6288 3.85335 24.0243 2.71427 22.9037 1.86684C22.811 1.79668 22.7474 1.69213 22.6699 1.60271C24.7022 1.55456 26.6749 3.32371 26.8949 5.37763C26.9198 5.61288 26.8285 5.65415 26.6431 5.61425C26.0413 5.48631 25.4409 5.35012 24.8419 5.21805Z" fill="#CD8B6B"/>
<path d="M18.7493 25.489C18.6815 24.8287 18.8018 24.6072 19.4133 24.3389C20.5519 23.8382 21.6987 23.3553 22.8331 22.8463C23.1347 22.7115 23.3228 22.6936 23.4321 23.0609C23.4999 23.2852 23.6244 23.4929 23.724 23.7075C23.7766 23.9331 23.5815 23.9537 23.4543 24.0074C22.1705 24.5412 20.8825 25.0639 19.5807 25.5523C19.3179 25.6486 18.9983 25.8522 18.7493 25.489Z" fill="#FFA791"/>
<path d="M7.77441 24.8699C8.93925 24.8782 10.1082 24.8025 11.2579 25.0749C11.1361 25.5138 11.1403 26.075 10.8594 26.3584C10.5661 26.6556 9.99756 26.3612 9.54795 26.4066C9.14123 26.4479 8.72759 26.4286 8.32086 26.474C8.09675 26.4988 8.00544 26.4369 7.97639 26.225C7.91414 25.7724 7.84358 25.3212 7.77441 24.8699Z" fill="#FFA791"/>
<path d="M18.749 25.489C19.0423 25.6844 19.3231 25.5138 19.5749 25.4175C20.9279 24.8988 22.2712 24.3527 23.6159 23.8134C23.6588 23.7955 23.6878 23.7433 23.7224 23.7061C24.19 24.4669 24.19 24.4683 23.4056 24.7833C22.2933 25.229 21.1838 25.6844 20.0674 26.1177C19.431 26.364 18.9939 26.1411 18.749 25.489Z" fill="#F49881"/>
<path d="M16.3613 30.8955C17.1056 31.5971 17.659 32.2987 18.0463 33.1283C18.1916 33.4392 18.1515 33.5685 17.7793 33.6332C16.3586 33.8808 16.3613 33.8932 16.3613 32.4872C16.3613 31.9947 16.3613 31.5036 16.3613 30.8955Z" fill="#BDDBFF"/>
<path d="M24.2303 14.6801C24.0284 15.5069 23.345 16.0833 22.5716 16.0806C21.7679 16.0778 21.0775 15.467 20.877 14.5797C21.0443 14.4724 21.2117 14.5425 21.3681 14.5989C22.1815 14.8878 23.0005 14.936 23.8319 14.6774C23.962 14.6375 24.0989 14.6044 24.2303 14.6801Z" fill="#FFA791"/>
<path d="M24.2308 14.6801C23.0964 15.1891 21.9842 15.0254 20.8788 14.5797C20.7515 14.3568 20.8014 14.1229 20.8221 13.8547C21.4059 14.039 21.9717 14.2069 22.5735 14.2027C23.1615 14.1972 23.7217 14.0638 24.3028 13.8492C24.354 14.1491 24.3913 14.4201 24.2308 14.6801Z" fill="#F49881"/>
</g>
<defs>
<clipPath id="clip0_107_1222">
<rect width="53" height="51" fill="white"/>
</clipPath>
</defs>
</svg>
