<svg width="51" height="53" viewBox="0 0 51 53" fill="none" xmlns="http://www.w3.org/2000/svg">
<g clip-path="url(#clip0_107_1253)">
<path d="M22.929 51.2418C22.9304 51.4645 22.9125 51.69 22.9373 51.9113C22.9909 52.3899 22.8054 52.7413 22.4164 53C18.5093 53 14.6008 53 10.6937 53C10.2223 52.5891 10.1454 52.0607 10.1715 51.4631C10.2086 50.6206 10.1715 49.7754 10.1852 48.933C10.1921 48.4875 10.28 48.0698 10.7954 47.9259C11.3204 47.7004 11.8715 47.7945 12.4143 47.7931C12.7304 47.7931 12.8678 47.9881 12.8926 48.2856C12.9256 48.6812 12.8926 49.0782 12.9173 49.4725C12.9833 50.5141 13.5619 51.073 14.6008 51.0758C17.0979 51.0827 19.595 51.0758 22.0921 51.0813C22.3793 51.0827 22.6803 51.0287 22.929 51.2418Z" fill="#9BC9FF"/>
<path d="M28.5864 53C28.2002 52.7427 28.0477 52.3941 28.0614 51.9168C28.0903 50.8738 28.0738 49.8294 28.0696 48.785C28.0669 48.3409 28.2236 48.0227 28.6881 47.9245C29.2144 47.7032 29.7655 47.7931 30.3084 47.7945C30.6244 47.7945 30.7633 47.9909 30.7866 48.2883C30.8196 48.7186 30.7907 49.1502 30.8072 49.5804C30.8457 50.5307 31.3886 51.073 32.3382 51.0772C34.8889 51.0868 37.4382 51.0772 39.9889 51.0855C40.2844 51.0868 40.6211 51.0108 40.8203 51.3469C40.8602 51.9902 40.8808 52.6251 40.2074 53.0014C36.3333 53 32.4591 53 28.5864 53Z" fill="#9BC9FF"/>
<path d="M14.1096 1.31525C15.029 0.645709 16.0693 0.263906 17.1784 0.107589C20.0259 -0.293581 22.4721 0.528125 24.4896 2.61282C25.1699 3.31556 25.6893 3.31556 26.3696 2.60176C28.1617 0.716259 30.3716 -0.124813 32.9264 0.0149046C34.7157 0.111739 36.3044 0.793726 37.6608 2.00415C39.3622 3.52306 40.3421 5.43207 40.6142 7.68139C40.7997 9.2169 40.5867 10.7372 40.1167 12.2146C39.3045 14.7669 37.8931 16.9581 36.1601 18.9695C34.0574 21.4083 31.5851 23.4045 28.9602 25.2263C28.4558 25.5763 27.9157 25.8723 27.3921 26.1919C27.1763 26.2611 27.0362 26.1089 26.8822 26.0107C24.403 24.4323 22.0942 22.6395 19.9476 20.6198C17.9589 18.7481 16.2136 16.6869 14.8448 14.3187C13.4293 11.8702 12.4948 9.25425 12.5566 6.37966C12.5965 4.56057 13.0761 2.84246 14.1096 1.31525Z" fill="#018CFF"/>
<path d="M10.7144 26.1963C11.3301 24.8448 12.7882 24.7411 13.7282 25.7371C15.6989 27.8231 17.7549 29.829 19.782 31.8597C21.3432 33.4229 22.1059 35.3139 22.1059 37.5218C22.1073 40.9538 22.1045 44.3859 22.1031 47.8166C21.93 48.002 21.6977 47.984 21.4792 47.984C18.7746 47.9909 16.07 47.9895 13.364 47.9854C13.1936 47.9854 13.0218 47.9812 12.8583 47.9203C12.5889 47.7862 12.6136 47.5275 12.6109 47.2909C12.6013 46.5494 12.5903 45.808 12.6109 45.0665C12.6508 43.6237 12.1203 42.4091 11.1954 41.3439C8.99788 38.8138 6.81825 36.2684 4.63175 33.73C4.07104 33.0785 3.52407 32.4158 2.94412 31.7823C2.04671 30.8042 1.58357 29.6782 1.59319 28.317C1.62205 24.0411 1.60281 19.7652 1.60556 15.4893C1.60556 15.1752 1.60006 14.8681 1.43652 14.5887C2.33394 14.3093 3.43062 14.9816 3.59004 15.9624C3.79206 17.1991 3.94186 18.4455 4.10815 19.6877C4.42149 22.02 4.71971 24.3551 5.04816 26.6846C5.1155 27.1674 5.36425 27.5949 5.71195 27.9449C7.96304 30.2149 10.2128 32.4878 12.4721 34.7495C13.2541 35.5325 14.1144 35.4523 14.8963 34.5559C16.3091 34.0731 16.7118 32.3508 15.5175 31.2455C14.2106 30.0365 12.9875 28.7361 11.741 27.4607C11.3644 27.0747 10.9782 26.6846 10.7144 26.1963Z" fill="#F5D190"/>
<path d="M48.8275 14.5818C50.0561 14.3176 51.0085 15.3648 51.0016 16.4825C50.9851 18.7581 50.9975 21.0337 50.9975 23.3093C50.9975 24.9818 50.9975 26.6543 50.9975 28.3267C50.9975 30.0199 50.4052 31.4669 49.2934 32.7396C47.1481 35.1964 45.0386 37.6836 42.9139 40.1571C42.2199 40.9649 41.5327 41.777 40.8277 42.5738C40.1777 43.3083 39.9262 44.1784 39.9166 45.1371C39.9083 46.0335 39.9111 46.9299 39.9097 47.8263C39.7475 47.9882 39.5359 47.984 39.3325 47.984C36.6293 47.9909 33.926 47.9895 31.2228 47.9854C31.0689 47.9854 30.915 47.9785 30.7679 47.9259C30.5137 47.8139 30.5109 47.5801 30.5109 47.356C30.5054 43.8049 30.4642 40.2525 30.5302 36.7029C30.5563 35.2877 31.2393 34.0717 32.2082 33.0743C34.5802 30.6355 36.9948 28.2382 39.393 25.8256C39.5139 25.7053 39.6294 25.5725 39.8121 25.5434C40.8703 26.5975 40.8566 28.133 39.7558 29.2619C38.6302 30.4156 37.4758 31.5416 36.353 32.6981C35.4859 33.5903 35.8899 34.9225 37.0869 35.2393C37.3247 35.3015 37.5212 35.1618 37.7397 35.2144C39.0384 35.5298 40.1983 35.2296 41.1438 34.3014C42.9235 32.557 44.6675 30.7752 46.4184 29.0018C47.0945 28.317 47.4505 27.4746 47.5714 26.5187C48.0345 22.8252 48.5334 19.1358 48.9952 15.4423C49.0323 15.1379 49.1134 14.8239 48.8275 14.5818Z" fill="#F5D190"/>
<path d="M14.1857 1.31555C14.0579 1.91316 13.6786 2.39871 13.4615 2.95896C12.56 5.27053 12.5819 7.60561 13.2265 9.96698C14.0497 12.9757 15.6439 15.546 17.627 17.906C19.9468 20.6671 22.7064 22.9178 25.6212 24.9915C26.2191 25.4161 26.8512 25.7924 27.4669 26.1908C27.0148 26.5643 26.5132 26.87 25.9676 27.0609C25.5017 27.2242 25.0275 27.126 24.5878 26.8687C22.7201 25.7772 20.9225 24.5806 19.2335 23.2277C17.1913 21.5926 15.3085 19.7929 13.7185 17.6971C11.9773 15.4035 10.6744 12.8997 10.313 10.0085C9.97766 7.32341 10.6593 4.89288 12.4486 2.82063C12.9558 2.23271 13.5 1.6932 14.1857 1.31555Z" fill="#007FE9"/>
<path d="M1.43764 14.5915C1.79221 14.5708 1.74686 14.8239 1.74686 15.048C1.74686 16.7565 1.74686 18.4635 1.74686 20.1719C1.74686 22.9317 1.7661 25.6928 1.73861 28.4526C1.72624 29.7599 2.25535 30.7932 3.08954 31.7408C4.35664 33.1795 5.58526 34.6514 6.83586 36.1039C7.60684 36.9989 8.41493 37.8635 9.15704 38.782C10.1974 40.0713 11.4837 41.1642 12.2465 42.6748C12.5845 43.3429 12.7591 44.054 12.7522 44.8093C12.7439 45.8094 12.7494 46.811 12.7494 47.8111C12.1764 47.9107 11.6033 47.9149 11.0316 47.8083C11.0275 47.0503 10.9642 46.2853 11.0343 45.5341C11.1663 44.1148 10.6069 43.0275 9.69851 41.9942C6.93344 38.8471 4.21096 35.6598 1.48162 32.4809C0.505871 31.3438 0.011126 30.0075 0.0070031 28.5066C-0.00261695 24.4893 0.00150593 20.4721 0.00425451 16.4549C0.00425451 15.4755 0.548474 14.7755 1.43764 14.5915Z" fill="#ECBD82"/>
<path d="M39.809 25.5462C39.6743 25.7011 39.5478 25.8643 39.4049 26.0096C37.1071 28.3267 34.8038 30.6369 32.5101 32.9567C31.2787 34.2031 30.6094 35.6695 30.6301 37.4747C30.6713 40.9192 30.641 44.3652 30.6397 47.8111C30.0611 47.9176 29.4811 47.9065 28.9012 47.8194C28.8998 44.1646 28.8572 40.5098 28.9149 36.855C28.9424 35.1147 29.6144 33.5419 30.8183 32.2886C33.0199 29.995 35.2917 27.7706 37.5194 25.5033C38.1351 24.8766 39.3664 24.9029 39.809 25.5462Z" fill="#ECBD82"/>
<path d="M48.8272 14.5818C49.1406 14.5707 49.245 14.6233 49.1873 15.0231C48.9331 16.7661 48.7585 18.5216 48.5304 20.2687C48.2761 22.2192 47.9188 24.1587 47.7525 26.1161C47.6247 27.617 46.9541 28.7237 45.9137 29.7266C44.3539 31.2289 42.8518 32.7921 41.325 34.329C40.3437 35.3153 39.1591 35.6266 37.8123 35.4011C37.6762 35.379 37.7106 35.2987 37.7381 35.2157C38.1146 35.1134 38.4032 34.881 38.674 34.6071C40.7313 32.5293 42.7831 30.4474 44.8583 28.3889C45.4905 27.7623 45.922 27.0803 46.0347 26.1687C46.403 23.1862 46.8098 20.2079 47.2056 17.2281C47.2647 16.7855 47.3018 16.3345 47.4158 15.907C47.6082 15.1863 48.0673 14.7118 48.8272 14.5818Z" fill="#ECBD82"/>
<path d="M28.9015 47.818C29.4814 47.8152 30.06 47.8125 30.64 47.8111C33.728 47.8166 36.8174 47.8222 39.9055 47.8277C40.7204 48.1486 40.8221 48.2994 40.8221 49.1917C40.8221 49.9096 40.8194 50.6276 40.8194 51.3455C40.6201 51.2127 40.3933 51.2404 40.1734 51.2404C37.5252 51.2404 34.8769 51.2086 32.23 51.2598C31.4343 51.275 30.5823 50.4602 30.6372 49.6689C30.6675 49.2415 30.6207 48.8085 30.6496 48.3797C30.6743 48.0034 30.5204 47.9038 30.1741 47.9204C29.6793 47.9439 29.1832 47.9245 28.6885 47.9231C28.7352 47.8415 28.8163 47.8249 28.9015 47.818Z" fill="#BDDBFF"/>
<path d="M11.0299 47.8097C11.603 47.8111 12.1761 47.8111 12.7478 47.8125C15.8661 47.8138 18.9843 47.8166 22.1026 47.818C22.7499 48.0144 22.9973 48.4363 22.9423 49.1239C22.8859 49.8252 22.9286 50.5349 22.9272 51.2418C20.1209 51.2418 17.3132 51.2058 14.5083 51.2625C13.6466 51.2791 12.7588 50.5667 12.7505 49.5223C12.7464 49.1266 12.734 48.7296 12.7547 48.334C12.7712 48.0117 12.6406 47.9121 12.3355 47.9231C11.8229 47.9411 11.3089 47.9273 10.7949 47.9273C10.8471 47.8332 10.9392 47.8235 11.0299 47.8097Z" fill="#BDDBFF"/>
<path d="M10.7141 26.1964C11.7915 27.3016 12.8662 28.4097 13.9464 29.5122C14.5717 30.1513 15.2162 30.7711 15.8319 31.4185C16.7802 32.4159 16.3885 34.1354 15.1145 34.6237C15.017 34.661 14.9524 34.6417 14.8974 34.5587C15.2877 33.7245 15.0582 33.0633 14.4123 32.4435C13.3128 31.3894 12.2533 30.2938 11.1854 29.2065C10.332 28.3378 10.1602 27.1951 10.7141 26.1964Z" fill="#ECBD82"/>
<path d="M25.5015 20.497C24.9353 20.497 24.3704 20.5066 23.8042 20.4942C23.3067 20.4845 22.9357 20.1152 22.9384 19.66C22.9412 19.2021 23.3108 18.8508 23.8111 18.8328C23.965 18.8273 24.1203 18.8245 24.2742 18.8314C24.5559 18.8452 24.6769 18.7166 24.6755 18.4316C24.6686 17.5518 24.6604 16.672 24.6796 15.7922C24.6865 15.4367 24.5023 15.4201 24.2302 15.4104C23.3603 15.3814 22.4863 15.4989 21.6191 15.3274C20.4661 15.1005 19.5631 14.0423 19.5425 12.8402C19.5288 12.0129 19.5439 11.1843 19.5384 10.3557C19.5343 9.76499 19.3158 9.51598 18.7413 9.41362C18.0762 9.29465 17.7738 8.89901 17.9002 8.31386C18.0033 7.84076 18.4788 7.6457 19.0876 7.72179C20.2695 7.86842 21.3057 9.01798 21.2838 10.4304C21.2714 11.1898 21.2769 11.9479 21.2838 12.7074C21.2893 13.3617 21.5779 13.6549 22.2224 13.6605C22.8903 13.6674 23.5596 13.648 24.2275 13.6674C24.5491 13.6771 24.6879 13.5955 24.6824 13.2399C24.6631 12.1015 24.6659 10.963 24.681 9.82447C24.6851 9.50768 24.5793 9.37765 24.2673 9.41223C24.1492 9.42607 24.0268 9.41777 23.9073 9.41362C23.3974 9.39563 22.9755 9.03735 22.9398 8.59468C22.904 8.15477 23.2779 7.69689 23.8028 7.68029C24.9325 7.64432 26.0649 7.64432 27.1946 7.6789C27.7209 7.6955 28.0975 8.14371 28.0673 8.58499C28.037 9.02766 27.6165 9.39287 27.1094 9.41362C26.3315 9.44682 26.3315 9.44682 26.3315 10.2284C26.3315 11.2286 26.3439 12.2301 26.3247 13.2303C26.3178 13.5747 26.4374 13.6785 26.7699 13.6688C27.4378 13.648 28.1071 13.6674 28.775 13.6619C29.4264 13.6563 29.7027 13.3672 29.726 12.717C29.7631 11.703 29.6147 10.6821 29.8236 9.67507C30.0531 8.56978 31.0701 7.71625 32.2602 7.6706C32.7055 7.65262 33.0683 7.99431 33.115 8.40793C33.1714 8.91146 32.9542 9.2407 32.4746 9.37488C31.481 9.6557 31.481 9.67507 31.4618 10.7084C31.4453 11.5675 31.5745 12.4376 31.393 13.2856C31.1168 14.5818 30.1026 15.3924 28.7901 15.4132C28.1222 15.4229 27.453 15.4339 26.785 15.4076C26.4154 15.3938 26.3137 15.5321 26.3247 15.8849C26.3466 16.6084 26.3315 17.3333 26.3315 18.0581C26.3315 18.819 26.3315 18.8273 27.0805 18.8259C27.4461 18.8259 27.7512 18.8895 27.9353 19.2589C28.2157 19.8205 27.879 20.4624 27.2509 20.4887C26.6682 20.5149 26.0842 20.4956 25.5015 20.497Z" fill="white"/>
</g>
<defs>
<clipPath id="clip0_107_1253">
<rect width="51" height="53" fill="white"/>
</clipPath>
</defs>
</svg>
