<svg width="63" height="42" viewBox="0 0 63 42" fill="none" xmlns="http://www.w3.org/2000/svg">
<path d="M1.36719 40.8789H56.7383C57.1158 40.8789 57.4219 40.5729 57.4219 40.1953C57.4219 39.8177 57.1158 39.5117 56.7383 39.5117H1.36719C0.989707 39.5117 0.683594 39.8177 0.683594 40.1953C0.683594 40.5729 0.989707 40.8789 1.36719 40.8789Z" fill="#AFA3AE"/>
<path d="M60.1562 23.2422L56.0547 20.5078H43.75C43.75 23.3811 43.75 26.8661 43.75 30.0781C62.058 30.0781 59.9688 30.0781 60.1562 30.0781C60.1562 27.9027 60.1562 25.4177 60.1562 23.2422Z" fill="#3A7ABE"/>
<path d="M6.83594 34.8633C6.83594 38.2608 9.59082 41.0156 12.9883 41.0156C16.3857 41.0156 19.1406 38.2608 19.1406 34.8633C19.1406 32.9786 18.2865 31.2357 16.8547 30.0781C16.8547 30.0768 16.8533 30.0781 16.8533 30.0781C14.6016 28.2546 11.3758 28.254 9.12324 30.0781C9.12324 30.0781 9.12188 30.0768 9.12188 30.0781C7.69084 31.2351 6.83594 32.9774 6.83594 34.8633Z" fill="#63A0C3"/>
<path d="M43.75 34.8633C43.75 38.2608 46.5049 41.0156 49.9023 41.0156C53.2998 41.0156 56.0547 38.2608 56.0547 34.8633C56.0547 32.9786 55.2006 31.2357 53.7687 30.0781C53.7687 30.0768 53.7674 30.0781 53.7674 30.0781C51.5156 28.2546 48.2899 28.254 46.0373 30.0781C46.0373 30.0781 46.0359 30.0768 46.0359 30.0781C44.6049 31.2351 43.75 32.9774 43.75 34.8633Z" fill="#63A0C3"/>
<path d="M0.000195146 30.0781V34.1797H6.87441C7.05625 32.5268 7.89434 31.0707 9.12207 30.0781H2.73457H0.000195146Z" fill="#018CFF"/>
<path d="M43.7502 30.0781H16.8549C18.0826 31.0707 18.9207 32.5268 19.1025 34.1797H27.3439H38.2814H43.7885C43.9703 32.5268 44.8084 31.0707 46.0361 30.0781H43.7502Z" fill="#018CFF"/>
<path d="M60.1562 30.0781H53.7687C54.9965 31.0707 55.8346 32.5268 56.0164 34.1797H62.207V30.0781H60.1562Z" fill="#018CFF"/>
<path d="M43.75 9.57031V20.5078H56.0547L52.6367 9.57031H43.75Z" fill="#A1C6E9"/>
<path d="M12.9883 32.8125C11.8563 32.8125 10.9375 33.7313 10.9375 34.8633C10.9375 35.9953 11.8563 36.9141 12.9883 36.9141C14.1203 36.9141 15.0391 35.9953 15.0391 34.8633C15.0391 33.7313 14.1203 32.8125 12.9883 32.8125Z" fill="#F9CFCF"/>
<path d="M49.9023 32.8125C48.7703 32.8125 47.8516 33.7313 47.8516 34.8633C47.8516 35.9953 48.7703 36.9141 49.9023 36.9141C51.0344 36.9141 51.9531 35.9953 51.9531 34.8633C51.9531 33.7313 51.0344 32.8125 49.9023 32.8125Z" fill="#F9CFCF"/>
<path d="M2.73438 25.293V30.0781H9.12188C9.12188 30.0768 9.12324 30.0781 9.12324 30.0781C10.1801 29.2223 11.5254 28.7109 12.9883 28.7109C14.4512 28.7109 15.7965 29.2223 16.8533 30.0781C16.8533 30.0781 16.8547 30.0768 16.8547 30.0781H43.75V25.293H8.20312H2.73438Z" fill="#A1C6E9"/>
<path d="M2.73438 21.875V25.293H8.20312V0H2.73438V21.875Z" fill="#A1C6E9"/>
<path d="M8.20312 0V25.293H43.75C43.75 23.1973 43.75 11.2712 43.75 9.57031V5.46875H52.6367V0C51.8081 0 8.91311 0 8.20312 0Z" fill="#B6D3EF"/>
<path d="M49.2188 25.293H50.5859C50.9634 25.293 51.2695 24.987 51.2695 24.6094C51.2695 24.2318 50.9634 23.9258 50.5859 23.9258H49.2188C48.8413 23.9258 48.5352 24.2318 48.5352 24.6094C48.5352 24.987 48.8413 25.293 49.2188 25.293Z" fill="#018CFF"/>
<path d="M54.0039 26.6602C54.0039 26.2825 54.31 25.9766 54.6875 25.9766H60.1562C60.1562 26.4317 60.1562 26.8886 60.1562 27.3438H54.6875C54.31 27.3438 54.0039 27.0378 54.0039 26.6602Z" fill="#018CFF"/>
<path d="M21.7473 9.28445C23.1478 7.51732 24.5965 5.68978 24.9251 4.00277C24.9998 3.61648 25.3501 3.35511 25.7459 3.38295C25.7472 3.38295 25.7486 3.38295 25.7499 3.38363C26.0887 3.41418 26.363 3.65925 26.4329 3.99326C26.7825 5.67349 28.2136 7.49153 29.5978 9.24914C31.2448 11.3408 32.8008 13.3163 32.8008 15.2688C32.8008 19.1947 29.6033 22.3889 25.6725 22.3889C21.7418 22.3889 18.5443 19.1947 18.5443 15.2688C18.5443 13.3258 20.1003 11.3625 21.7473 9.28445ZM27.7092 15.9395C28.0839 15.9395 28.3881 15.636 28.3881 15.2606C28.3881 14.8852 28.0839 14.5817 27.7092 14.5817H26.3514V13.224C26.3514 12.8492 26.0473 12.5451 25.6725 12.5451C25.2978 12.5451 24.9937 12.8492 24.9937 13.224V14.5817H23.6359C23.2605 14.5817 22.957 14.8852 22.957 15.2606C22.957 15.636 23.2605 15.9395 23.6359 15.9395H24.9937V17.2973C24.9937 17.6727 25.2978 17.9761 25.6725 17.9761C26.0473 17.9761 26.3514 17.6727 26.3514 17.2973V15.9395H27.7092Z" fill="#F15F64"/>
<path d="M25.6722 17.9761C25.2974 17.9761 24.9933 17.6727 24.9933 17.2973V15.9395H23.6355C23.2601 15.9395 22.9567 15.636 22.9567 15.2606C22.9567 14.8852 23.2601 14.5817 23.6355 14.5817H24.9933V13.224C24.9933 12.8492 25.2974 12.5451 25.6722 12.5451C26.0469 12.5451 26.3511 12.8492 26.3511 13.224V14.5817H27.7088C28.0836 14.5817 28.3877 14.8852 28.3877 15.2606C28.3877 15.636 28.0836 15.9395 27.7088 15.9395H26.3511V17.2973C26.3511 17.6727 26.0469 17.9761 25.6722 17.9761Z" fill="white"/>
</svg>
