<svg xmlns="http://www.w3.org/2000/svg" version="1.1" xmlns:xlink="http://www.w3.org/1999/xlink" width="64" height="64" x="0" y="0" viewBox="0 0 512 512" style="enable-background:new 0 0 512 512" xml:space="preserve" class=""><g><path fill="#fefdfe" d="M122.368 61.203H63.385c-11.641 0-21.11 9.391-21.11 21.032v393.32c0 11.641 9.468 21.032 21.11 21.032h304.381c11.408 0 20.644-9.003 21.032-20.333V82.235c0-11.641-9.391-21.032-21.032-21.032h-58.982z" data-original="#fefdfe" class="" opacity="0.5098039215686274"></path><path d="M388.778 82.234v394.018c-.388 11.331-9.623 20.333-21.032 20.333h-54.559c11.409 0 20.644-9.003 21.032-20.333V82.234c0-11.641-9.391-21.032-21.032-21.032h54.559c11.641 0 21.032 9.391 21.032 21.032z" opacity="0" fill="#000000" data-original="#000000" class=""></path><path fill="#bddbff" d="M308.794 52.884v29.784c0 6.979-5.658 12.637-12.637 12.637H134.971c-6.979 0-12.637-5.658-12.637-12.637V52.884c0-6.972 5.647-12.627 12.618-12.637l26.909-.039c4.928-.007 9.068-3.049 11.462-7.357 5.598-10.069 22.39-17.439 42.241-17.439s36.643 7.37 42.241 17.439c2.395 4.308 6.534 7.349 11.462 7.357l26.909.039c6.971.011 12.618 5.665 12.618 12.637z" data-original="#b8daff" class="" opacity="1"></path><path d="M308.763 52.898V82.7c0 6.985-5.665 12.573-12.573 12.573h-27.318c6.985 0 12.65-5.588 12.65-12.573V52.898c0-6.984-5.665-12.65-12.65-12.65l-26.93-.078c-4.889 0-9.002-3.027-11.409-7.295-4.268-7.683-14.978-13.737-28.637-16.22a77.053 77.053 0 0 1 13.659-1.242c19.868 0 36.631 7.373 42.219 17.462 2.406 4.268 6.597 7.295 11.486 7.295l26.93.078c6.986.001 12.573 5.666 12.573 12.65z" opacity="0" fill="#000000" data-original="#000000" class=""></path><circle cx="116.73" cy="173.164" r="34.683" fill="#bddbff" transform="rotate(-22.48 116.724 172.984)" data-original="#b8daff" class="" opacity="1"></circle><circle cx="116.73" cy="295.946" r="34.683" fill="#bddbff" transform="rotate(-22.48 116.78 295.674)" data-original="#b8daff" class="" opacity="1"></circle><circle cx="116.73" cy="418.727" r="34.683" fill="#bddbff" transform="rotate(-22.48 116.838 418.367)" data-original="#b8daff" class="" opacity="1"></circle><path d="M151.451 173.191c0 19.17-15.522 34.691-34.691 34.691-3.415 0-6.674-.466-9.701-1.397 14.435-4.191 24.912-17.54 24.912-33.294s-10.477-29.103-24.912-33.294c3.027-.931 6.286-1.397 9.701-1.397 19.17.001 34.691 15.522 34.691 34.691zM151.451 295.968c0 19.17-15.522 34.691-34.691 34.691-3.415 0-6.674-.466-9.701-1.397 14.435-4.191 24.912-17.54 24.912-33.294s-10.477-29.103-24.912-33.294c3.027-.931 6.286-1.397 9.701-1.397 19.17 0 34.691 15.522 34.691 34.691zM151.451 418.745c0 19.17-15.522 34.691-34.691 34.691-3.415 0-6.674-.466-9.701-1.397 14.435-4.191 24.912-17.54 24.912-33.294s-10.477-29.103-24.912-33.294c3.027-.931 6.286-1.397 9.701-1.397 19.17 0 34.691 15.522 34.691 34.691z" opacity="0" fill="#000000" data-original="#000000" class=""></path><path fill="#bddbff" d="M308.473 398.877c-.155-.931-.233-1.863-.31-2.716-2.406-27.473 17.85-51.687 45.323-54.016 13.193-1.164 25.688 2.872 35.312 10.477 9.701-7.606 22.118-11.641 35.312-10.477 27.473 2.328 47.807 26.542 45.401 54.016-2.406 27.473-31.431 102.754-58.905 100.348-8.459-.698-15.755-8.77-21.808-20.256-5.976 11.564-13.271 19.557-21.73 20.256-.466 0-.854.078-1.319.078-26.233-.001-53.396-68.762-57.276-97.71" data-original="#b8daff" class="" opacity="1"></path><path d="M469.491 396.161c-2.406 27.473-31.431 102.754-58.905 100.348-4.035-.388-7.839-2.406-11.408-5.743 22.118-17.773 41.831-72.176 43.849-94.605 2.173-24.447-13.659-46.255-36.553-52.463 5.588-1.552 11.486-2.096 17.617-1.552 27.472 2.327 47.806 26.541 45.4 54.015z" opacity="0" fill="#000000" data-original="#000000" class=""></path><g fill="#3f8cf4"><path d="M36.473 82.237v393.317c0 14.809 12.081 26.852 26.932 26.852h304.378c9.679 0 18.048-5.097 22.776-12.752 5.996 7.711 12.524 12.079 19.538 12.654 33.056 2.865 62.803-78.101 65.213-105.643 1.3-14.847-3.263-29.308-12.854-40.707-9.58-11.391-23.025-18.356-37.838-19.614-10.386-.909-20.593 1.206-29.745 5.765 1.36-7.496 5.876-17.464 19.756-22.727a5.816 5.816 0 0 0 3.376-7.503 5.818 5.818 0 0 0-7.507-3.38c-6.708 2.543-11.877 6.055-15.863 10.042V82.237c0-14.809-12.047-26.852-26.852-26.852h-53.17v-2.501c0-10.163-8.269-18.447-18.428-18.455l-26.909-.038c-3.573-.008-5.654-3.054-6.381-4.365-6.791-12.225-25.814-20.433-47.331-20.433-21.513 0-40.532 8.208-47.327 20.433-.731 1.311-2.812 4.358-6.385 4.365l-26.905.038c-10.163.008-18.432 8.291-18.432 18.455v2.501h-53.11c-14.851 0-26.932 12.043-26.932 26.852zM423.617 347.94c11.725 1 22.354 6.503 29.929 15.514 7.587 9.011 11.194 20.448 10.167 32.195-2.584 29.482-31.79 96.73-52.632 95.063-5.529-.462-11.456-6.397-17.136-17.174-.189-.359-.443-.665-.696-.97-.102-.122-.179-.255-.29-.369-.428-.44-.932-.783-1.471-1.067-.186-.098-.373-.17-.57-.247a5.737 5.737 0 0 0-1.611-.384c-.104-.009-.19-.067-.296-.071-.028.001-.055.017-.083.018-.045-.001-.087-.018-.133-.018h-.023a5.825 5.825 0 0 0-5.15 3.145c-5.472 10.595-11.52 16.681-16.556 17.113-.417 0-.796.03-1.319.076-20.592 0-47.52-62.936-51.507-92.66-.008-.061-.015-.121-.027-.182-.125-.75-.186-1.493-.254-2.274-1.031-11.77 2.581-23.222 10.167-32.241 7.552-8.981 18.152-14.476 29.865-15.469a46.295 46.295 0 0 1 3.964-.174c9.917 0 19.459 3.282 27.227 9.421.245.195.533.289.799.439.074.042.144.09.22.128.149.076.27.186.426.25.077.031.146.072.225.1.48.17.981.227 1.483.267.157.013.299.082.458.082.303 0 .61-.023.921-.076.151-.024.266-.118.412-.153.246-.059.488-.1.728-.191.219-.082.406-.199.612-.306.231-.12.45-.234.659-.382.082-.058.181-.079.261-.142 8.877-6.957 19.958-10.261 31.231-9.261zM128.156 52.884c0-3.752 3.054-6.806 6.806-6.813l26.905-.038c6.76-.008 12.941-3.88 16.541-10.353 3.994-7.177 18.038-14.445 37.156-14.445 19.122 0 33.166 7.268 37.156 14.445 3.6 6.472 9.781 10.345 16.541 10.353l26.909.038c3.752.008 6.802 3.062 6.802 6.813v29.785a6.82 6.82 0 0 1-6.813 6.813h-161.19a6.82 6.82 0 0 1-6.813-6.813zM48.114 82.237c0-8.39 6.859-15.211 15.291-15.211h53.11v15.643c0 10.179 8.28 18.455 18.455 18.455h161.189c10.175 0 18.455-8.276 18.455-18.455V67.026h53.17c8.386 0 15.211 6.821 15.211 15.211v259.988c-9.183-4.662-19.476-6.849-30.001-5.881-14.802 1.258-28.216 8.208-37.774 19.569-8.796 10.454-13.305 23.502-12.991 37.144H181.193a5.823 5.823 0 0 0-5.821 5.821 5.823 5.823 0 0 0 5.821 5.821h122.365c4.341 22.231 19.757 65.365 39.901 86.067H63.405c-8.432 0-15.291-6.821-15.291-15.211z" fill="#018cff" data-original="#3f8cf4" class="" opacity="1"></path><path d="M206.651 48.86h17.826a5.823 5.823 0 0 0 5.821-5.821 5.823 5.823 0 0 0-5.821-5.821h-17.826a5.823 5.823 0 0 0-5.821 5.821 5.823 5.823 0 0 0 5.821 5.821zM116.73 213.672c22.331 0 40.502-18.174 40.502-40.51s-18.171-40.502-40.502-40.502c-22.335 0-40.506 18.167-40.506 40.502s18.171 40.51 40.506 40.51zm0-69.371c15.912 0 28.861 12.945 28.861 28.861s-12.949 28.868-28.861 28.868c-15.916 0-28.864-12.952-28.864-28.868s12.949-28.861 28.864-28.861z" fill="#018cff" data-original="#3f8cf4" class="" opacity="1"></path><path d="M106.552 186.327a5.8 5.8 0 0 0 4.115 1.705 5.799 5.799 0 0 0 4.115-1.705l18.095-18.099c2.274-2.274 2.274-5.957 0-8.231s-5.957-2.274-8.231 0l-13.979 13.983-1.853-1.849c-2.274-2.274-5.965-2.274-8.231 0a5.818 5.818 0 0 0 0 8.231zM181.163 159.133h167.923a5.822 5.822 0 0 0 0-11.642H181.163a5.822 5.822 0 0 0 0 11.642zM181.163 198.832h100.338a5.823 5.823 0 0 0 5.821-5.821 5.823 5.823 0 0 0-5.821-5.821H181.163a5.822 5.822 0 0 0 0 11.642zM116.73 336.451c22.331 0 40.502-18.167 40.502-40.502s-18.171-40.51-40.502-40.51c-22.335 0-40.506 18.174-40.506 40.51s18.171 40.502 40.506 40.502zm0-69.371c15.912 0 28.861 12.952 28.861 28.868s-12.949 28.861-28.861 28.861c-15.916 0-28.864-12.945-28.864-28.861s12.949-28.868 28.864-28.868z" fill="#018cff" data-original="#3f8cf4" class="" opacity="1"></path><path d="M106.552 309.106a5.8 5.8 0 0 0 4.115 1.705 5.799 5.799 0 0 0 4.115-1.705l18.095-18.091c2.274-2.274 2.274-5.957 0-8.231s-5.957-2.274-8.231 0l-13.979 13.976-1.853-1.849c-2.274-2.274-5.965-2.274-8.231 0a5.818 5.818 0 0 0 0 8.231zM181.163 281.92h167.923a5.822 5.822 0 0 0 0-11.642H181.163a5.822 5.822 0 0 0 0 11.642zM181.163 321.611h100.338a5.822 5.822 0 0 0 0-11.642H181.163a5.822 5.822 0 0 0 0 11.642zM116.73 459.23c22.331 0 40.502-18.167 40.502-40.502s-18.171-40.502-40.502-40.502c-22.335 0-40.506 18.167-40.506 40.502s18.171 40.502 40.506 40.502zm0-69.363c15.912 0 28.861 12.945 28.861 28.861s-12.949 28.861-28.861 28.861c-15.916 0-28.864-12.945-28.864-28.861s12.949-28.861 28.864-28.861z" fill="#018cff" data-original="#3f8cf4" class="" opacity="1"></path><path d="M106.552 431.892a5.816 5.816 0 0 0 8.23 0l18.095-18.099c2.274-2.274 2.274-5.957 0-8.231s-5.957-2.274-8.231 0l-13.979 13.983-1.853-1.857c-2.274-2.274-5.957-2.274-8.231 0s-2.274 5.957 0 8.231zM181.163 444.398h100.338a5.822 5.822 0 0 0 0-11.642H181.163a5.822 5.822 0 0 0 0 11.642z" fill="#018cff" data-original="#3f8cf4" class="" opacity="1"></path></g></g></svg>
