<svg width="41" height="46" viewBox="0 0 41 46" fill="none" xmlns="http://www.w3.org/2000/svg">
<g clip-path="url(#clip0_266_3058)">
<path d="M26.1163 -6.80205e-05C26.9408 0.199173 27.7528 0.428808 28.4521 0.938731C29.959 2.03737 30.727 3.51649 30.7428 5.37945C30.7462 5.72278 30.7474 6.06835 30.7225 6.41055C30.6955 6.79553 30.4654 7.00828 30.0808 7.02291C29.6635 7.03867 29.4345 6.78877 29.386 6.40605C29.3443 6.08186 29.3691 5.74867 29.368 5.41885C29.3646 4.09733 28.8672 3.01444 27.8228 2.18708C27.0615 1.58261 26.1738 1.3541 25.2275 1.35072C22.0323 1.33834 18.8359 1.33496 15.6406 1.3496C13.2089 1.36085 11.5295 3.05834 11.5227 5.48301C11.5159 7.62401 11.5295 9.76501 11.5114 11.9071C11.5092 12.2077 11.5994 12.318 11.8769 12.3765C12.1498 12.4339 12.4103 12.5476 12.7036 12.6467C12.7036 10.8659 12.6968 9.102 12.7058 7.33922C12.7126 6.00869 13.4852 4.85602 14.7766 4.66578C16.3399 4.43615 17.9617 4.20539 19.3626 5.37607C20.0393 5.94228 20.9021 5.8995 21.6003 5.32767C22.3278 4.73332 23.1376 4.50481 24.0545 4.53521C24.7279 4.55772 25.4125 4.46879 26.0723 4.62188C27.331 4.91343 28.169 5.98843 28.1792 7.29532C28.1916 8.92752 28.1826 10.5597 28.1826 12.1919C28.1826 12.3383 28.1826 12.4835 28.1826 12.6681C28.3393 12.6028 28.4589 12.5476 28.5818 12.5026C29.3657 12.2156 29.3657 12.2156 29.3657 11.3679C29.3657 10.7995 29.3578 10.2299 29.368 9.66145C29.377 9.17292 29.6398 8.86674 30.0334 8.8521C30.4518 8.83634 30.727 9.13352 30.7383 9.65582C30.7519 10.329 30.7496 11.0032 30.7372 11.6775C30.7338 11.8936 30.797 12.0366 30.9774 12.1649C31.3993 12.4621 31.6519 12.882 31.7297 13.3896C31.8211 13.984 31.8482 14.5885 31.7252 15.1749C31.5199 16.1554 30.7812 16.7182 29.6725 16.7722C29.4379 16.7835 29.3228 16.8431 29.2755 17.0728C28.8988 18.8986 28.0314 20.4779 26.8359 21.8917C26.7987 21.9356 26.7693 21.9874 26.7141 22.0651C27.6243 22.396 28.4363 22.8519 29.1097 23.5273C30.0774 24.4987 30.7 25.6503 30.8725 27.0157C30.9098 27.3118 31.0462 27.4165 31.2978 27.4907C32.914 27.968 34.5246 28.4644 36.1442 28.9316C37.7774 29.4032 38.6402 30.4805 38.9041 32.1476C39.3609 35.036 39.8798 37.9155 40.3738 40.7983C40.5328 41.7247 40.7121 42.6477 40.8576 43.5764C41.0685 44.9249 40.1414 45.9954 38.7632 45.9954C26.5505 45.9977 14.3379 45.9977 2.12524 45.9954C0.712013 45.9954 -0.21059 44.8686 0.038671 43.4897C0.25184 42.3157 0.444706 41.1371 0.646596 39.9608C0.659003 39.8876 0.674793 39.8144 0.695095 39.7424C0.821417 39.2955 1.10903 39.0951 1.51619 39.1706C1.88952 39.2404 2.10494 39.5949 2.03163 40.0294C1.82523 41.2508 1.61995 42.4721 1.40791 43.6923C1.30189 44.3058 1.55792 44.6278 2.19066 44.6491C2.2651 44.6514 2.34067 44.6491 2.41623 44.6491C14.4338 44.6491 26.4513 44.6491 38.4688 44.648C38.6335 44.648 38.8015 44.6536 38.9605 44.6188C39.3654 44.5287 39.5786 44.2281 39.5098 43.8252C38.8331 39.8831 38.153 35.9422 37.4695 32.0024C37.3341 31.2212 36.9022 30.637 36.1454 30.3927C34.4445 29.8434 32.729 29.3402 30.9718 28.8044C30.9718 29.9571 30.9763 31.0613 30.9684 32.1656C30.9662 32.4054 31.1297 32.4042 31.2876 32.4538C33.1881 33.0526 34.1829 34.9685 33.5873 36.8697C33.0922 38.4513 31.5572 39.416 29.8078 39.246C28.3123 39.1008 27.0242 37.7691 26.8212 36.2292C26.581 34.4135 27.7878 32.8624 29.2935 32.4493C29.5225 32.3862 29.6127 32.3041 29.6104 32.0609C29.5992 30.9375 29.5958 29.8152 29.6127 28.6918C29.6161 28.4397 29.5101 28.3564 29.3003 28.2978C28.7837 28.1526 28.2604 28.0198 27.7585 27.8341C27.4043 27.7035 27.2509 27.7688 27.0964 28.1279C26.1422 30.3454 25.2783 32.5979 24.4053 34.8469C23.3225 37.6374 22.2511 40.4324 21.183 43.2286C21.0476 43.582 20.8999 43.9096 20.4656 43.9208C20.0055 43.9332 19.8476 43.5967 19.7054 43.2263C17.8896 38.4682 16.094 33.7021 14.154 28.9912C14.0176 28.6603 13.8518 28.3417 13.7322 28.0052C13.6386 27.7418 13.5089 27.7148 13.2596 27.8003C12.7239 27.9838 12.1791 28.1448 11.631 28.2877C11.375 28.3541 11.2283 28.4554 11.2847 28.7402C11.2937 28.783 11.2915 28.8303 11.2847 28.8742C11.1697 29.6543 11.3084 30.1552 12.2163 30.4749C13.369 30.8801 13.942 31.9089 14.0503 33.1325C14.2341 35.2184 14.3943 37.3065 14.5623 39.3946C14.6458 40.4189 13.898 41.2688 12.8671 41.3161C12.5829 41.3285 12.2964 41.333 12.0122 41.3149C11.5915 41.2868 11.3242 41.0088 11.3265 40.6317C11.3287 40.2444 11.5836 39.9979 12.0178 39.9653C12.063 39.9619 12.1081 39.9597 12.1532 39.9608C13.4593 40.0058 13.1953 39.7829 13.1401 38.8892C13.0239 37.0082 12.8592 35.1295 12.6991 33.2519C12.6111 32.2196 11.7765 31.4778 10.7027 31.4373C9.58501 31.3945 8.69286 32.0519 8.5688 33.1168C8.40525 34.5126 8.31954 35.9174 8.20111 37.3177C8.14472 37.9886 8.09509 38.6595 8.03757 39.3304C7.99584 39.8167 8.11088 39.9484 8.60489 39.9597C8.82934 39.9653 9.05491 39.9597 9.27936 39.9732C9.65156 39.9957 9.85683 40.2276 9.89631 40.5709C9.93804 40.9277 9.74517 41.2181 9.40117 41.2699C8.78084 41.3633 8.14246 41.4208 7.55935 41.0932C6.97849 40.7668 6.64239 40.2613 6.67961 39.5916C6.76194 38.1428 6.87924 36.6964 6.9909 35.2499C7.05068 34.4754 7.09805 33.6976 7.20632 32.9288C7.40708 31.5093 8.26878 30.6291 9.60644 30.2081C9.87037 30.1248 9.93353 30.0212 9.92112 29.7792C9.90533 29.4708 9.91774 29.1601 9.91774 28.8066C8.16953 29.3379 6.46869 29.8366 4.78026 30.3769C3.88134 30.664 3.50012 31.3889 3.35237 32.2692C3.11101 33.7123 2.86287 35.1531 2.61925 36.5951C2.5324 37.1095 2.24254 37.401 1.8523 37.3605C1.42934 37.3155 1.18572 36.9654 1.2737 36.4251C1.53875 34.7895 1.78011 33.1483 2.12073 31.5285C2.39029 30.2464 3.23958 29.4077 4.49829 29.0194C6.17996 28.5005 7.86613 27.995 9.55456 27.4998C9.84894 27.4131 9.96624 27.2847 10.0226 26.9651C10.4106 24.7419 11.6411 23.1581 13.7254 22.2576C14.1935 22.0549 14.1879 22.0718 13.8732 21.6801C12.7916 20.3361 11.9908 18.8502 11.631 17.1516C11.5712 16.8702 11.4607 16.7835 11.164 16.7677C9.87601 16.6991 9.11582 15.8717 9.10792 14.5873C9.10341 13.8253 8.98837 12.9878 9.64028 12.4475C10.1523 12.0231 10.1546 11.5492 10.1535 10.9931C10.1478 8.97142 10.1174 6.94862 10.1873 4.93031C10.2719 2.49326 12.1915 0.445692 14.6266 0.0697228C14.6785 0.0618431 14.7259 0.0224451 14.7755 -0.00231934C18.5539 -6.80205e-05 22.3357 -6.80205e-05 26.1163 -6.80205e-05Z" fill="#457DC3"/>
<path d="M26.8278 10.4461C26.8278 11.4187 26.8233 12.3912 26.8289 13.3649C26.8334 14.0358 27.1019 14.3634 27.7718 14.4354C28.0109 14.4613 28.0177 14.5435 28.0267 14.7304C28.197 18.2514 26.6022 20.8517 23.734 22.718C21.3937 24.2399 18.2041 23.8707 15.9641 21.8828C14.4144 20.5084 13.3835 18.7985 12.9312 16.7678C12.7745 16.062 12.8918 15.336 12.8636 14.62C12.8568 14.4444 12.9561 14.4568 13.088 14.4399C13.7873 14.3521 14.0569 14.0505 14.058 13.3492C14.0625 11.4187 14.0805 9.48704 14.0512 7.55766C14.0366 6.61211 14.596 5.8219 15.7081 5.91646C15.9607 5.93784 16.2201 5.94009 16.4728 5.91533C17.2995 5.83653 17.9977 6.06729 18.6902 6.5547C19.7944 7.33253 21.0316 7.35392 22.137 6.5941C22.8904 6.0763 23.6359 5.83316 24.5224 5.91533C24.7897 5.94009 25.0615 5.91758 25.3322 5.91983C26.2515 5.92771 26.8131 6.47028 26.8255 7.39444C26.8391 8.41091 26.8278 9.42851 26.8278 10.4461Z" fill="white"/>
<path d="M16.7276 24.1284C20.6628 25.2957 20.7463 25.2957 24.1491 24.1228C24.1885 24.734 24.1197 25.3453 24.3013 25.934C24.3814 26.1929 24.4468 26.4709 24.6171 26.6657C24.9115 27.0011 24.7333 27.1429 24.4615 27.3411C23.2197 28.2517 21.9847 29.1736 20.7598 30.1068C20.5331 30.279 20.3853 30.3038 20.1451 30.1214C18.8841 29.1601 17.6141 28.2123 16.3329 27.2791C16.0814 27.0957 16.0667 26.9673 16.237 26.7231C16.6069 26.1906 16.7085 25.5726 16.7265 24.9378C16.7333 24.671 16.7276 24.4042 16.7276 24.1284Z" fill="white"/>
<path d="M28.1608 35.7351C28.1901 34.5407 29.1364 33.6548 30.3545 33.6807C31.4801 33.7055 32.4242 34.6781 32.414 35.8026C32.4039 36.98 31.3798 37.9549 30.1955 37.9155C29.036 37.8761 28.1326 36.908 28.1608 35.7351Z" fill="white"/>
<path d="M20.4477 41.3105C20.036 40.231 19.6481 39.2865 19.321 38.3218C19.2025 37.9706 19.4112 37.5947 19.4653 37.2311C19.5646 36.5534 19.7169 35.8837 19.8217 35.2072C19.8702 34.8942 20.0078 34.7659 20.3225 34.8244C20.6045 34.8762 20.9846 34.6522 21.0669 35.1869C21.2147 36.1583 21.4087 37.123 21.588 38.0888C21.6083 38.198 21.5936 38.2881 21.5542 38.3905C21.1989 39.3181 20.8492 40.2478 20.4477 41.3105Z" fill="white"/>
<path d="M25.5725 23.2347C27.4549 23.4542 29.0791 24.9728 29.4614 26.9145C28.9426 26.7659 28.4542 26.6275 27.967 26.4856C27.3692 26.3112 26.7872 26.0275 26.1364 26.2391C25.9932 26.2864 25.9131 26.1907 25.8466 26.0872C25.709 25.871 25.5815 25.6414 25.5759 25.3847C25.5635 24.67 25.5725 23.9529 25.5725 23.2347Z" fill="#F7FAFC"/>
<path d="M11.3848 26.9381C11.9352 24.9896 13.0879 23.7874 14.9511 23.2763C15.2511 23.1941 15.365 23.2583 15.3447 23.5983C15.312 24.1194 15.3301 24.644 15.3335 25.1674C15.3346 25.4601 15.2398 25.7212 15.1135 25.979C14.9985 26.2143 14.8214 26.3156 14.5721 26.2233C14.2225 26.0938 13.8943 26.194 13.5638 26.2908C12.8679 26.4934 12.1743 26.7028 11.3848 26.9381Z" fill="#F7FAFC"/>
<path d="M15.4064 28.2855C16.6167 29.1883 17.8269 30.0911 19.0788 31.0254C18.3863 31.318 17.7547 31.5724 17.1355 31.8539C16.902 31.9597 16.8231 31.9191 16.7306 31.6783C16.3629 30.7226 15.967 29.777 15.579 28.8281C15.5125 28.6649 15.4335 28.5062 15.3613 28.3463C15.3749 28.326 15.3907 28.3058 15.4064 28.2855Z" fill="#F7FAFC"/>
<path d="M25.539 28.2427C25.0348 29.5057 24.5781 30.6482 24.1235 31.7908C24.0367 32.0103 23.9025 31.9123 23.7705 31.856C23.14 31.5881 22.5095 31.3213 21.8125 31.0253C23.0408 30.1079 24.234 29.2164 25.539 28.2427Z" fill="#F7FAFC"/>
<path d="M18.9756 32.6182C19.9602 31.864 20.9449 31.8595 21.9103 32.6193C21.4953 33.7731 19.4696 33.8373 18.9756 32.6182Z" fill="#FEFEFE"/>
<path d="M11.4774 14.5603C11.4774 14.6639 11.4966 14.7731 11.4729 14.871C11.4301 15.0455 11.6263 15.3235 11.3116 15.3809C11.024 15.4327 10.7195 15.3787 10.5808 15.0826C10.3721 14.6346 10.4657 14.1506 10.4917 13.6801C10.4973 13.581 10.5808 13.5596 10.6868 13.5529C11.3105 13.5157 11.4774 13.6666 11.4774 14.2924C11.4774 14.3813 11.4774 14.4703 11.4774 14.5603Z" fill="#F7FAFC"/>
<path d="M29.4116 14.5086C29.4116 14.3454 29.424 14.1811 29.4082 14.019C29.3846 13.7769 29.4398 13.6621 29.7207 13.6171C30.4256 13.5057 30.4233 13.4843 30.4222 14.1732C30.4222 14.3803 30.4369 14.5919 30.4042 14.7957C30.3421 15.1829 30.1132 15.3833 29.7026 15.3945C29.459 15.4013 29.3879 15.3157 29.4082 15.0872C29.4252 14.8959 29.4116 14.7022 29.4116 14.5086Z" fill="#F7FAFC"/>
<path d="M18.3316 35.7746C18.0045 34.9371 17.7169 34.1919 17.4214 33.449C17.3774 33.3375 17.3582 33.2486 17.4811 33.1856C17.5905 33.1293 17.6424 33.2137 17.6999 33.2801C17.9627 33.5863 18.2188 33.8981 18.4895 34.1964C18.6395 34.3619 18.5628 34.5386 18.538 34.7052C18.4906 35.0305 18.415 35.3491 18.3316 35.7746Z" fill="#F7FAFC"/>
<path d="M22.5466 35.7981C22.5218 35.6124 22.5286 35.5359 22.5015 35.4751C22.0853 34.552 22.5252 33.8935 23.1726 33.298C23.2448 33.2316 23.2922 33.1123 23.4264 33.1956C23.5234 33.2564 23.5155 33.3329 23.4783 33.4264C23.1794 34.1828 22.8839 34.9381 22.5466 35.7981Z" fill="#F7FAFC"/>
</g>
<defs>
<clipPath id="clip0_266_3058">
<rect width="40.8889" height="46" fill="white"/>
</clipPath>
</defs>
</svg>
