<svg width="45" height="46" viewBox="0 0 45 46" fill="none" xmlns="http://www.w3.org/2000/svg">
<g clip-path="url(#clip0_266_2989)">
<path d="M0.00960453 23.0353C0.00960453 21.6176 -0.0179468 20.1985 0.0158662 18.7808C0.0672117 16.6617 1.05655 15.0924 2.91126 14.1219C3.91688 13.5963 4.97635 13.1767 6.01203 12.7092C6.76593 12.3693 7.06774 11.3306 6.59812 10.6205C6.04584 9.78398 5.38586 8.97654 5.32199 7.93533C5.22681 6.40133 5.05149 4.84078 5.43846 3.33205C6.00076 1.14603 8.14475 -0.256568 10.3163 0.039114C12.573 0.346168 14.2373 2.24788 14.2524 4.53626C14.2561 5.11878 14.211 5.70635 14.2611 6.28508C14.4001 7.87089 13.9643 9.26464 12.9913 10.5055C12.5893 11.0185 12.7295 11.6048 12.8335 12.1696C12.8798 12.4198 13.104 12.5323 13.3269 12.6296C14.1672 12.9998 15.005 13.3739 15.8366 13.7605C16.0394 13.8553 16.2047 13.8591 16.4101 13.7643C17.2429 13.3789 18.082 13.0049 18.9248 12.6397C19.3368 12.4615 19.4859 12.1583 19.5109 11.7173C19.5422 11.1436 19.432 10.6533 19.0676 10.1909C18.2498 9.15092 17.9079 7.95555 17.9968 6.62372C18.0632 5.63559 17.9042 4.63861 18.092 3.65427C18.5253 1.38611 20.6155 -0.166852 22.9623 0.0302688C25.1764 0.216018 26.9773 2.20366 26.9961 4.48445C27.0011 5.0834 26.9548 5.68613 27.0061 6.28002C27.1414 7.86457 26.7143 9.26085 25.7387 10.5004C25.3342 11.0135 25.477 11.5985 25.5759 12.1646C25.6173 12.3971 25.8151 12.5159 26.0243 12.6094C26.8909 12.9948 27.7587 13.3814 28.6204 13.7795C28.8107 13.8679 28.9672 13.8515 29.1513 13.7668C29.9866 13.384 30.8245 13.0087 31.666 12.6435C32.0755 12.4653 32.2271 12.1659 32.2571 11.7236C32.2972 11.1297 32.1582 10.6319 31.79 10.1567C30.9985 9.14081 30.6591 7.97451 30.7431 6.67679C30.8082 5.6735 30.6466 4.66009 30.837 3.66058C31.269 1.38864 33.3517 -0.160534 35.7035 0.0315324C37.9152 0.212227 39.7223 2.20239 39.7423 4.48066C39.7473 5.09477 39.701 5.71393 39.7523 6.32298C39.8863 7.89364 39.4468 9.27096 38.4862 10.4966C38.0805 11.0147 38.2282 11.596 38.3209 12.1608C38.3622 12.4123 38.5852 12.5272 38.8081 12.6271C39.7749 13.0567 40.7404 13.4876 41.7022 13.9298C43.875 14.9319 44.9908 16.6301 44.9921 19.0537C44.9921 21.9057 44.9858 24.7576 45.0008 27.6095C45.0021 27.9457 44.9144 28.0227 44.5901 28.0177C43.493 28.0025 43.493 28.0164 43.493 26.8931C43.493 24.309 43.493 21.725 43.493 19.1409C43.493 17.339 42.7203 16.0451 41.056 15.3198C40.0867 14.8965 39.1237 14.458 38.1619 14.0158C37.2189 13.5811 36.7805 12.8419 36.7304 11.7843C36.6841 10.8151 36.8544 9.97352 37.4944 9.21789C38.0842 8.52164 38.2858 7.67377 38.2508 6.7564C38.2182 5.92242 38.3021 5.07834 38.2082 4.25448C38.0304 2.67624 36.7868 1.56554 35.2865 1.54027C33.7987 1.515 32.5063 2.59411 32.301 4.17487C32.1532 5.31084 32.2008 6.47083 32.2934 7.61691C32.3661 8.50774 32.981 9.14207 33.4105 9.86485C34.1419 11.0943 33.8726 13.5546 32.2396 14.0764C31.7099 14.2457 31.2189 14.5364 30.703 14.7524C30.5076 14.8346 30.5001 14.8965 30.6454 15.0393C31.8852 16.2662 32.3548 17.7775 32.2471 19.4985C32.2408 19.5933 32.2596 19.6893 32.2446 19.7816C32.078 20.8291 32.3686 21.6871 33.264 22.2936C33.5232 22.4692 33.4719 22.6461 33.3241 22.8812C32.8056 23.7025 32.3147 24.5428 31.8 25.3667C31.641 25.6219 31.5608 25.8456 31.7311 26.1349C31.8651 26.3611 31.9854 26.6138 32.0355 26.8703C32.1845 27.6323 32.6854 27.9002 33.3855 28.0227C34.1644 28.1605 34.9246 28.4018 35.6998 28.5661C35.9377 28.6166 36.0003 28.7026 35.9991 28.9338C35.9903 30.3364 35.9903 31.739 35.9991 33.1403C36.0003 33.369 35.939 33.4562 35.701 33.5093C34.7004 33.7342 33.7111 34.0059 32.7092 34.2295C32.4738 34.2826 32.3523 34.3824 32.2872 34.5947C32.2784 34.625 32.2596 34.6516 32.2484 34.6806C32.0305 35.2328 31.6159 35.7977 31.6522 36.3322C31.6873 36.8477 32.1882 37.3317 32.4876 37.827C32.7706 38.2971 33.0498 38.7696 33.3454 39.2321C33.4719 39.4305 33.4907 39.5644 33.3016 39.7515C32.3197 40.7206 31.3479 41.7012 30.3861 42.6918C30.2008 42.8826 30.0706 42.8612 29.8727 42.7361C29.0286 42.2016 28.1708 41.6886 27.3305 41.1477C27.0975 40.9974 26.9047 40.962 26.6504 41.0871C26.2747 41.2728 25.8903 41.4573 25.4908 41.5736C25.0687 41.6961 24.921 41.9665 24.8371 42.3646C24.6417 43.2845 24.395 44.193 24.1996 45.1129C24.1483 45.3542 24.0606 45.4149 23.8339 45.4124C22.4439 45.4035 21.0538 45.4035 19.6637 45.4124C19.4345 45.4136 19.3531 45.3479 19.3005 45.1091C19.0776 44.0995 18.8096 43.1 18.5879 42.0891C18.5353 41.849 18.4264 41.734 18.2222 41.6645C18.1934 41.6544 18.1659 41.638 18.1371 41.6266C17.5898 41.408 17.0288 40.9898 16.499 41.0277C15.9881 41.0643 15.5097 41.571 15.0188 41.873C14.5529 42.1586 14.0833 42.4391 13.6274 42.7386C13.4258 42.8713 13.2956 42.8751 13.114 42.6881C12.1522 41.6974 11.1804 40.7168 10.1986 39.7477C10.0082 39.5607 10.032 39.428 10.156 39.2283C10.6932 38.3628 11.2092 37.4846 11.754 36.6241C11.8867 36.4143 11.9105 36.245 11.8103 36.0226C11.6287 35.6245 11.4409 35.224 11.3106 34.8083C11.1892 34.4165 10.9612 34.2396 10.568 34.1562C9.64003 33.9604 8.72458 33.7051 7.79785 33.5068C7.5549 33.455 7.5023 33.3627 7.50355 33.1365C7.51107 31.7339 7.51232 30.3313 7.50355 28.93C7.5023 28.6975 7.56993 28.6179 7.80536 28.5674C8.73209 28.3677 9.6488 28.12 10.5755 27.9141C10.9362 27.8332 11.1791 27.6904 11.2931 27.3025C11.4108 26.8994 11.5887 26.5102 11.774 26.1311C11.9042 25.8633 11.8942 25.6611 11.7289 25.402C11.1967 24.5719 10.7058 23.7139 10.1773 22.8799C10.0257 22.6398 10.0195 22.4983 10.2374 22.2873C10.9925 21.5569 11.7164 20.7937 12.4665 20.0583C12.6694 19.8586 12.7796 19.6653 12.7608 19.3646C12.6519 17.689 13.1566 16.2346 14.3513 15.0469C14.5417 14.8573 14.444 14.8106 14.2674 14.7348C13.7251 14.4997 13.1816 14.2647 12.6481 14.0094C11.7327 13.571 11.3031 12.8457 11.238 11.8083C11.1754 10.8151 11.3808 9.9672 12.017 9.19893C12.5893 8.50774 12.7997 7.68009 12.7571 6.77914C12.7158 5.88325 12.8435 4.97978 12.6907 4.09147C12.4252 2.55241 11.1516 1.48972 9.67885 1.53774C8.15477 1.58828 6.89492 2.75585 6.78221 4.33282C6.70832 5.3677 6.73963 6.4127 6.7772 7.45011C6.81101 8.39655 7.44594 9.08015 7.9043 9.8421C8.67448 11.1196 8.35889 13.5305 6.72961 14.0891C5.74778 14.4252 4.81855 14.9154 3.86929 15.3476C2.30012 16.0615 1.51616 17.3036 1.5099 19.031C1.49863 21.8829 1.49863 24.7349 1.51741 27.5868C1.51992 27.9532 1.41722 28.0215 1.0791 28.0152C0.00835212 27.9962 0.0083522 28.0114 0.0083522 26.9108C0.00960453 25.6194 0.00960453 24.328 0.00960453 23.0353Z" fill="#457DC3"/>
<path d="M13.0716 44.744C12.87 45.1421 12.6909 45.5616 12.4467 45.9406C12.344 46.1011 12.1649 45.9002 12.0434 45.8358C9.19186 44.3182 6.7661 42.2838 4.77865 39.7212C4.47183 39.3257 4.20133 38.9011 3.8895 38.5094C3.72168 38.2984 3.7818 38.1999 3.98342 38.0823C4.31779 37.8865 4.6459 37.5011 4.9665 37.5125C5.27082 37.5226 5.41859 38.0507 5.639 38.3477C7.55006 40.9141 9.90319 42.956 12.7109 44.4686C12.8387 44.5343 13.0165 44.5482 13.0716 44.744Z" fill="#457DC3"/>
<path d="M44.4705 30.6524C43.9783 32.9357 43.138 35.1002 41.9658 37.1321C41.6452 37.6881 41.2733 38.2125 40.9389 38.7609C40.7974 38.9921 40.6747 39.0578 40.4455 38.8582C40.1637 38.613 39.6928 38.4513 39.6002 38.1594C39.5025 37.8498 39.9333 37.5364 40.1299 37.2256C41.4473 35.147 42.4054 32.9167 42.9326 30.5058C42.9977 30.2076 43.0929 30.0774 43.4148 30.1798C43.6953 30.2695 43.9883 30.3188 44.2789 30.3693C44.4454 30.3984 44.5569 30.4388 44.4705 30.6524Z" fill="#457DC3"/>
<path d="M5.25911 23.4978C5.25911 24.884 5.24909 26.2702 5.26662 27.6563C5.27038 27.9558 5.18397 28.0152 4.90219 28.0152C3.75882 28.0152 3.75882 28.0266 3.75882 26.8906C3.75882 24.3697 3.76633 21.8501 3.75005 19.3292C3.74755 18.9919 3.83897 18.9173 4.16081 18.9224C5.2566 18.9375 5.25786 18.9236 5.25786 20.047C5.25911 21.1981 5.25911 22.348 5.25911 23.4978Z" fill="#457DC3"/>
<path d="M39.744 23.422C39.744 22.051 39.754 20.6813 39.7365 19.3103C39.7327 19.002 39.8128 18.9211 40.1197 18.9224C41.2443 18.9287 41.2443 18.9173 41.2443 20.0659C41.2443 22.5704 41.2367 25.0748 41.253 27.5793C41.2555 27.9318 41.1741 28.0228 40.8222 28.0152C39.7452 27.9937 39.7452 28.0102 39.7452 26.9172C39.744 25.7534 39.744 24.5871 39.744 23.422Z" fill="#457DC3"/>
<path d="M39.4852 40.6133C39.4126 40.7005 39.355 40.7738 39.2936 40.8433C38.6938 41.5244 38.0501 42.16 37.3813 42.7703C37.1947 42.9409 37.0971 42.9207 36.9543 42.7349C36.7163 42.4266 36.2906 42.1537 36.2555 41.8302C36.2217 41.5219 36.7389 41.3247 36.9881 41.0518C37.3676 40.6373 37.7733 40.2469 38.149 39.8286C38.303 39.6568 38.4045 39.6037 38.5886 39.7907C38.8178 40.0245 39.0795 40.2241 39.325 40.4415C39.3788 40.492 39.4264 40.5514 39.4852 40.6133Z" fill="#457DC3"/>
<path d="M35.1291 44.5014C35.0677 44.5519 35.0164 44.6037 34.9575 44.6429C34.2737 45.1029 33.5662 45.5224 32.8373 45.9078C32.6357 46.0139 32.538 45.9924 32.4466 45.789C32.2863 45.4339 31.9444 45.0637 31.9882 44.7415C32.0346 44.399 32.5868 44.3422 32.8999 44.1312C33.2481 43.8961 33.6263 43.7053 33.9631 43.4551C34.2311 43.2567 34.3677 43.3123 34.5217 43.584C34.6983 43.8961 34.9162 44.1842 35.1291 44.5014Z" fill="#457DC3"/>
<path d="M2.87892 36.662C2.73741 36.6885 2.72489 36.5685 2.68606 36.4952C2.34668 35.8647 2.04111 35.2177 1.76059 34.5581C1.68545 34.3799 1.7105 34.2978 1.88708 34.2498C1.91713 34.2422 1.94594 34.2321 1.97474 34.2207C2.33291 34.0767 2.7349 33.762 3.03296 33.8429C3.26714 33.9061 3.37234 34.457 3.53389 34.7906C3.62155 34.9726 3.70546 35.1583 3.79688 35.339C4.11497 35.9733 4.11622 35.9733 3.48129 36.3272C3.28092 36.4409 3.07679 36.5533 2.87892 36.662Z" fill="#457DC3"/>
<path d="M2.49609 32.1914C2.53992 32.276 2.51237 32.3342 2.41719 32.3582C2.37211 32.3695 2.33203 32.3986 2.2882 32.4112C0.79918 32.8244 1.2375 33.1151 0.765367 31.6367C0.760358 31.6215 0.762863 31.6051 0.759106 31.5899C0.425986 30.296 0.446023 30.2707 1.77725 30.1507C1.87869 30.1418 1.95258 30.1052 1.98764 30.2391C2.1542 30.8911 2.32577 31.5419 2.49609 32.1914Z" fill="#457DC3"/>
<path d="M13.572 40.9545C13.5006 40.8875 13.433 40.8268 13.3692 40.7624C12.9484 40.3403 12.5389 39.9057 12.1043 39.4975C11.9252 39.3295 11.9478 39.2132 12.0642 39.0275C12.5288 38.2832 12.9697 37.5225 13.438 36.7808C13.577 36.5597 13.6071 36.379 13.5019 36.1326C13.1012 35.1975 12.7142 34.2561 12.3397 33.3097C12.2421 33.062 12.1056 32.9546 11.8426 32.8978C10.9922 32.7133 10.1544 32.4719 9.30534 32.2862C9.07115 32.2344 8.99727 32.1598 9.00227 31.926C9.01605 31.3435 9.01605 30.7597 9.00227 30.1772C8.99727 29.9371 9.04861 29.8335 9.31411 29.7767C10.1795 29.5922 11.0323 29.347 11.8977 29.155C12.1306 29.1032 12.2358 28.9983 12.321 28.7873C12.7042 27.8282 13.0974 26.8729 13.5032 25.9227C13.5996 25.6965 13.5908 25.5272 13.4581 25.3149C12.9809 24.5593 12.5338 23.786 12.058 23.0303C11.934 22.8332 11.9465 22.7207 12.1131 22.5615C12.5338 22.1622 12.9434 21.7503 13.3391 21.3245C13.5082 21.1425 13.6246 21.1236 13.8413 21.2638C14.5877 21.7478 15.3566 22.1976 16.1067 22.6753C16.3009 22.7991 16.4549 22.8092 16.6653 22.717C17.6208 22.3025 18.5814 21.8981 19.5469 21.5115C19.7698 21.4218 19.8412 21.2941 19.8913 21.0705C20.0854 20.1986 20.3233 19.3368 20.5099 18.4624C20.5625 18.2148 20.6577 18.1655 20.8781 18.1693C21.4717 18.1806 22.0653 18.1806 22.6589 18.1693C22.8681 18.1655 22.9432 18.2287 22.9921 18.4473C23.1862 19.3356 23.4216 20.2138 23.6182 21.1008C23.6658 21.3131 23.751 21.418 23.9488 21.4988C24.9294 21.8969 25.9062 22.3038 26.8743 22.7283C27.0784 22.818 27.2199 22.7852 27.3902 22.6778C28.1304 22.2128 28.8793 21.7629 29.6144 21.2916C29.8398 21.1463 29.9901 21.1147 30.193 21.3447C30.5561 21.7554 30.9431 22.1496 31.3514 22.5135C31.5843 22.7207 31.5442 22.8736 31.404 23.0986C30.9544 23.815 30.5311 24.5479 30.0765 25.2618C29.9275 25.4956 29.8924 25.6902 30.0076 25.9543C30.4046 26.8729 30.7803 27.8017 31.1573 28.7304C31.2499 28.9604 31.3539 29.1019 31.6382 29.16C32.506 29.3369 33.3589 29.5846 34.223 29.7792C34.4359 29.8272 34.5047 29.903 34.501 30.1153C34.4897 30.7294 34.4885 31.3448 34.5022 31.9589C34.5072 32.1838 34.4146 32.2382 34.2129 32.2849C33.3488 32.482 32.4948 32.7221 31.6281 32.9079C31.3739 32.9622 31.2625 33.0759 31.1723 33.2996C30.7903 34.2586 30.3996 35.2152 29.9951 36.1654C29.9037 36.379 29.9137 36.5357 30.0352 36.729C30.5086 37.4859 30.9544 38.2605 31.434 39.0123C31.5718 39.2284 31.558 39.3472 31.3764 39.519C30.9544 39.917 30.5474 40.3315 30.1516 40.7561C29.9951 40.9229 29.8849 40.938 29.687 40.8117C28.9394 40.3315 28.1717 39.8817 27.4228 39.4015C27.2149 39.2675 27.0484 39.2536 26.8217 39.3522C25.8812 39.7629 24.9332 40.1597 23.9827 40.5476C23.776 40.6322 23.6671 40.7333 23.6157 40.9709C23.4266 41.844 23.1849 42.7045 23.0008 43.5789C22.9445 43.8468 22.8405 43.8986 22.6013 43.8936C22.024 43.8797 21.4454 43.8797 20.8681 43.8936C20.6352 43.8999 20.56 43.8228 20.5099 43.5891C20.3208 42.7159 20.0842 41.8541 19.8913 40.981C19.8412 40.7523 19.7548 40.6348 19.5381 40.5476C18.5726 40.1597 17.6108 39.7591 16.6565 39.3421C16.4399 39.2473 16.2883 39.2751 16.0992 39.3952C15.3478 39.8728 14.5877 40.334 13.83 40.8003C13.7486 40.8521 13.6685 40.8976 13.572 40.9545Z" fill="white"/>
<path d="M30.706 19.7564C30.567 19.5946 30.4756 19.5062 30.4055 19.4038C30.2414 19.1688 30.0811 19.2016 29.8594 19.3432C29.0179 19.8814 28.1575 20.3894 27.3185 20.9315C27.0793 21.0869 26.8751 21.116 26.641 20.9694C26.6272 20.9606 26.6134 20.9542 26.5996 20.9479C26.0649 20.7003 25.3511 20.6472 25.0255 20.2024C24.7023 19.7601 24.7023 19.0765 24.5621 18.4978C24.4406 17.9949 24.2978 17.4958 24.2077 16.9878C24.1626 16.7326 24.0749 16.653 23.8195 16.6555C22.4456 16.6669 21.0706 16.6656 19.6968 16.6567C19.4551 16.6555 19.3561 16.7098 19.2985 16.9752C19.0806 17.9861 18.8114 18.9856 18.586 19.9939C18.5371 20.21 18.452 20.3326 18.2516 20.3882C18.2366 20.3919 18.2253 20.4058 18.2115 20.4122C17.6354 20.6409 17.0594 20.8683 16.482 21.097C15.7782 20.6624 15.0782 20.2239 14.3706 19.798C14.2466 19.7235 14.2642 19.6249 14.2554 19.5188C14.1039 17.5286 14.9592 16.0869 16.7738 15.2756C17.6968 14.8624 18.6185 14.4492 19.5415 14.036C20.5283 13.5938 20.9666 12.8344 21.0217 11.7401C21.0693 10.7798 20.874 9.96221 20.2566 9.22174C19.6592 8.50528 19.4601 7.64604 19.4989 6.71224C19.5327 5.89469 19.4488 5.06703 19.539 4.25707C19.7143 2.68136 20.9566 1.56687 22.4569 1.53781C23.9472 1.50874 25.2346 2.5828 25.445 4.16609C25.5965 5.30206 25.5464 6.46205 25.455 7.60813C25.3849 8.49896 24.775 9.13708 24.3404 9.85607C23.599 11.0843 23.8971 13.5458 25.5013 14.0727C26.4418 14.381 27.326 14.8662 28.2327 15.2782C30.1162 16.1361 30.9089 17.5362 30.706 19.7564Z" fill="white"/>
<path d="M13.5049 31.0099C13.5024 26.4104 17.1917 22.7131 21.784 22.7131C26.2974 22.7131 29.9943 26.4344 29.9968 30.9846C30.0006 35.641 26.335 39.356 21.7402 39.3522C17.168 39.3484 13.5074 35.6397 13.5049 31.0099Z" fill="#457DC3"/>
<path d="M28.4972 31.063C28.496 34.7426 25.4415 37.8296 21.791 37.841C18.0803 37.8523 15.0046 34.7742 15.0059 31.0504C15.0084 27.2798 18.0628 24.2143 21.8048 24.227C25.4716 24.2383 28.4972 27.3304 28.4972 31.063Z" fill="white"/>
<path d="M21.7509 36.3271C21.0947 36.3271 20.4397 36.3183 19.7835 36.3322C19.5581 36.3372 19.493 36.2703 19.4967 36.0428C19.5093 35.2404 19.4905 34.4368 19.508 33.6332C19.5143 33.3653 19.4379 33.2895 19.1724 33.2958C18.3922 33.3135 17.6107 33.2907 16.8305 33.3084C16.565 33.3147 16.4937 33.2364 16.4962 32.9698C16.5099 31.6784 16.5099 30.387 16.4962 29.0956C16.4937 28.829 16.565 28.7519 16.8305 28.7569C17.6107 28.7746 18.3922 28.7519 19.1724 28.7696C19.4379 28.7759 19.513 28.6988 19.5068 28.4309C19.4892 27.6437 19.5118 26.8565 19.4942 26.0693C19.488 25.8014 19.5656 25.7293 19.8299 25.7319C21.1097 25.7458 22.3896 25.7458 23.6695 25.7319C23.9337 25.7293 24.0101 25.8014 24.0051 26.0693C23.9876 26.8565 24.0101 27.6437 23.9926 28.4309C23.9863 28.6988 24.0627 28.7746 24.3282 28.7683C25.1084 28.7506 25.8899 28.7734 26.6701 28.7557C26.9356 28.7493 27.007 28.8277 27.0045 29.0943C26.9907 30.3857 26.9907 31.6771 27.0045 32.9685C27.007 33.2351 26.9356 33.3122 26.6701 33.3071C25.8899 33.2895 25.1084 33.3122 24.3282 33.2945C24.0627 33.2882 23.9876 33.3653 23.9939 33.6332C24.0114 34.4204 23.9889 35.2076 24.0064 35.9948C24.0126 36.2627 23.9363 36.3398 23.6708 36.3322C23.0321 36.3145 22.3909 36.3271 21.7509 36.3271Z" fill="#457DC3"/>
<path d="M22.501 28.7203C22.501 29.1449 22.5135 29.5707 22.496 29.9953C22.486 30.2278 22.5661 30.2847 22.7865 30.2809C23.5817 30.2682 24.3782 30.2872 25.1747 30.2695C25.4452 30.2632 25.5041 30.3491 25.5066 30.6107C25.5191 31.7883 25.5279 31.7883 24.372 31.7883C23.841 31.7883 23.31 31.7997 22.7803 31.7833C22.5498 31.7757 22.4935 31.8541 22.4972 32.0764C22.5097 32.8788 22.491 33.6825 22.5085 34.4849C22.5148 34.7578 22.4296 34.8172 22.1704 34.8197C21.0032 34.8324 21.0032 34.8412 21.0032 33.6749C21.0032 33.1391 20.9919 32.6034 21.0082 32.0689C21.0157 31.8364 20.9381 31.7795 20.7177 31.7833C19.9224 31.7959 19.126 31.777 18.3295 31.7947C18.059 31.801 18.0001 31.7151 17.9976 31.4535C17.9851 30.2758 17.9763 30.2758 19.1322 30.2758C19.6632 30.2758 20.1942 30.2644 20.7239 30.2809C20.9544 30.2885 21.0107 30.2101 21.007 29.9877C20.9944 29.1853 21.0132 28.3817 20.9957 27.5793C20.9894 27.3064 21.0746 27.247 21.3338 27.2444C22.501 27.2318 22.501 27.223 22.501 28.3893C22.501 28.5005 22.501 28.6104 22.501 28.7203Z" fill="white"/>
</g>
<defs>
<clipPath id="clip0_266_2989">
<rect width="45" height="46" fill="white"/>
</clipPath>
</defs>
</svg>
