<svg width="52" height="52" viewBox="0 0 52 52" fill="none" xmlns="http://www.w3.org/2000/svg">
<path d="M19.4996 34.125L21.3538 33.5067L21.1701 31.3991L19.4996 30.0625L17.8291 31.3991L17.6455 33.5067L19.4996 34.125Z" fill="#007FE9"/>
<path d="M15.4375 33.3125L12.1875 28.4375L8.58813 29.3394C6.83057 29.7785 5.27037 30.7928 4.15582 32.221C3.04128 33.6491 2.43642 35.409 2.4375 37.2206V49.5625H16.25L17.6459 33.5067L17.8295 31.3991L15.4375 33.3125Z" fill="#BDDBFF"/>
<path d="M19.5 34.125L17.6459 33.5067L16.25 49.5625H19.5H22.75L21.3541 33.5067L19.5 34.125Z" fill="#018CFF"/>
<path d="M30.4123 29.3394L26.8129 28.4375L23.5629 33.3125L21.1709 31.3991L21.3545 33.5067L22.7504 49.5625H36.5629V37.2206C36.564 35.409 35.9591 33.6491 34.8446 32.221C33.73 30.7928 32.1698 29.7785 30.4123 29.3394Z" fill="#BDDBFF"/>
<path d="M10.5625 13H9.75C9.31942 13.0013 8.90684 13.1729 8.60237 13.4774C8.2979 13.7818 8.12629 14.1944 8.125 14.625V17.0625C8.12629 17.4931 8.2979 17.9057 8.60237 18.2101C8.90684 18.5146 9.31942 18.6862 9.75 18.6875H13V13H10.5625Z" fill="#018CFF"/>
<path d="M13 13H11.375V18.6875H13V13Z" fill="#007FE9"/>
<path d="M13 11.375C13 10.944 13.1712 10.5307 13.476 10.226C13.7807 9.92121 14.194 9.75 14.625 9.75H24.375C24.806 9.75 25.2193 9.92121 25.524 10.226C25.8288 10.5307 26 10.944 26 11.375V13H28.4375V7.3125C28.4375 6.01957 27.9239 4.77959 27.0096 3.86535C26.0954 2.95111 24.8554 2.4375 23.5625 2.4375H20.3125C19.4505 2.4375 18.6239 2.77991 18.0144 3.3894C17.4049 3.9989 17.0625 4.82555 17.0625 5.6875C17.0625 5.25652 16.8913 4.8432 16.5865 4.53845C16.2818 4.2337 15.8685 4.0625 15.4375 4.0625H13.8125C12.9505 4.0625 12.1239 4.40491 11.5144 5.0144C10.9049 5.6239 10.5625 6.45055 10.5625 7.3125V13H13V11.375Z" fill="#58595B"/>
<path d="M19.5 30.0624L23.5625 27.6249V24.5699C22.4108 25.4955 20.9775 26 19.5 26C18.0225 26 16.5892 25.4955 15.4375 24.5699V27.6249L19.5 30.0624Z" fill="#FFA791"/>
<path d="M19.5 30.0625L15.4375 27.625L12.1875 28.4375L15.4375 33.3125L19.5 30.0625Z" fill="#57A4FF"/>
<path d="M23.5625 33.3125L26.8125 28.4375L23.5625 27.625L19.5 30.0625L23.5625 33.3125Z" fill="#57A4FF"/>
<path d="M26 11.375V19.5C26 21.2239 25.3152 22.8772 24.0962 24.0962C22.8772 25.3152 21.2239 26 19.5 26C17.7761 26 16.1228 25.3152 14.9038 24.0962C13.6848 22.8772 13 21.2239 13 19.5V11.375C13.0013 10.9444 13.1729 10.5318 13.4774 10.2274C13.7818 9.9229 14.1944 9.75129 14.625 9.75H24.375C24.8056 9.75129 25.2182 9.9229 25.5226 10.2274C25.8271 10.5318 25.9987 10.9444 26 11.375Z" fill="#FFA791"/>
<path d="M49.5625 10.5625C49.5626 12.4737 48.889 14.3238 47.6601 15.7876C46.4311 17.2513 44.7255 18.235 42.8431 18.5656L36.5625 22.75L37.7975 17.8181C36.5039 17.1699 35.4068 16.1879 34.6198 14.9738C33.8327 13.7597 33.3841 12.3574 33.3204 10.9118C33.2567 9.46629 33.5801 8.02996 34.2574 6.75129C34.9346 5.47261 35.941 4.39798 37.1725 3.63846C38.4041 2.87893 39.8162 2.46207 41.2628 2.43096C42.7094 2.39984 44.1381 2.7556 45.4011 3.46147C46.6642 4.16733 47.7159 5.1977 48.4475 6.44607C49.1791 7.69444 49.564 9.11553 49.5625 10.5625Z" fill="#BDDBFF"/>
<path d="M41.4375 2.4375C41.1661 2.43775 40.895 2.45158 40.625 2.47894C42.5783 2.6746 44.3947 3.57085 45.7385 5.00199C47.0822 6.43312 47.8623 8.30236 47.9347 10.2641C48.007 12.2259 47.3666 14.1475 46.1319 15.6737C44.8972 17.1999 43.1517 18.2275 41.2181 18.5664L36.8875 21.45L36.5625 22.75L42.8431 18.5656C44.846 18.2148 46.6445 17.1256 47.8835 15.5133C49.1226 13.901 49.712 11.8828 49.5354 9.85705C49.3589 7.83134 48.4292 5.94546 46.93 4.57181C45.4307 3.19816 43.4709 2.43659 41.4375 2.4375Z" fill="#9BC9FF"/>
<path d="M43.0625 5.6875H39.8125V8.9375H36.5625V12.1875H39.8125V15.4375H43.0625V12.1875H46.3125V8.9375H43.0625V5.6875Z" fill="#F25E64"/>
<path d="M19.5 25.9999C18.0223 26.0012 16.5886 25.4966 15.4375 24.5699V26.1949C16.5892 27.1205 18.0225 27.625 19.5 27.625C20.9775 27.625 22.4108 27.1205 23.5625 26.1949V24.5699C22.4114 25.4966 20.9777 26.0012 19.5 25.9999Z" fill="#FF9478"/>
<path d="M23.5625 2.4375H20.3125C19.4505 2.4375 18.6239 2.77991 18.0144 3.3894C17.4049 3.9989 17.0625 4.82555 17.0625 5.6875V9.75H24.375C24.806 9.75 25.2193 9.92121 25.524 10.226C25.8288 10.5307 26 10.944 26 11.375V13H28.4375V7.3125C28.4375 6.01957 27.9239 4.77959 27.0096 3.86535C26.0954 2.95111 24.8554 2.4375 23.5625 2.4375Z" fill="#4F5052"/>
<path d="M17.0625 16.25C17.278 16.25 17.4847 16.1644 17.637 16.012C17.7894 15.8597 17.875 15.653 17.875 15.4375V14.625C17.875 14.4095 17.7894 14.2028 17.637 14.0505C17.4847 13.8981 17.278 13.8125 17.0625 13.8125C16.847 13.8125 16.6403 13.8981 16.488 14.0505C16.3356 14.2028 16.25 14.4095 16.25 14.625V15.4375C16.25 15.653 16.3356 15.8597 16.488 16.012C16.6403 16.1644 16.847 16.25 17.0625 16.25Z" fill="#58595B"/>
<path d="M21.9375 16.25C22.153 16.25 22.3597 16.1644 22.512 16.012C22.6644 15.8597 22.75 15.653 22.75 15.4375V14.625C22.75 14.4095 22.6644 14.2028 22.512 14.0505C22.3597 13.8981 22.153 13.8125 21.9375 13.8125C21.722 13.8125 21.5153 13.8981 21.363 14.0505C21.2106 14.2028 21.125 14.4095 21.125 14.625V15.4375C21.125 15.653 21.2106 15.8597 21.363 16.012C21.5153 16.1644 21.722 16.25 21.9375 16.25Z" fill="#58595B"/>
<path d="M26.8125 22.75H21.125C20.9095 22.75 20.7028 22.6644 20.5505 22.512C20.3981 22.3597 20.3125 22.153 20.3125 21.9375C20.3125 21.722 20.3981 21.5153 20.5505 21.363C20.7028 21.2106 20.9095 21.125 21.125 21.125H26.8125C27.028 21.125 27.2347 21.0394 27.387 20.887C27.5394 20.7347 27.625 20.528 27.625 20.3125V17.875C27.625 17.6595 27.7106 17.4528 27.863 17.3005C28.0153 17.1481 28.222 17.0625 28.4375 17.0625C28.653 17.0625 28.8597 17.1481 29.012 17.3005C29.1644 17.4528 29.25 17.6595 29.25 17.875V20.3125C29.25 20.959 28.9932 21.579 28.5361 22.0361C28.079 22.4932 27.459 22.75 26.8125 22.75Z" fill="#018CFF"/>
<path d="M29.25 39C29.4655 39 29.6722 39.0856 29.8245 39.238C29.9769 39.3903 30.0625 39.597 30.0625 39.8125V49.5625H28.4375V39.8125C28.4375 39.597 28.5231 39.3903 28.6755 39.238C28.8278 39.0856 29.0345 39 29.25 39Z" fill="#9BC9FF"/>
<path d="M9.75 39C9.96549 39 10.1722 39.0856 10.3245 39.238C10.4769 39.3903 10.5625 39.597 10.5625 39.8125V49.5625H8.9375V39.8125C8.9375 39.597 9.0231 39.3903 9.17548 39.238C9.32785 39.0856 9.53451 39 9.75 39Z" fill="#9BC9FF"/>
<path d="M20.3125 20.3125H18.6875C18.2565 20.3125 17.8432 20.4837 17.5385 20.7885C17.2337 21.0932 17.0625 21.5065 17.0625 21.9375C17.0625 22.3685 17.2337 22.7818 17.5385 23.0865C17.8432 23.3913 18.2565 23.5625 18.6875 23.5625H20.3125C20.7435 23.5625 21.1568 23.3913 21.4615 23.0865C21.7663 22.7818 21.9375 22.3685 21.9375 21.9375C21.9375 21.5065 21.7663 21.0932 21.4615 20.7885C21.1568 20.4837 20.7435 20.3125 20.3125 20.3125Z" fill="#018CFF"/>
<path d="M26 18.6875H29.25C29.6806 18.6862 30.0932 18.5146 30.3976 18.2101C30.7021 17.9057 30.8737 17.4931 30.875 17.0625V14.625C30.8737 14.1944 30.7021 13.7818 30.3976 13.4774C30.0932 13.1729 29.6806 13.0013 29.25 13H26V18.6875Z" fill="#018CFF"/>
<path d="M27.625 13H26V18.6875H27.625V13Z" fill="#007FE9"/>
</svg>
