<svg width="46" height="46" viewBox="0 0 46 46" fill="none" xmlns="http://www.w3.org/2000/svg">
<g clip-path="url(#clip0_266_3101)">
<path d="M38.0634 8.73799C38.0634 9.77992 38.066 10.7848 38.0634 11.7897C38.0607 12.8475 37.4319 13.475 36.3768 13.475C30.6324 13.4763 24.8867 13.4763 19.1423 13.475C18.0872 13.475 17.4649 12.8475 17.4623 11.7844C17.4596 10.8933 17.4438 10.001 17.4702 9.11001C17.4808 8.77109 17.3656 8.67312 17.0559 8.71813C16.9751 8.73004 16.8904 8.71813 16.8083 8.72078C16.5144 8.73005 16.1516 8.63869 15.9451 8.77771C15.7439 8.91407 15.9027 9.29801 15.8749 9.57207C15.8313 9.9891 15.5956 10.2234 15.1945 10.3016C15.0171 10.336 14.8357 10.3572 14.657 10.3876C14.4849 10.4181 14.2982 10.3638 14.0837 10.4962C14.2796 10.7477 14.4703 10.9873 14.6543 11.231C15.0157 11.7102 15.0051 12.0862 14.5947 12.5046C13.9129 13.1996 13.2245 13.8894 12.5295 14.5712C12.1085 14.9843 11.7312 14.9936 11.2559 14.6321C11.0123 14.4468 10.7727 14.2548 10.4814 14.0258C10.4218 14.46 10.3848 14.8148 10.3225 15.1657C10.2471 15.592 9.99023 15.8449 9.54805 15.8488C8.49159 15.8581 7.43512 15.8554 6.37865 15.8501C5.91529 15.8475 5.64654 15.5973 5.57505 15.1432C5.52077 14.8042 5.48105 14.4627 5.4228 14.035C5.14611 14.2482 4.90781 14.4349 4.66686 14.6162C4.15054 15.0068 3.78647 14.9843 3.32046 14.5222C2.66381 13.8722 2.0098 13.2182 1.35977 12.5615C0.881846 12.0783 0.868607 11.7274 1.2949 11.1767C1.46436 10.9569 1.63249 10.7371 1.84432 10.4631C1.43921 10.4048 1.0897 10.3585 0.741514 10.3042C0.287418 10.2327 0.0345544 9.96792 0.0319066 9.50455C0.0252871 8.46393 0.0239632 7.42465 0.0319066 6.38404C0.0358783 5.89154 0.275503 5.63072 0.758724 5.54996C0.93745 5.51951 1.1175 5.49303 1.29622 5.46391C1.45377 5.43743 1.62323 5.48641 1.82181 5.36064C1.60866 5.08526 1.39419 4.82312 1.19693 4.54907C0.904352 4.14527 0.920239 3.74677 1.26842 3.39063C1.97141 2.67041 2.68499 1.95814 3.40519 1.25513C3.7825 0.887075 4.16907 0.876483 4.60331 1.19026C4.85617 1.37428 5.10374 1.5636 5.35528 1.74895C5.36455 1.75557 5.38573 1.74631 5.43339 1.74101C5.4784 1.43121 5.52209 1.11214 5.57108 0.7944C5.65713 0.237024 5.90337 0.00798433 6.44882 0.00533647C7.4563 4.07419e-05 8.46246 -0.00128319 9.46994 0.00533647C9.99553 0.00930826 10.2524 0.238348 10.3331 0.754682C10.3834 1.07904 10.4245 1.40473 10.4748 1.76484C10.8005 1.65496 11.0136 1.40076 11.2704 1.21276C11.7457 0.865892 12.1191 0.876483 12.5427 1.29352C13.2377 1.97535 13.9275 2.66379 14.608 3.36018C14.9985 3.75868 15.0131 4.14262 14.6795 4.59541C14.4941 4.84563 14.2995 5.08923 14.0678 5.38844C14.416 5.44272 14.7139 5.48774 15.0118 5.5354C15.6922 5.64396 15.9147 5.86109 15.8657 6.54291C15.8286 7.04998 15.9848 7.17045 16.4773 7.14927C17.4623 7.10691 17.4636 7.13603 17.4636 6.14044C17.4636 5.4136 17.457 4.68808 17.4649 3.96124C17.4755 3.03449 18.1295 2.38312 19.0576 2.38179C24.8681 2.37915 30.68 2.37915 36.4906 2.38179C37.3869 2.38179 38.0528 3.03582 38.0634 3.93079C38.0753 4.87211 38.0753 5.81342 38.0607 6.75342C38.0568 7.02217 38.0912 7.12941 38.4142 7.17045C42.0854 7.62589 44.7822 9.91364 45.7142 13.3228C47.0156 18.0876 43.7839 22.9967 38.8855 23.6865C37.4398 23.8904 35.9849 23.7448 34.5352 23.7686C34.2016 23.7739 34.0851 23.8321 34.0957 24.1922C34.1248 25.0991 34.1102 26.0087 34.1036 26.9156C34.097 27.8662 33.4364 28.5308 32.4858 28.5308C26.6912 28.5334 20.8965 28.5334 15.1031 28.5308C14.1804 28.5308 13.5118 27.8635 13.5052 26.946C13.4972 26.0047 13.5038 25.0634 13.5038 24.1234C13.5038 23.9486 13.5568 23.7646 13.2536 23.7726C11.3075 23.8282 9.35741 23.66 7.41658 23.8692C4.53447 24.1803 2.09321 26.7051 1.68942 29.5873C1.21812 32.9474 3.46211 36.3989 7.1015 37.1165C7.9607 37.2859 7.95806 37.2978 7.95806 36.4492C7.95806 35.6562 7.95144 34.8645 7.95938 34.0714C7.96865 33.1831 8.63589 32.4986 9.51893 32.4986C15.3467 32.4933 21.1745 32.4933 27.0009 32.4986C27.8853 32.4999 28.5499 33.1804 28.5592 34.0727C28.5684 34.9968 28.5737 35.9223 28.5539 36.8464C28.5472 37.1575 28.6121 37.2886 28.951 37.2581C29.327 37.2237 29.7771 37.3654 30.0697 37.2038C30.3875 37.0291 30.263 36.5194 30.3477 36.1606C31.1765 32.6601 34.4147 30.1182 38.07 30.1182C41.7279 30.1195 44.9688 32.6588 45.7843 36.1632C46.8805 40.8725 43.7217 45.3606 38.8974 45.9471C34.8026 46.4449 30.8243 43.3826 30.2458 39.2798C30.1995 38.9514 30.1055 38.8151 29.7282 38.823C28.5605 38.8495 28.5592 38.8283 28.5592 39.996C28.5592 40.6725 28.5658 41.3504 28.5565 42.0269C28.5446 42.9126 27.8747 43.5878 26.9851 43.5878C21.1745 43.5918 15.3626 43.5918 9.55203 43.5878C8.62927 43.5878 7.96468 42.9193 7.95673 42.0004C7.94879 41.0591 7.94482 40.1178 7.96203 39.1778C7.96732 38.9038 7.88921 38.8389 7.61649 38.8045C3.75072 38.3133 1.02747 35.8733 0.192098 32.1795C-0.832596 27.6504 2.47317 22.8868 7.07634 22.2937C8.93244 22.0541 10.8018 22.2434 12.6645 22.1931C12.83 22.1891 12.9968 22.1759 13.1596 22.1958C13.4482 22.2328 13.5144 22.1123 13.5091 21.8396C13.4933 20.9155 13.4986 19.9901 13.5038 19.066C13.5091 18.1127 14.1671 17.4402 15.1097 17.4389C20.9044 17.4349 26.6991 17.4349 32.4925 17.4389C33.4417 17.4389 34.0983 18.1061 34.1036 19.0607C34.1089 20.002 34.1063 20.9433 34.1036 21.8833C34.1036 22.0541 34.0798 22.2063 34.3433 22.1958C35.9544 22.1269 37.5788 22.352 39.1794 22.0025C42.2045 21.3418 44.43 18.5311 44.4062 15.4066C44.3823 12.3033 42.141 9.54161 39.1265 8.90745C38.7862 8.83861 38.446 8.79889 38.0634 8.73799Z" fill="#457DC3"/>
<path d="M23.7994 19.0236C26.5558 19.0236 29.3121 19.0316 32.0685 19.0143C32.4378 19.0117 32.5279 19.0991 32.5252 19.4698C32.5067 21.8145 32.5067 24.1578 32.5252 26.5025C32.5279 26.8732 32.4378 26.9593 32.0685 26.9579C26.5558 26.9447 21.0418 26.9447 15.5291 26.9579C15.1597 26.9593 15.0697 26.8732 15.0723 26.5025C15.0909 24.1578 15.0909 21.8145 15.0723 19.4698C15.0697 19.0991 15.1597 19.0117 15.5291 19.0143C18.2854 19.0316 21.0431 19.0236 23.7994 19.0236Z" fill="#F7FAFC"/>
<path d="M18.3015 34.0807C21.042 34.0807 23.7811 34.0887 26.5216 34.0715C26.891 34.0688 26.981 34.1575 26.9783 34.5282C26.9598 36.8729 26.9598 39.2163 26.9783 41.5609C26.981 41.933 26.8896 42.0177 26.5216 42.0164C21.0089 42.0031 15.4949 42.0031 9.98219 42.0164C9.61282 42.0177 9.5228 41.9317 9.52545 41.5609C9.54398 39.2163 9.54398 36.8729 9.52545 34.5282C9.5228 34.1575 9.61282 34.0701 9.98219 34.0728C12.7557 34.0887 15.5293 34.0807 18.3015 34.0807Z" fill="#F7FAFC"/>
<path d="M27.7408 3.9652C30.5131 3.9652 33.2853 3.97182 36.0575 3.95593C36.407 3.95328 36.4891 4.04198 36.4865 4.38753C36.4693 6.74678 36.4679 9.10735 36.4825 11.4666C36.4851 11.8148 36.3951 11.8982 36.0496 11.8969C30.5223 11.885 24.9937 11.885 19.4665 11.8969C19.1196 11.8982 19.0336 11.8148 19.0349 11.4666C19.0402 9.10735 19.0283 6.74678 18.9992 4.38753C18.9952 4.04066 19.0773 3.95328 19.4255 3.9546C22.1964 3.97182 24.9686 3.9652 27.7408 3.9652Z" fill="#F7FAFC"/>
<path d="M38.0211 44.3836C34.5591 44.3571 31.7088 41.4736 31.7247 38.0141C31.7406 34.5362 34.6558 31.6632 38.1283 31.7043C41.5917 31.7453 44.4327 34.6408 44.401 38.0976C44.3692 41.5583 41.4738 44.4101 38.0211 44.3836Z" fill="white"/>
<path d="M4.16632 9.8528C4.1597 9.41723 3.83005 9.08492 3.36801 9.02269C2.87817 8.9565 2.38965 8.87309 1.89849 8.83867C1.65357 8.82146 1.58605 8.7407 1.60856 8.5143C1.62577 8.33425 1.61253 8.15155 1.61253 7.97017C1.61253 7.01032 1.61253 7.01297 2.55249 6.93485C2.83051 6.91102 3.10853 6.87263 3.38522 6.83291C4.07762 6.73229 4.37417 6.09283 3.97435 5.51957C3.68177 5.10121 3.36007 4.70271 3.03439 4.30817C2.88876 4.13341 2.88214 4.01956 3.05689 3.86068C3.39846 3.55088 3.67648 3.0319 4.06041 2.94452C4.46552 2.85185 4.78193 3.42246 5.16056 3.66871C5.28501 3.74947 5.39224 3.85407 5.51404 3.93747C6.11774 4.35054 6.7585 4.06854 6.85647 3.34568C6.92399 2.85582 7.00607 2.36729 7.04049 1.87479C7.0577 1.62986 7.13978 1.55175 7.36484 1.58749C7.38073 1.59014 7.39794 1.58749 7.41383 1.58749C7.85998 1.58882 8.4041 1.43392 8.72316 1.63648C9.05281 1.84566 8.93631 2.44275 8.9694 2.87436C9.08723 4.38099 9.96497 4.4313 10.8387 3.60119C11.13 3.32449 11.4623 2.88362 11.8184 2.93128C12.1335 2.97365 12.3745 3.45291 12.6829 3.69652C13.0139 3.95866 13.0338 4.17313 12.7385 4.48161C12.4552 4.77817 12.2169 5.11974 11.9733 5.45073C11.5033 6.08886 11.7986 6.74686 12.581 6.83688C13.006 6.88587 13.4283 6.98516 13.8532 6.99575C14.2239 7.00502 14.3484 7.13477 14.2915 7.48958C14.2689 7.63389 14.2875 7.78614 14.2875 7.93442C14.2875 8.83999 14.2875 8.83867 13.3991 8.91943C13.1039 8.94723 12.81 8.98165 12.5161 9.02269C11.8237 9.11934 11.5245 9.7641 11.9243 10.3347C12.2169 10.7531 12.5413 11.1503 12.8656 11.5448C13.0073 11.7169 13.0245 11.8321 12.8458 11.9936C12.5042 12.3034 12.2262 12.8224 11.8436 12.9111C11.4398 13.0038 11.1207 12.4371 10.7421 12.1895C10.619 12.1088 10.5104 12.0042 10.3886 11.9208C9.78757 11.5051 9.14283 11.7884 9.04354 12.5086C8.97602 12.9985 8.89394 13.487 8.85952 13.9795C8.84231 14.2231 8.76155 14.3039 8.53517 14.2681C8.51928 14.2655 8.50207 14.2681 8.48618 14.2681C8.04003 14.2668 7.49723 14.4217 7.17685 14.2204C6.84588 14.0113 6.96503 13.4142 6.92928 12.9839C6.80616 11.4799 5.95093 11.4217 5.06127 12.2557C4.76736 12.5311 4.43904 12.9746 4.08159 12.927C3.7665 12.8846 3.52423 12.4067 3.21576 12.1631C2.88744 11.9022 2.86096 11.6878 3.15751 11.3766C3.44082 11.0801 3.67251 10.7332 3.92537 10.4089C4.06305 10.2354 4.15043 10.0434 4.16632 9.8528Z" fill="white"/>
<path d="M27.7278 23.7778C26.9692 23.7778 26.2106 23.7831 25.452 23.7765C24.9145 23.7712 24.5888 23.4601 24.5928 22.9769C24.5981 22.4963 24.9225 22.1971 25.4706 22.1957C27.0036 22.1904 28.538 22.1904 30.0711 22.1957C30.6099 22.1984 30.9356 22.5122 30.9303 22.9954C30.925 23.4733 30.5967 23.7739 30.0525 23.7778C29.2767 23.7831 28.5023 23.7778 27.7278 23.7778Z" fill="#457DC3"/>
<path d="M17.8529 22.1931C18.7108 22.1931 19.0576 22.4301 19.0444 23.0073C19.0311 23.5607 18.6975 23.7792 17.8595 23.7792C17.0016 23.7792 16.6561 23.5422 16.6693 22.965C16.6812 22.4089 17.0122 22.1931 17.8529 22.1931Z" fill="#457DC3"/>
<path d="M21.7664 23.7752C21.6181 23.7752 21.4685 23.7884 21.3216 23.7725C20.9019 23.7262 20.612 23.3846 20.6318 22.9583C20.653 22.5188 20.8966 22.2513 21.3269 22.2023C21.6353 22.1666 21.9531 22.1812 22.2642 22.1984C22.6984 22.2222 22.995 22.5399 23.0056 22.9636C23.0162 23.4098 22.7143 23.7434 22.2602 23.7752C22.096 23.7871 21.9306 23.7765 21.7664 23.7765V23.7752Z" fill="#457DC3"/>
<path d="M14.2957 37.2516C15.0543 37.2516 15.8129 37.2476 16.5715 37.2529C17.1209 37.2568 17.4492 37.5481 17.4598 38.0247C17.4704 38.5278 17.1381 38.8336 16.5609 38.835C15.0437 38.8389 13.5265 38.8389 12.0093 38.835C11.4599 38.8336 11.1316 38.5397 11.1223 38.0631C11.1117 37.5614 11.4427 37.2568 12.0199 37.2529C12.7785 37.2476 13.5371 37.2516 14.2957 37.2516Z" fill="#457DC3"/>
<path d="M20.2569 37.2555C20.4211 37.2555 20.5905 37.2303 20.7494 37.2608C21.1744 37.3389 21.4166 37.6024 21.418 38.0432C21.4193 38.4841 21.1783 38.7621 20.7521 38.823C20.4449 38.8667 20.1272 38.8455 19.8147 38.8323C19.3527 38.8124 19.0469 38.4894 19.0469 38.0446C19.0469 37.5984 19.3514 37.282 19.8134 37.2542C19.9617 37.2449 20.11 37.2528 20.2582 37.2528C20.2569 37.2528 20.2569 37.2542 20.2569 37.2555Z" fill="#457DC3"/>
<path d="M24.151 38.8297C23.9869 38.8297 23.8161 38.8588 23.6586 38.8244C23.2389 38.733 22.9993 38.4669 23.0112 38.0234C23.0231 37.5825 23.268 37.3151 23.6969 37.2608C23.9882 37.2238 24.2887 37.2423 24.5853 37.2529C25.0764 37.2701 25.3929 37.5984 25.3836 38.0618C25.3743 38.504 25.0645 38.8098 24.5959 38.8337C24.4476 38.8416 24.2993 38.835 24.151 38.835C24.151 38.8337 24.151 38.8323 24.151 38.8297Z" fill="#457DC3"/>
<path d="M23.4038 8.7208C22.5128 8.7208 21.6232 8.72477 20.7322 8.71948C20.1589 8.71683 19.8253 8.40703 19.8372 7.90526C19.8491 7.42997 20.1775 7.1387 20.7282 7.13738C22.5088 7.13341 24.2908 7.13341 26.0714 7.13738C26.646 7.1387 26.9783 7.44983 26.9664 7.9516C26.9545 8.42821 26.6261 8.71683 26.0741 8.71948C25.1858 8.72345 24.2948 8.7208 23.4038 8.7208Z" fill="#457DC3"/>
<path d="M29.7079 8.71548C29.5438 8.71548 29.373 8.74196 29.2154 8.71018C28.7931 8.62413 28.5508 8.36066 28.5588 7.91847C28.5667 7.48025 28.805 7.20487 29.2353 7.14662C29.5265 7.10822 29.8271 7.12808 30.1236 7.13735C30.6188 7.15324 30.9365 7.47363 30.9312 7.93701C30.9259 8.40038 30.6082 8.70224 30.1038 8.71945C29.9727 8.72342 29.8403 8.72077 29.7079 8.72077C29.7079 8.71813 29.7079 8.7168 29.7079 8.71548Z" fill="#457DC3"/>
<path d="M33.6694 8.71812C33.5212 8.71812 33.3716 8.73004 33.2246 8.71547C32.7996 8.67443 32.5124 8.34345 32.5177 7.91714C32.5229 7.49084 32.8142 7.16912 33.2471 7.14132C33.5265 7.12278 33.8071 7.1294 34.0865 7.13867C34.5816 7.15588 34.898 7.47627 34.8927 7.93965C34.8874 8.4017 34.5684 8.70356 34.0653 8.72077C33.9342 8.72474 33.8018 8.72209 33.6694 8.72209C33.6694 8.71944 33.6694 8.71945 33.6694 8.71812Z" fill="#457DC3"/>
<path d="M37.1989 39.256C38.307 37.9228 39.3806 36.6306 40.4543 35.3385C40.6238 35.1346 40.7919 34.9254 41.0752 34.883C41.434 34.8288 41.7332 34.94 41.9172 35.2617C42.1105 35.5993 42.0589 35.925 41.8126 36.2215C41.0024 37.1973 40.1909 38.1717 39.3793 39.1474C38.916 39.7048 38.4552 40.2648 37.9866 40.8169C37.5338 41.3491 37.0943 41.3716 36.6018 40.8857C35.875 40.1682 35.1521 39.444 34.4333 38.7171C34.0229 38.3027 33.9831 37.8473 34.3101 37.4978C34.6491 37.1364 35.1415 37.1602 35.5639 37.5825C36.112 38.128 36.6468 38.688 37.1989 39.256Z" fill="#457DC3"/>
<path d="M7.95561 4.7583C9.71771 4.75963 11.1184 6.15902 11.121 7.91985C11.1224 9.70583 9.71506 11.1039 7.92251 11.0973C6.16968 11.092 4.77826 9.67936 4.78224 7.91058C4.78488 6.15505 6.19218 4.75698 7.95561 4.7583Z" fill="#457DC3"/>
<path d="M7.94327 6.34561C8.78261 6.34031 9.5187 7.0645 9.53326 7.90785C9.54782 8.76178 8.78791 9.52305 7.934 9.51113C7.092 9.49921 6.36519 8.76178 6.36916 7.92374C6.3718 7.08701 7.10524 6.35091 7.94327 6.34561Z" fill="#F9F9FB"/>
</g>
<defs>
<clipPath id="clip0_266_3101">
<rect width="46" height="46" fill="white"/>
</clipPath>
</defs>
</svg>
