<svg width="52" height="52" viewBox="0 0 52 52" fill="none" xmlns="http://www.w3.org/2000/svg">
<g clip-path="url(#clip0_107_1334)">
<path d="M13.1052 0.115057C13.5832 -0.0126176 14.0739 0.0168458 14.5603 0.0168458C20.8516 0.0168458 27.1415 0.0154428 33.4328 0.0210548C33.6487 0.0210548 33.8898 -0.0701413 34.079 0.124878C34.2711 0.345152 34.2332 0.615934 34.2346 0.874089C34.2402 1.99089 34.229 3.10909 34.2402 4.2259C34.2473 5.01159 34.529 5.29079 35.3182 5.30622C36.6766 5.33428 38.0377 5.26553 39.3961 5.34129C39.6134 5.52369 39.5909 5.78044 39.5909 6.02035C39.5965 11.892 39.5965 17.7636 39.5923 23.6352C39.5923 23.8443 39.5951 24.0561 39.4788 24.2455C39.2517 24.4672 38.9587 24.4209 38.6854 24.4223C37.3046 24.4293 35.9238 24.4209 34.543 24.4265C33.5688 24.4307 33.3137 24.6917 33.2968 25.6822C33.2912 26.0316 33.3024 26.3823 33.2912 26.7317C33.2646 27.6198 32.9197 27.972 32.0408 27.9902C31.3245 28.0056 30.6082 27.9944 29.8904 27.9944C26.7266 27.9944 23.5641 27.9944 20.4002 27.9944C20.1899 27.9944 19.9811 28.0014 19.7708 27.9846C19.1049 27.9299 18.7629 27.5889 18.7138 26.9141C18.683 26.4946 18.7082 26.0751 18.6998 25.6556C18.6802 24.7001 18.4195 24.4321 17.4803 24.4279C16.0995 24.4223 14.7187 24.4293 13.3379 24.4237C13.0632 24.4223 12.773 24.4658 12.5319 24.2708C12.3763 24.0365 12.4043 23.7685 12.4043 23.509C12.4043 16.1403 12.4043 8.77167 12.4057 1.40303C12.4057 0.847432 12.4071 0.291837 13.1052 0.115057Z" fill="#FCE791"/>
<path d="M39.4167 24.2441C39.4195 18.082 39.4223 11.92 39.4237 5.75795C39.4237 5.62326 39.463 5.47595 39.3424 5.36371C39.1111 5.33705 38.9878 5.15325 38.842 5.00874C37.3967 3.56644 35.9529 2.12274 34.5118 0.674825C34.3562 0.519091 34.1487 0.387207 34.1585 0.122037C39.5555 0.119231 44.9524 0.112216 50.3494 0.116425C51.2774 0.117828 51.9096 0.810918 51.9096 1.78742C51.9138 5.70324 51.9124 9.61905 51.911 13.5349C51.9096 21.2795 51.9068 29.0228 51.9054 36.7674C51.7035 36.9512 51.4498 36.9218 51.2101 36.9218C49.0864 36.926 46.9612 36.926 44.8375 36.9232C44.6118 36.9232 44.3819 36.9358 44.1801 36.8025C44.0287 36.5934 44.2067 36.4405 44.2838 36.282C44.5025 35.8344 44.6132 35.3686 44.6118 34.8677C44.6076 31.7601 44.6132 28.651 44.6076 25.5433C44.6062 24.6299 44.4071 24.4335 43.5002 24.4279C42.3829 24.4209 41.2671 24.4307 40.1499 24.4223C39.8975 24.4195 39.62 24.4728 39.4167 24.2441Z" fill="#BDDBFF"/>
<path d="M13.1049 0.115066C12.7797 0.347967 12.5666 0.622958 12.568 1.06491C12.5792 8.79132 12.5792 16.5177 12.582 24.2441C12.3787 24.4728 12.1026 24.4195 11.8475 24.4223C10.7148 24.4307 9.58073 24.4195 8.44808 24.4279C7.60419 24.435 7.39111 24.6412 7.38971 25.483C7.3827 28.6412 7.38691 31.798 7.38691 34.9562C7.38691 35.4206 7.50746 35.8499 7.70652 36.2652C7.78502 36.4293 7.95043 36.5795 7.83128 36.7927C7.6154 36.9456 7.36448 36.9218 7.12337 36.9218C5.02907 36.9246 2.93617 36.926 0.841875 36.9204C0.585345 36.9204 0.313394 36.9611 0.0933107 36.7661C0.0891053 28.282 0.0877035 19.798 0.0848998 11.3139C0.0848998 8.14733 0.0820962 4.98073 0.0863016 1.81552C0.0877035 0.757647 0.726927 0.113663 1.77828 0.11226C5.55475 0.110857 9.32981 0.113663 13.1049 0.115066Z" fill="#BDDBFF"/>
<path d="M0.0921806 36.7675C2.67571 36.766 5.25924 36.7632 7.84277 36.7618C7.97033 36.7618 8.08668 36.8095 8.182 36.8853C8.89693 37.4507 9.72399 37.5433 10.6029 37.5419C20.8165 37.5307 31.0286 37.5307 41.2422 37.5419C42.1884 37.5433 43.0926 37.4802 43.865 36.8572C43.9463 36.7913 44.05 36.7604 44.1594 36.7604C46.7429 36.7618 49.3264 36.7632 51.91 36.766C52.1076 37.2122 51.9282 37.664 51.931 38.1115C51.9366 39.1091 51.938 40.1066 51.931 41.1028C51.9226 42.3178 51.1824 43.0558 49.9628 43.0558C44.5967 43.0586 39.2292 43.0558 33.8631 43.0614C33.6472 43.0614 33.4061 42.9688 33.2169 43.1638C33.0529 43.2452 32.8762 43.2213 32.7024 43.2213C28.2362 43.2171 23.7701 43.2171 19.3039 43.2213C19.1301 43.2213 18.9535 43.2438 18.7895 43.1638C18.6016 42.9688 18.3605 43.0614 18.1446 43.0614C12.8234 43.0558 7.50353 43.0347 2.18368 43.0754C1.07905 43.0838 -0.00874943 42.3613 0.0571355 40.9358C0.111806 39.7545 0.131431 38.5633 0.0178849 37.3792C-0.00594581 37.1757 -0.0213657 36.9597 0.0921806 36.7675Z" fill="#95A5A4"/>
<path d="M35.7627 48.2961C35.9351 48.4602 36.1524 48.4223 36.3585 48.4223C37.3369 48.4237 38.3154 48.4111 39.2939 48.4265C40.0424 48.4392 40.662 48.7282 41.0153 49.4199C41.3447 50.0653 41.2914 50.7092 40.8611 51.2985C40.5471 51.7278 40.1265 51.9888 39.5756 51.9944C39.4186 51.9958 39.2616 52 39.1046 52C30.37 52 21.6339 52 12.8992 51.9986C12.553 51.9986 12.2025 52.0309 11.8675 51.8822C11.1091 51.5468 10.662 50.7247 10.8092 49.9109C10.9619 49.0649 11.6993 48.4518 12.6553 48.4293C13.6506 48.4055 14.6473 48.4237 15.6426 48.4223C15.8486 48.4223 16.0659 48.4602 16.2383 48.2961C16.4781 48.2455 16.722 48.2371 16.9659 48.2371C22.9894 48.2399 29.0116 48.2399 35.0352 48.2371C35.2791 48.2371 35.523 48.2469 35.7627 48.2961Z" fill="#95A5A4"/>
<path d="M35.7631 48.296C35.6159 48.4812 35.4084 48.4111 35.2262 48.4111C29.075 48.4153 22.9253 48.4153 16.7742 48.4111C16.592 48.4111 16.3845 48.4798 16.2373 48.296C17.0868 46.5857 17.9377 44.8755 18.7872 43.1666C18.9694 43.0249 19.1825 43.0572 19.39 43.0572C23.7972 43.0572 28.2045 43.0572 32.6132 43.0572C32.8207 43.0572 33.0337 43.0249 33.216 43.1652C34.0641 44.8755 34.9136 46.5857 35.7631 48.296Z" fill="#557681"/>
<path d="M34.1608 0.120667C35.6817 1.65557 37.2041 3.19047 38.7236 4.72537C38.9325 4.93582 39.1372 5.15048 39.3432 5.36234C39.2998 5.3904 39.2577 5.44231 39.2143 5.44231C37.769 5.44932 36.3237 5.47037 34.8799 5.44371C34.4103 5.43529 34.0738 5.00597 34.0724 4.51772C34.0682 3.05297 34.0767 1.58962 34.0795 0.124876C34.1061 0.124876 34.1341 0.123473 34.1608 0.120667Z" fill="#F3D55B"/>
<path d="M44.1566 36.7619C43.5818 37.382 42.8725 37.6991 42.0244 37.6991C31.3413 37.6991 20.6567 37.6991 9.97355 37.6991C9.12546 37.6991 8.41614 37.382 7.8414 36.7619C7.3774 36.1768 7.20778 35.5118 7.21199 34.7654C7.22881 31.6394 7.2176 28.5135 7.219 25.3862C7.219 24.529 7.48674 24.2638 8.34185 24.2596C9.75487 24.254 11.1679 24.2483 12.5809 24.2427C14.2743 24.2483 15.9677 24.2526 17.6611 24.2582C18.5414 24.261 18.8456 24.5682 18.8512 25.4634C18.854 25.9348 18.8442 26.4076 18.854 26.879C18.868 27.4963 19.1806 27.8288 19.7904 27.8303C23.9285 27.8373 28.0667 27.8373 32.2048 27.8303C32.8132 27.8288 33.1258 27.4963 33.1412 26.879C33.1524 26.4076 33.1412 25.9348 33.144 25.4634C33.1496 24.5682 33.4524 24.2624 34.3341 24.2596C36.0275 24.254 37.7209 24.2484 39.4143 24.2441C40.8455 24.2498 42.2754 24.254 43.7066 24.261C44.493 24.2652 44.7762 24.5458 44.7776 25.3343C44.7804 28.4784 44.7692 31.6212 44.786 34.7654C44.7916 35.5118 44.6206 36.1768 44.1566 36.7619Z" fill="#018CFF"/>
<path d="M26.0245 17.1055C28.8561 17.1055 31.6878 17.1055 34.5208 17.1055C34.696 17.1055 34.8713 17.0999 35.0451 17.1154C35.5189 17.1575 35.781 17.4577 35.8301 17.894C35.8792 18.336 35.6633 18.6657 35.2245 18.8228C35.0044 18.9028 34.7773 18.8888 34.5502 18.8888C28.8519 18.8888 23.1522 18.8888 17.4538 18.8888C17.3487 18.8888 17.2435 18.893 17.1398 18.8874C16.5356 18.8509 16.1347 18.4651 16.1571 17.9474C16.1796 17.4395 16.5609 17.1084 17.1636 17.107C20.1158 17.1027 23.0694 17.1055 26.0245 17.1055Z" fill="#557681"/>
<path d="M25.9741 14.3977C23.1242 14.3977 20.2758 14.3977 17.4259 14.3977C17.2689 14.3977 17.1091 14.4076 16.9549 14.3879C16.4993 14.329 16.146 13.9277 16.1544 13.4928C16.1615 13.0775 16.4965 12.6931 16.9296 12.6257C17.1007 12.5991 17.2787 12.6117 17.4525 12.6103C23.1509 12.6103 28.8492 12.6103 34.5475 12.6103C35.3886 12.6103 35.8372 12.9148 35.847 13.4914C35.8568 14.0835 35.3984 14.3977 34.5223 14.3977C31.6724 14.3977 28.8226 14.3977 25.9741 14.3977Z" fill="#557681"/>
<path d="M29.5679 7.25782C29.5553 7.74327 29.2133 8.08841 28.689 8.10945C28.1998 8.12769 27.7106 8.12629 27.2213 8.11226C26.9718 8.10525 26.8751 8.19504 26.8807 8.44337C26.8905 8.88111 26.8891 9.31886 26.8807 9.75519C26.8681 10.4244 26.5232 10.8257 25.9821 10.8145C25.4578 10.8047 25.1298 10.4174 25.1158 9.77624C25.106 9.35674 25.0962 8.93583 25.1186 8.51633C25.1368 8.18522 25.0051 8.09262 24.6925 8.10805C24.2565 8.1305 23.8191 8.12208 23.3818 8.11086C22.8084 8.09683 22.4538 7.77975 22.4299 7.27747C22.4047 6.76256 22.7678 6.36831 23.3425 6.33744C23.8135 6.31079 24.2873 6.3178 24.7583 6.33464C25.0345 6.34446 25.1298 6.24625 25.1186 5.97406C25.1018 5.53773 25.106 5.09858 25.1172 4.66224C25.134 4.01826 25.4635 3.66049 26.013 3.66891C26.54 3.67592 26.8611 4.02527 26.8793 4.63979C26.8933 5.07613 26.8989 5.51528 26.8779 5.95162C26.8639 6.25467 26.9746 6.34867 27.269 6.33604C27.7232 6.3164 28.1788 6.315 28.6315 6.33744C29.2133 6.36691 29.582 6.74432 29.5679 7.25782Z" fill="#F25E64"/>
<path d="M25.9681 23.342C24.834 23.342 23.7014 23.3462 22.5673 23.3406C21.9421 23.3378 21.5398 22.9969 21.5286 22.4834C21.5173 21.9614 21.9028 21.57 22.5252 21.5658C24.8438 21.5504 27.1638 21.5504 29.4824 21.5672C30.1034 21.5714 30.4875 21.9699 30.4693 22.4932C30.4511 23.0067 30.0501 23.3378 29.4207 23.3406C28.2698 23.3462 27.119 23.342 25.9681 23.342Z" fill="#557681"/>
<path d="M25.999 30.5507C27.7274 30.5507 29.4572 30.5774 31.1857 30.5381C31.9384 30.5212 32.2412 31.0249 32.2636 31.4276C32.2917 31.9411 31.8305 32.3311 31.1857 32.3311C27.7274 32.3367 24.2705 32.3367 20.8123 32.3311C20.1689 32.3297 19.7063 31.9397 19.7357 31.4262C19.7581 31.0235 20.0595 30.5198 20.8137 30.5381C22.5407 30.5774 24.2705 30.5507 25.999 30.5507Z" fill="#295781"/>
</g>
<defs>
<clipPath id="clip0_107_1334">
<rect width="52" height="52" fill="white"/>
</clipPath>
</defs>
</svg>
