<svg width="52" height="52" viewBox="0 0 52 52" fill="none" xmlns="http://www.w3.org/2000/svg">
<g clip-path="url(#clip0_127_1507)">
<path d="M52.0006 33.935C51.8201 34.1255 51.8296 34.3925 51.7251 34.6152C51.2066 35.7233 50.361 36.4182 49.1421 36.6543C49.0593 36.6704 48.9765 36.6892 48.8951 36.712C48.8652 36.7214 48.8394 36.7468 48.7919 36.7777C49.3498 37.3371 49.7502 37.9743 49.8873 38.7618C50.2266 40.703 48.9032 42.5153 46.9229 42.7675C46.5998 42.8091 46.5116 42.9124 46.513 43.2304C46.5143 44.2472 46.5863 45.2654 46.3202 46.2729C45.5276 49.2765 42.5551 51.3156 39.4183 50.9829C36.3182 50.6529 33.8615 48.1 33.7067 45.0333C33.6796 44.482 33.6647 43.9279 33.6986 43.3779C33.7257 42.9486 33.6144 42.8078 33.1502 42.8131C30.9337 42.84 28.7145 42.7675 26.4994 42.8386C23.0545 42.9486 19.7332 42.4281 16.5164 41.2154C15.7794 40.9377 15.0179 40.7217 14.2239 40.4642C14.2239 40.8237 14.2117 41.1389 14.2266 41.4529C14.2469 41.8607 14.0542 42.0378 13.6538 42.0351C13.0959 42.031 12.5367 42.0351 11.9789 42.0351C8.25577 42.0351 4.53266 42.0351 0.809554 42.0351C0.0589602 42.0351 0.00195312 41.9787 0.00195312 41.2382C0.00195312 31.9711 0.00195312 22.7039 0.00195312 13.4382C0.00195312 12.7218 0.053531 12.6708 0.783765 12.6708C5.01451 12.6708 9.24525 12.6708 13.4774 12.6708C14.1601 12.6708 14.2225 12.7365 14.2239 13.4221C14.2252 14.0901 14.2239 14.7582 14.2239 15.437C14.4723 15.4692 14.6012 15.2841 14.7532 15.1754C17.2235 13.4221 19.9477 12.2751 22.9555 11.8055C23.9762 11.6459 25.005 11.5735 26.0379 11.5721C28.4241 11.5708 30.8102 11.5627 33.1964 11.5815C33.5968 11.5842 33.7027 11.4796 33.7 11.0838C33.6809 8.67581 33.6864 6.26646 33.6959 3.85711C33.6972 3.57137 33.6389 3.43588 33.324 3.346C32.4281 3.08977 31.9639 2.31572 32.0997 1.41423C32.2205 0.610663 32.9317 0.00966806 33.8194 0.00832655C38.0162 0.00161901 42.2144 0.00161901 46.4112 0.00832655C47.3056 0.00966806 48.0182 0.638835 48.1309 1.47728C48.2436 2.30767 47.759 3.08038 46.9283 3.33795C46.6406 3.42649 46.5116 3.51771 46.513 3.86114C46.5293 8.29348 46.5306 12.7272 46.5143 17.1595C46.513 17.5566 46.6392 17.6304 47.0016 17.617C47.6097 17.5955 48.2232 17.5834 48.8272 17.6451C50.4424 17.8101 51.5432 18.8028 51.9232 20.3751C51.9327 20.4167 51.9775 20.4502 52.0047 20.4878C52.0047 20.9224 52.0047 21.3571 52.0047 21.7931C51.7373 22.932 51.5608 23.1949 50.4207 24.138C51.3247 24.7283 51.9164 25.5144 52.0047 26.6118C52.0047 27.0129 52.0047 27.4153 52.0047 27.8164C51.9463 28.7327 51.4346 29.3981 50.7559 29.9561C50.5062 30.1614 50.5048 30.2902 50.7559 30.4954C51.4685 31.0763 51.9762 31.7779 52.0047 32.7357C52.0006 33.1315 52.0006 33.5339 52.0006 33.935Z" fill="#2F3B5B"/>
<path d="M52 32.7301C51.7489 31.7481 51.2698 30.9164 50.3862 30.3543C50.2803 30.2872 50.1595 30.2175 50.3427 30.1088C51.2291 29.5776 51.6865 28.7458 52.0014 27.8121C52 29.4515 52 31.0908 52 32.7301Z" fill="#FDFDFE"/>
<path d="M52.0006 26.6075C51.7237 25.5638 51.193 24.6971 50.1465 24.1109C51.1685 23.5985 51.6232 22.7224 52.0006 21.7901C52.0006 23.3945 52.0006 25.0003 52.0006 26.6075Z" fill="#FEFDFE"/>
<path d="M34.8357 42.0066C31.7722 42.0066 28.7074 41.9677 25.644 42.0187C22.871 42.0643 20.1903 41.6565 17.587 40.7161C16.6518 40.378 15.7071 40.0601 14.7502 39.7905C14.3335 39.6724 14.2086 39.5034 14.21 39.0768C14.2249 33.1205 14.2208 27.1655 14.2208 21.2092C14.2208 19.7711 14.2235 18.3317 14.2181 16.8936C14.2168 16.6656 14.2534 16.5019 14.4651 16.3463C16.873 14.5849 19.4791 13.2608 22.4502 12.7081C23.5836 12.4975 24.7278 12.3835 25.8788 12.3781C28.3165 12.366 30.7529 12.3821 33.1906 12.366C33.5788 12.3633 33.7173 12.4492 33.7091 12.8624C33.682 14.2844 33.6847 15.7064 33.7091 17.1284C33.7159 17.5161 33.5951 17.6435 33.2218 17.5912C33.0725 17.5711 32.9097 17.559 32.7672 17.5952C32.5758 17.6435 32.2025 17.4101 32.2256 17.7696C32.2446 18.0701 32.341 18.4498 32.8676 18.4243C33.796 18.38 34.7285 18.4122 35.6596 18.4122C39.8578 18.4122 44.0559 18.4095 48.2527 18.4135C49.7363 18.4149 50.7705 19.1554 51.0977 20.4285C51.5239 22.0866 50.2806 23.6951 48.5527 23.6977C43.7627 23.7058 38.9728 23.7058 34.1815 23.7098C34.0797 23.7098 33.9779 23.7112 33.8774 23.7098C33.5829 23.7071 33.3101 23.7568 33.3128 24.123C33.3155 24.5 33.6019 24.512 33.8896 24.5107C38.7135 24.5094 43.5374 24.5067 48.3627 24.5107C49.91 24.512 51.0963 25.5584 51.1818 26.9724C51.2768 28.55 50.0756 29.811 48.4495 29.8137C44.1496 29.8204 39.851 29.8164 35.551 29.8164C35.0094 29.8164 34.4679 29.8217 33.9263 29.8137C33.591 29.8083 33.3006 29.8499 33.3033 30.2752C33.306 30.7058 33.6033 30.7272 33.9358 30.7246C38.7936 30.6883 43.6501 30.6481 48.5079 30.6266C49.6236 30.6226 50.4597 31.1565 50.9294 32.1546C51.4112 33.1755 51.247 34.1521 50.5167 35.008C49.9453 35.6787 49.173 35.9242 48.3002 35.9269C44.983 35.9417 41.6657 35.9605 38.3484 35.9833C36.8934 35.9927 35.4383 36.0141 33.9819 36.0316C33.682 36.0356 33.3101 35.9725 33.3155 36.4273C33.3209 36.866 33.682 36.8338 33.9887 36.8311C38.119 36.8029 42.248 36.7694 46.3783 36.7439C47.8292 36.7345 48.854 37.5931 49.0983 38.9963C49.3386 40.3754 48.2785 41.7947 46.8696 41.9664C46.5846 42.0013 46.2955 42.0039 46.0077 42.0039C42.2833 42.008 38.5602 42.0066 34.8357 42.0066Z" fill="#F5D190"/>
<path d="M0.831163 39.3491C0.825734 39.2162 0.813518 39.0821 0.813518 38.9493C0.812161 30.6172 0.812161 22.2864 0.813518 13.9543C0.813518 13.8215 0.827091 13.6874 0.833878 13.5546C0.994041 13.4727 1.16642 13.5116 1.33201 13.5116C4.54477 13.5089 7.75753 13.5089 10.9703 13.5103C11.5729 13.5103 11.6191 13.5559 11.6381 14.1649C11.6422 14.2991 11.6408 14.4319 11.6408 14.566C11.6408 22.4541 11.6408 30.3435 11.6408 38.2316C11.6408 39.4805 11.6001 39.5181 10.3242 39.5181C7.43313 39.5181 4.5407 39.5208 1.64962 39.5154C1.37002 39.5154 1.06869 39.5691 0.831163 39.3491Z" fill="#86D5F7"/>
<path d="M34.5303 12.6826C34.5208 11.6805 34.5072 10.6771 34.5045 9.67495C34.5004 7.73513 34.5072 5.79531 34.4991 3.85549C34.4977 3.56975 34.514 3.41145 34.8927 3.41279C38.3783 3.42889 41.8639 3.42352 45.3494 3.4195C45.5829 3.4195 45.7159 3.43425 45.7146 3.73073C45.6969 6.70753 45.6956 9.683 45.6888 12.6598C45.5069 12.8275 45.2789 12.794 45.0617 12.7953C41.796 12.8194 38.5303 12.8221 35.2646 12.8168C35.0135 12.8141 34.7529 12.8436 34.5303 12.6826Z" fill="#F1F5F9"/>
<path d="M0.831087 39.3491C4.19722 39.3504 7.56471 39.3451 10.9308 39.3598C11.3584 39.3612 11.4806 39.2149 11.4806 38.8058C11.4711 30.5622 11.4711 22.3187 11.4833 14.0751C11.4833 13.6471 11.3462 13.5479 10.9349 13.5492C7.56879 13.5626 4.20129 13.5559 0.835159 13.5546C0.958675 13.3748 1.14327 13.4687 1.29529 13.4687C5.17042 13.466 9.04554 13.4768 12.9207 13.4634C13.3292 13.462 13.4188 13.5801 13.4188 13.9664C13.4079 22.8968 13.4079 31.8286 13.4188 40.759C13.4188 41.1252 13.3387 41.2406 12.9478 41.2393C9.0564 41.2245 5.16363 41.2259 1.27221 41.2366C0.934243 41.2379 0.779509 41.1749 0.808013 40.8033C0.841946 40.319 0.824301 39.8334 0.831087 39.3491Z" fill="#018CFF"/>
<path d="M34.5305 12.6826C38.2495 12.6745 41.9699 12.6665 45.6889 12.6584C45.6889 12.6906 45.6889 12.7242 45.6889 12.7564C45.5288 12.9133 45.3211 12.9066 45.1189 12.912C44.7483 12.9214 44.3764 12.9147 44.0045 12.916C43.1263 12.9174 43.125 12.9174 43.1236 13.7638C43.1222 14.6814 43.1236 15.599 43.1236 16.5166C43.1236 16.6669 43.1263 16.8171 43.1209 16.9674C43.0978 17.5791 43.0544 17.6234 42.4531 17.6234C39.9882 17.6234 37.5247 17.6247 35.0598 17.622C34.8942 17.622 34.7218 17.6636 34.563 17.5764C34.4354 16.9996 34.5155 16.416 34.5101 15.8365C34.5006 14.7834 34.5223 13.733 34.5305 12.6826Z" fill="#F7A7A8"/>
<path d="M35.9138 48.2983C35.246 47.6449 34.8591 46.8333 34.6569 45.9479C34.4234 44.9338 34.4682 43.8981 34.5578 42.8678C34.6813 42.7873 34.8211 42.8222 34.9528 42.8222C37.4367 42.8195 39.9206 42.8195 42.4031 42.8209C42.9596 42.8209 43.0546 42.9215 42.9555 43.4769C42.4153 46.4738 39.7835 48.4405 37.1584 48.4337C36.7404 48.4324 36.3101 48.5022 35.9138 48.2983Z" fill="#F7A7A8"/>
<path d="M35.914 48.2983C36.784 48.246 37.6527 48.3439 38.5241 48.1132C40.7053 47.5363 42.5539 45.5241 42.8553 43.3186C42.9136 42.896 42.6992 42.8625 42.3585 42.8638C39.7579 42.8732 37.1573 42.8679 34.5566 42.8665C34.7032 42.7364 34.8797 42.8035 35.0398 42.8035C38.4223 42.7995 41.8033 42.8088 45.1858 42.7914C45.6065 42.7887 45.7355 42.8947 45.7165 43.3132C45.673 44.2778 45.7965 45.2558 45.4911 46.1988C44.8369 48.2165 43.4864 49.5539 41.3961 50.0449C39.3493 50.5265 37.5577 49.9644 36.0605 48.4995C36.0035 48.4405 35.9628 48.3654 35.914 48.2983Z" fill="#F98082"/>
<path d="M40.1088 0.806243C42.1393 0.806243 44.1712 0.804901 46.2018 0.806243C46.8967 0.806243 47.3093 1.13625 47.3229 1.68895C47.3365 2.26312 46.9116 2.61862 46.195 2.61862C42.1162 2.61996 38.0362 2.61996 33.9574 2.61862C33.3874 2.61862 33.0128 2.36642 32.9137 1.93311C32.8132 1.50114 33.0223 1.08528 33.4186 0.886733C33.6127 0.790145 33.8136 0.806243 34.0145 0.806243C36.0463 0.804901 38.0782 0.806243 40.1088 0.806243Z" fill="#E1E6E9"/>
<path d="M34.5635 17.5751C37.1464 17.5737 39.7308 17.5737 42.3137 17.5724C42.9585 17.5724 42.9585 17.5724 42.9598 16.9124C42.9598 15.6768 42.9707 14.4426 42.953 13.2071C42.9476 12.8623 43.0508 12.7376 43.4104 12.7483C44.1692 12.7711 44.9293 12.755 45.6894 12.755C45.6962 14.2749 45.6934 15.7935 45.7152 17.3135C45.7206 17.7132 45.4641 17.6274 45.2442 17.6274C42.8607 17.6301 40.4786 17.6301 38.0952 17.6314C37.0813 17.6314 36.0674 17.6341 35.0535 17.6287C34.8906 17.6287 34.7155 17.6864 34.5635 17.5751Z" fill="#F98082"/>
</g>
<defs>
<clipPath id="clip0_127_1507">
<rect width="52" height="51.0189" fill="white"/>
</clipPath>
</defs>
</svg>
