<svg width="52" height="52" viewBox="0 0 52 52" fill="none" xmlns="http://www.w3.org/2000/svg">
<g clip-path="url(#clip0_107_1296)">
<path d="M10.1666 20.4241C7.17019 20.4241 4.17528 20.4256 1.17883 20.4241C0.324695 20.4241 0.0177642 20.1248 0.0177642 19.2904C0.016214 13.2392 0.016214 7.18642 0.0177642 1.13519C0.0177642 0.299305 0.323145 0.00310161 1.17883 0.00310161C7.21049 0 13.2406 0 19.2707 0C20.1419 0 20.4333 0.299305 20.4333 1.19102C20.4349 7.20503 20.4349 13.2175 20.4333 19.2315C20.4333 20.1418 20.1434 20.4225 19.2134 20.4241C16.1967 20.4241 13.1817 20.4241 10.1666 20.4241Z" fill="#FCE791"/>
<path d="M5.58621 35.9042C7.52855 36.6331 9.37789 37.3279 11.2272 38.0226C11.9465 38.2925 12.6673 38.5608 13.3835 38.8384C13.7152 38.9671 14.0532 38.9934 14.4035 38.9934C24.8593 38.9903 35.3136 38.9934 45.7694 38.9795C46.2763 38.9795 46.4623 39.0756 46.4297 39.6231C46.3786 40.5287 46.4065 41.4391 46.422 42.3478C46.4266 42.6161 46.3631 42.7479 46.0732 42.7061C45.96 42.6906 45.8422 42.703 45.726 42.703C32.5651 42.703 19.4043 42.6983 6.24347 42.7185C5.66527 42.72 5.56451 42.5603 5.57381 42.0237C5.60791 40.0139 5.58621 38.004 5.58621 35.9042Z" fill="#9BC9FF"/>
<path d="M32.9448 37.1324C26.9349 37.1324 20.9249 37.1278 14.9165 37.1402C14.3476 37.1417 13.8205 37.0456 13.2888 36.844C9.02746 35.2311 4.76143 33.6276 0.490745 32.0427C0.124908 31.9062 -0.0611111 31.7527 0.0163968 31.3572C0.0303482 31.2828 0.0179469 31.2037 0.0179469 31.1262C0.0179469 30.0887 0.0163967 30.0918 0.960442 30.4469C5.09471 32.0039 9.22898 33.5563 13.3617 35.1164C13.7136 35.2498 14.0686 35.2792 14.4375 35.2792C26.7457 35.2761 39.0555 35.2792 51.3638 35.2653C51.8521 35.2653 52.0164 35.3506 51.9962 35.8794C51.9497 37.1324 51.9823 37.134 50.7406 37.134C44.8097 37.1324 38.8773 37.1324 32.9448 37.1324Z" fill="#007FE9"/>
<path d="M26.0022 46.4171C19.3908 46.4171 12.7809 46.4109 6.16949 46.4295C5.69049 46.4311 5.56028 46.3241 5.57423 45.8371C5.61144 44.5624 5.58508 44.5608 6.86551 44.5608C19.8357 44.5608 32.8058 44.5639 45.7775 44.5484C46.2999 44.5484 46.4503 44.6694 46.4317 45.1997C46.3883 46.4171 46.4178 46.4171 45.1978 46.4171C38.7987 46.4171 32.3997 46.4171 26.0022 46.4171Z" fill="#9BC9FF"/>
<path d="M51.9828 8.95587C51.9037 10.2182 52.1145 11.7675 51.8727 13.3059C51.6216 14.9125 50.9767 16.3517 49.8467 17.5101C47.2687 20.1527 44.6397 22.7456 42.0416 25.368C41.8122 25.5991 41.6944 25.5495 41.4913 25.3448C38.9304 22.7673 36.337 20.2209 33.801 17.6171C32.3004 16.0756 31.5719 14.1743 31.5672 12.0125C31.561 9.61496 31.5781 7.21742 31.5548 4.81988C31.5502 4.42132 31.6835 4.26314 32.0354 4.11736C35.1279 2.84105 38.2143 1.54613 41.2975 0.248107C41.6184 0.113187 41.8974 0.0945771 42.2307 0.2357C45.345 1.55233 48.4639 2.85656 51.589 4.14683C51.8867 4.26934 51.9921 4.40271 51.9874 4.72838C51.9719 6.04656 51.9828 7.36009 51.9828 8.95587Z" fill="#9BC9FF"/>
<path d="M1.875 34.5162C2.46406 34.738 2.99266 34.9536 3.53367 35.1319C3.8158 35.225 3.72434 35.4328 3.72589 35.6033C3.73364 36.647 3.73054 37.6892 3.73054 38.7329C3.73054 42.9635 3.72434 47.1925 3.73984 51.4231C3.74139 51.8496 3.67163 52.014 3.19108 52C1.875 51.9643 1.875 51.9907 1.875 50.6942C1.875 45.5378 1.875 40.3798 1.875 35.2234C1.875 35.014 1.875 34.8047 1.875 34.5162Z" fill="#C0DDFF"/>
<path d="M50.1266 45.5331C50.1266 47.5244 50.1188 49.5156 50.1343 51.5068C50.1374 51.8604 50.0785 52 49.6755 51.9969C48.271 51.986 48.271 52.0046 48.271 50.6027C48.271 46.9102 48.2772 43.2162 48.2617 39.5238C48.2602 39.1175 48.3191 38.9639 48.7811 38.9732C50.1266 39.0043 50.1266 38.9794 50.1266 40.31C50.1266 42.0531 50.1266 43.7931 50.1266 45.5331Z" fill="#C0DDFF"/>
<path d="M7.44218 30.9261C5.85327 30.3322 4.32482 29.763 2.79947 29.1908C1.87402 28.8434 1.87402 28.8403 1.87402 27.84C1.87402 27.3826 1.87402 26.9251 1.87402 26.3962C3.16065 26.8739 4.38063 27.3252 5.6006 27.7796C6.08735 27.961 6.5679 28.1533 7.05775 28.3223C7.31662 28.4123 7.46544 28.5208 7.44994 28.8434C7.42048 29.5134 7.44218 30.1849 7.44218 30.9261Z" fill="#9BC9FF"/>
<path d="M15.4592 12.9973C14.8407 12.9973 14.2206 13.0283 13.6036 12.9864C13.1417 12.9554 12.9774 13.0562 12.9944 13.5649C13.0378 14.8396 13.013 16.1175 13.0068 17.3938C13.0037 18.2095 12.655 18.56 11.8458 18.5647C10.7638 18.5709 9.6802 18.5709 8.59819 18.5647C7.79211 18.56 7.44488 18.2064 7.44178 17.3907C7.43713 16.1144 7.42317 14.8381 7.44953 13.5618C7.45883 13.1338 7.37977 12.9694 6.89922 12.9833C5.62499 13.0221 4.34766 13.0004 3.07188 12.9957C2.2193 12.9926 1.87671 12.653 1.87361 11.8047C1.86896 10.7223 1.86586 9.63825 1.87516 8.55578C1.88136 7.78503 2.23945 7.433 3.01918 7.42835C4.29496 7.42215 5.57074 7.40509 6.84652 7.43765C7.30691 7.45006 7.47278 7.36632 7.45573 6.85765C7.41232 5.58289 7.43713 4.30503 7.44333 3.02872C7.44643 2.21145 7.79211 1.86252 8.60284 1.85786C9.68485 1.85166 10.7684 1.85166 11.8504 1.85786C12.6581 1.86252 13.0053 2.213 13.0084 3.03027C13.0146 4.26781 13.0394 5.5069 12.996 6.74289C12.9774 7.27637 13.0766 7.46867 13.6641 7.44231C14.8996 7.38803 16.1382 7.42215 17.3752 7.4268C18.2278 7.4299 18.5719 7.76953 18.5765 8.61627C18.5812 9.69873 18.5843 10.7827 18.575 11.8652C18.5688 12.6344 18.2076 12.9864 17.431 12.9942C16.7737 13.0019 16.1165 12.9973 15.4592 12.9973Z" fill="white"/>
<path d="M32.4971 8.99159C32.4971 7.92774 32.5095 6.86544 32.4925 5.80159C32.4831 5.22624 32.7203 4.8618 33.2536 4.64314C35.8997 3.55447 38.5443 2.46115 41.1811 1.34768C41.5857 1.17709 41.9345 1.15538 42.339 1.32442C44.9976 2.44255 47.6607 3.54982 50.3239 4.65399C50.8308 4.8649 51.0618 5.22314 51.0587 5.77367C51.0478 7.86105 51.0819 9.94999 51.0447 12.0374C51.0091 14.0286 50.282 15.7608 48.873 17.1814C46.7911 19.2812 44.6968 21.3686 42.6026 23.4559C41.9825 24.0747 41.5624 24.0654 40.93 23.4342C38.8651 21.3732 36.8003 19.3091 34.7386 17.2434C33.2319 15.7345 32.5033 13.9014 32.4971 11.7768C32.494 10.8464 32.4971 9.91897 32.4971 8.99159Z" fill="white"/>
<path d="M6.18431 9.28311C6.84158 9.28311 7.49885 9.28931 8.15611 9.28155C8.93119 9.2738 9.29238 8.92022 9.29703 8.14947C9.30478 6.81578 9.31408 5.48053 9.28928 4.14684C9.28308 3.7824 9.38384 3.70331 9.73727 3.70331C11.1557 3.70331 11.1557 3.68936 11.1557 5.08043C11.1557 6.08535 11.151 7.09182 11.1572 8.09674C11.1619 8.94038 11.506 9.27845 12.3617 9.28155C13.6762 9.28621 14.9908 9.29241 16.3037 9.27535C16.6138 9.27225 16.7285 9.33118 16.7331 9.67701C16.7517 11.1394 16.7657 11.1394 15.2837 11.1394C14.2978 11.1394 13.3119 11.1348 12.326 11.141C11.5091 11.1456 11.1603 11.4899 11.1572 12.301C11.151 13.6347 11.1448 14.9699 11.1634 16.3036C11.1681 16.6339 11.072 16.7146 10.748 16.7177C9.30013 16.7347 9.30013 16.7456 9.30013 15.3126C9.30013 14.3077 9.30478 13.3012 9.29858 12.2963C9.29238 11.4899 8.94049 11.1425 8.12511 11.1394C6.81058 11.1348 5.49604 11.127 4.18306 11.1456C3.84978 11.1503 3.72267 11.0975 3.72267 10.7145C3.72267 9.28155 3.70561 9.28155 5.14416 9.28155C5.48829 9.28311 5.83553 9.28311 6.18431 9.28311Z" fill="#F25E64"/>
<path d="M49.2 9.4987C49.2 10.2524 49.186 11.0061 49.2031 11.7598C49.2418 13.3928 48.6714 14.7792 47.5289 15.9299C45.7183 17.7536 43.8907 19.5603 42.0878 21.3903C41.8212 21.6601 41.691 21.612 41.4523 21.3717C39.6587 19.5588 37.8497 17.7598 36.0484 15.9547C34.9029 14.8071 34.3278 13.43 34.3464 11.7954C34.3665 10.0756 34.3588 8.35576 34.3448 6.63592C34.3417 6.30715 34.4208 6.13966 34.7525 6.00474C36.9599 5.10527 39.1565 4.18254 41.3515 3.25051C41.6631 3.11714 41.9235 3.12645 42.2305 3.25671C44.4053 4.17789 46.5802 5.09752 48.769 5.98613C49.1225 6.1288 49.2186 6.30094 49.2077 6.65918C49.1829 7.60362 49.2 8.55116 49.2 9.4987Z" fill="#018CFF"/>
<path d="M40.9729 14.8505C40.6985 14.8272 40.4644 14.7078 40.266 14.5109C39.5018 13.7463 38.7453 12.9725 37.9671 12.2219C37.7377 12.0017 37.7764 11.8869 37.9795 11.6775C38.9871 10.6339 38.9731 10.6354 39.9978 11.6372C40.3233 11.9551 40.5946 12.5382 41.0054 12.4979C41.3511 12.4638 41.6549 11.9458 41.968 11.6341C43.0625 10.5455 44.1631 9.45989 45.2389 8.35107C45.504 8.07813 45.6621 8.05641 45.9054 8.35417C46.186 8.69535 46.7224 8.98224 46.7518 9.32652C46.7828 9.68321 46.2186 9.97011 45.9101 10.2818C44.5506 11.6543 43.1803 13.0143 41.8177 14.3837C41.5821 14.621 41.3309 14.821 40.9729 14.8505Z" fill="#FEFEFE"/>
</g>
<defs>
<clipPath id="clip0_107_1296">
<rect width="52" height="52" fill="white"/>
</clipPath>
</defs>
</svg>
