<svg width="46" height="46" viewBox="0 0 46 46" fill="none" xmlns="http://www.w3.org/2000/svg">
<g clip-path="url(#clip0_266_3077)">
<path d="M22.5773 40.8028C21.4287 40.8449 20.0508 40.493 18.6655 40.1968C16.3868 39.7098 14.1974 39.9738 12.0859 40.9577C11.8121 41.0853 11.7774 41.1944 11.9261 41.4484C12.1417 41.8202 12.3238 42.213 12.5072 42.6034C12.7489 43.1164 12.6163 43.5216 12.1045 43.7434C10.4268 44.4708 8.74535 45.1883 7.06019 45.9008C6.53853 46.1214 6.21017 45.9789 5.93881 45.4361C4.73194 43.0309 3.52878 40.6244 2.32562 38.2166C1.61067 36.7866 0.895713 35.3553 0.184475 33.9241C-0.151319 33.2487 -0.0311269 32.9092 0.649134 32.6142C2.25623 31.9178 3.86581 31.2239 5.47539 30.5324C6.07759 30.2746 6.39728 30.4023 6.70457 31.0082C6.90654 31.406 7.12338 31.7976 7.30181 32.2053C7.41209 32.4556 7.5075 32.499 7.77143 32.3763C8.61649 31.9835 9.3649 31.4407 10.1245 30.9165C11.3115 30.0962 12.5543 29.4085 13.9855 29.1172C15.968 28.7133 17.8998 28.8905 19.7026 29.805C20.6158 30.2685 21.5229 30.401 22.5265 30.4444C23.7222 30.4965 24.6974 30.2251 25.5821 29.4047C26.478 28.5732 27.5547 28.0986 28.8236 28.1903C29.3353 28.2275 29.821 28.3774 30.313 28.4976C30.5348 28.5522 30.7206 28.5534 30.9362 28.4753C32.1047 28.054 33.2707 28.0875 34.3945 28.6166C34.7526 28.7851 35.019 28.7653 35.3635 28.5906C36.9347 27.7925 38.6248 28.2275 39.5021 29.6191C39.7598 30.028 39.9072 30.4828 40.0386 30.9389C40.1563 31.3453 39.9531 31.6365 39.6148 31.8744C37.0908 33.6452 34.573 35.4247 32.0526 37.2017C30.6314 38.2042 29.2498 39.265 27.6006 39.897C26.0703 40.4831 24.5004 40.8003 22.5773 40.8028Z" fill="#457DC3"/>
<path d="M15.6421 2.13389C16.0919 2.1091 16.3236 2.43501 16.5529 2.70887C16.8379 3.04965 17.0758 3.10169 17.4735 2.85881C18.1699 2.43377 18.9369 2.14628 19.7299 1.94305C19.9542 1.88481 20.0657 1.78815 20.0384 1.53412C20.0124 1.29 20.0273 1.04092 20.0335 0.793082C20.0459 0.272622 20.3123 0.00495676 20.8426 0.00371757C22.2787 -0.00123919 23.7161 -0.00123919 25.1522 0.00371757C25.6998 0.00619595 25.9501 0.27634 25.9687 0.836454C25.9799 1.17104 25.8312 1.5874 26.0332 1.81913C26.2153 2.02732 26.623 2.03351 26.9265 2.14132C27.5362 2.35818 28.1384 2.59734 28.6885 2.93936C28.9562 3.10541 29.1222 3.06576 29.3093 2.84023C29.4568 2.66302 29.6253 2.50069 29.7975 2.34703C30.1407 2.03971 30.5484 2.02484 30.8743 2.34455C31.9213 3.37184 32.9609 4.40904 33.9894 5.45368C34.345 5.81428 34.3177 6.21578 33.9683 6.59993C33.7415 6.84901 33.3351 7.03984 33.3178 7.34221C33.3017 7.63465 33.5867 7.9395 33.7279 8.24558C33.9993 8.83171 34.2483 9.42776 34.4057 10.056C34.4639 10.2865 34.5469 10.4129 34.8369 10.3943C36.3981 10.2964 36.3721 10.6211 36.3535 11.9111C36.3362 13.0846 36.3523 14.2594 36.3486 15.4329C36.3473 16.0698 36.0946 16.3152 35.4478 16.3201C34.537 16.3263 34.5346 16.3263 34.2471 17.1702C34.0228 17.827 33.7614 18.4689 33.4008 19.0612C33.2471 19.314 33.2732 19.4801 33.4974 19.6424C33.5098 19.6511 33.5185 19.6647 33.5309 19.6746C34.5172 20.5569 34.4255 20.8729 33.5433 21.7131C32.6821 22.5322 31.8594 23.3922 31.0143 24.2299C30.5199 24.7194 30.1581 24.7169 29.6662 24.2336C29.0355 23.6153 29.0367 23.619 28.2449 24.0106C27.6105 24.3241 26.9563 24.593 26.2686 24.7652C26.0418 24.8222 25.9179 24.9263 25.9662 25.1754C25.9774 25.2349 25.9675 25.2981 25.9675 25.36C25.9675 26.6253 25.8857 26.7058 24.5983 26.7058C23.3939 26.7058 22.1883 26.707 20.9839 26.7058C20.2726 26.7046 20.0372 26.4728 20.0335 25.7752C20.0298 24.8891 20.031 24.8854 19.202 24.6079C18.5441 24.3873 17.906 24.1184 17.3062 23.7702C17.0721 23.6338 16.9209 23.6078 16.7189 23.8358C15.745 24.9325 15.4786 24.7776 14.5555 23.8148C13.7538 22.9783 12.9186 22.1753 12.1033 21.3525C11.6337 20.8779 11.6362 20.5148 12.0983 20.0414C12.7315 19.3921 12.7315 19.3921 12.3338 18.5841C12.0277 17.9621 11.7638 17.3239 11.5916 16.651C11.5321 16.418 11.4453 16.2966 11.1591 16.3139C9.61644 16.4069 9.62388 16.1058 9.6437 14.7947C9.66229 13.6212 9.64618 12.4464 9.64866 11.2729C9.6499 10.6347 9.90143 10.3931 10.5507 10.3881C11.4652 10.3819 11.4689 10.3832 11.7526 9.53929C11.9744 8.88128 12.2371 8.24062 12.5965 7.64829C12.7501 7.39549 12.7105 7.24803 12.5035 7.06463C11.4528 6.13028 11.5581 5.85146 12.5209 4.93446C13.3597 4.13642 14.1627 3.29997 14.9817 2.47962C15.1688 2.29002 15.3572 2.10539 15.6421 2.13389Z" fill="#457DC3"/>
<path d="M4.45531 12.2606C4.45531 12.8318 4.44788 13.4043 4.45779 13.9756C4.4677 14.537 4.75641 14.8269 5.3202 14.8344C6.00046 14.8443 6.67948 14.8319 7.35974 14.8381C7.88635 14.8431 8.15895 15.1107 8.16267 15.6337C8.17011 16.5915 8.16267 17.5494 8.16515 18.5073C8.16639 18.9212 7.95822 19.2608 7.57163 19.262C6.32634 19.2645 5.07238 19.4305 3.83948 19.1046C1.61656 18.5185 0.0230858 16.4813 0.00697761 14.1838C-0.00169602 12.8864 -0.00293511 11.5877 0.00697761 10.2903C0.0292812 7.5058 2.32656 5.21949 5.11947 5.19471C5.9385 5.18727 5.9385 5.18727 5.9385 4.38924C5.9385 4.18849 5.94718 3.98774 5.93726 3.78699C5.91868 3.42019 6.06861 3.15128 6.40688 3.01745C6.72285 2.89229 7.00908 2.97532 7.2507 3.21696C7.80581 3.77584 8.36464 4.33099 8.921 4.88863C9.54426 5.5107 10.1688 6.13154 10.7883 6.75733C11.2654 7.23814 11.2716 7.59626 10.8032 8.06715C9.64834 9.22828 8.48607 10.382 7.33124 11.5431C7.05864 11.8169 6.76374 11.9718 6.3821 11.8095C6.01781 11.6546 5.91372 11.351 5.93479 10.9793C5.94718 10.7636 5.98807 10.5307 5.92364 10.3349C5.84805 10.1031 6.23713 9.66695 5.64856 9.64464C4.85306 9.61367 4.50612 9.83424 4.45531 10.4067C4.45283 10.4377 4.45407 10.4687 4.45407 10.4997C4.45531 11.0858 4.45531 11.6732 4.45531 12.2606Z" fill="#457DC3"/>
<path d="M41.5425 12.2495C41.5425 11.6621 41.5537 11.0747 41.54 10.4886C41.5239 9.83676 40.7396 9.37206 40.1498 9.64716C40.0098 9.71284 40.063 9.82932 40.0618 9.92474C40.0556 10.3114 40.0531 10.6968 40.0606 11.0834C40.068 11.4316 39.9205 11.6831 39.6033 11.8145C39.2663 11.9533 38.9788 11.8542 38.7248 11.5989C37.6902 10.558 36.6655 9.50589 35.6073 8.48976C34.6061 7.52938 34.6197 7.29765 35.606 6.35091C36.6419 5.35584 37.6456 4.32731 38.6554 3.30498C38.9268 3.02988 39.2192 2.86631 39.6021 3.02121C39.9887 3.17858 40.0779 3.50201 40.0643 3.88988C40.0506 4.30501 39.9218 4.82795 40.12 5.10553C40.3084 5.37071 40.866 5.17244 41.26 5.19846C43.7692 5.3608 45.9549 7.64215 45.9871 10.1627C46.0045 11.5369 46.0032 12.9124 45.9884 14.2879C45.9574 16.9336 43.6514 19.2435 41.0109 19.2831C40.239 19.2943 39.4658 19.2893 38.6938 19.2868C38.104 19.2843 37.8389 19.0278 37.8364 18.4516C37.8314 17.5247 37.8314 16.5978 37.8364 15.6709C37.8401 15.0959 38.1053 14.8418 38.6963 14.8381C39.3295 14.8344 39.9627 14.8406 40.5971 14.8369C41.2699 14.8332 41.5388 14.5568 41.5438 13.8728C41.545 13.3313 41.5425 12.791 41.5425 12.2495Z" fill="#457DC3"/>
<path d="M28.744 33.3801C28.1356 33.3801 27.5396 33.3801 26.9436 33.3801C25.5062 33.3801 24.0701 33.3887 22.634 33.3739C22.3403 33.3714 22.2474 33.4371 22.2487 33.7481C22.2561 34.8646 22.2425 34.8646 23.3676 34.8646C25.4071 34.8646 27.4466 34.8596 29.4849 34.8696C29.8145 34.8708 30.0723 34.7779 30.3213 34.5622C31.7921 33.2884 33.2815 32.0368 34.7436 30.753C35.2046 30.3478 35.72 30.0565 36.2727 29.8186C36.9852 29.5125 37.7645 29.7492 38.197 30.3676C38.4175 30.6811 38.4262 30.8843 38.0582 31.1408C35.5379 32.8918 33.0337 34.6651 30.5332 36.4458C29.2247 37.3777 27.9014 38.2687 26.3488 38.7581C24.2039 39.4347 22.0392 39.4806 19.8721 38.9242C16.928 38.1683 14.0744 38.3195 11.3211 39.6727C11.1489 39.7569 11.0634 39.7359 10.9742 39.5562C10.0721 37.7358 9.16386 35.9192 8.24941 34.105C8.16143 33.929 8.16391 33.841 8.35225 33.7568C9.57028 33.2103 10.6037 32.3676 11.7275 31.6687C14.14 30.1693 16.6542 29.9735 19.2005 31.24C20.1732 31.7245 21.126 31.9537 22.2028 31.9104C23.6687 31.8534 25.137 31.8881 26.6053 31.8992C27.6499 31.9067 28.4565 32.4655 28.744 33.3801Z" fill="#F7FAFC"/>
<path d="M10.7958 42.5624C10.823 42.6851 10.7065 42.7037 10.6396 42.7322C9.51206 43.2217 8.37954 43.7 7.2532 44.1932C6.96573 44.3184 6.94591 44.0904 6.87156 43.9417C6.07607 42.3604 5.28553 40.778 4.49499 39.1943C3.64249 37.4879 2.79495 35.7779 1.93255 34.0752C1.81112 33.8348 1.80616 33.7357 2.08619 33.6204C3.15305 33.1842 4.21 32.7257 5.26322 32.2573C5.51476 32.1458 5.62504 32.1817 5.75018 32.4345C7.3895 35.7419 9.04121 39.0444 10.6904 42.3481C10.7227 42.4174 10.7573 42.4856 10.7958 42.5624Z" fill="white"/>
<path d="M33.4622 29.883C32.3519 30.836 31.2677 31.7666 30.1674 32.7109C29.9258 32.2933 29.7152 31.8806 29.3781 31.556C29.305 31.4853 29.2555 31.411 29.3633 31.3279C30.2802 30.6154 31.1017 29.7207 32.3854 29.691C32.7361 29.6835 33.088 29.7195 33.4622 29.883Z" fill="#F7FAFC"/>
<path d="M28.8704 29.7257C28.2942 30.4419 27.6771 30.7939 26.8457 30.3329C27.4008 29.8583 28.0551 29.6315 28.8704 29.7257Z" fill="#F7FAFC"/>
<path d="M14.477 19.3661C14.4832 19.298 14.389 19.1381 14.2887 18.9807C13.6097 17.9212 13.1252 16.7836 12.865 15.5482C12.7497 15.0029 12.5044 14.8394 11.9022 14.8369C11.1302 14.8344 11.1302 14.8344 11.1302 14.0773C11.1302 13.444 11.1402 12.8096 11.1253 12.1763C11.1203 11.9409 11.1786 11.8678 11.4276 11.8628C12.663 11.8356 12.658 11.8256 12.9864 10.6286C13.2565 9.64343 13.6654 8.71775 14.2069 7.85032C14.5985 7.22205 14.5749 7.01759 14.0446 6.48597C13.5725 6.01136 13.5725 6.01136 14.0545 5.53056C14.503 5.08321 14.9652 4.64825 15.3927 4.18108C15.6096 3.94563 15.7483 3.96298 15.9305 4.19595C16.0346 4.32854 16.1684 4.43759 16.2886 4.55779C16.607 4.87874 16.9564 4.91096 17.3331 4.66808C18.4173 3.96918 19.5846 3.4797 20.8484 3.20583C21.3602 3.09555 21.5126 2.84275 21.5151 2.25538C21.5175 1.48584 21.5175 1.48584 22.2759 1.48584C22.909 1.48584 23.5435 1.49575 24.1766 1.48088C24.4145 1.47468 24.5025 1.53664 24.4852 1.78572C24.391 3.17857 24.7367 3.09926 25.723 3.34586C26.7143 3.5937 27.6362 4.01998 28.5023 4.56151C29.128 4.95309 29.3337 4.92831 29.8665 4.39794C29.9545 4.31119 30.0512 4.23065 30.1267 4.13399C30.2841 3.92952 30.4018 3.97661 30.5641 4.14514C31.1007 4.70154 31.6446 5.2505 32.2035 5.78335C32.4042 5.97419 32.3819 6.09315 32.1873 6.25424C32.0325 6.38188 31.8974 6.53182 31.7599 6.67805C31.4811 6.97421 31.4402 7.3088 31.6607 7.64833C32.3695 8.74502 32.8701 9.92473 33.1464 11.2036C33.2567 11.7154 33.5082 11.8678 34.0955 11.869C34.8663 11.8715 34.8663 11.8715 34.8663 12.6299C34.8663 13.2631 34.8563 13.8976 34.8712 14.5308C34.8774 14.7675 34.8142 14.8381 34.5676 14.8431C33.3347 14.8703 33.3385 14.8803 33.0101 16.0773C32.74 17.0625 32.3298 17.9881 31.7896 18.8556C31.3968 19.4863 31.4216 19.6883 31.9519 20.2199C32.4215 20.6908 32.4215 20.6921 31.942 21.1741C31.4947 21.6227 31.0325 22.0576 30.605 22.5248C30.3882 22.7627 30.2494 22.7404 30.0673 22.5099C29.952 22.3662 29.812 22.241 29.6769 22.1146C29.3808 21.8383 29.0475 21.7912 28.7055 22.013C27.6089 22.7243 26.4293 23.2225 25.1493 23.4988C24.6351 23.6091 24.4852 23.8582 24.4827 24.4468C24.4802 25.2188 24.4802 25.2188 23.7231 25.2188C23.0899 25.2188 22.4555 25.2089 21.8224 25.2238C21.5882 25.2287 21.4717 25.173 21.5138 24.9214C21.5213 24.8768 21.5151 24.8285 21.5151 24.7826C21.5126 23.6959 21.5027 23.676 20.4532 23.4071C19.4024 23.137 18.4186 22.7132 17.4967 22.1444C16.861 21.7516 16.6628 21.7763 16.1324 22.3055C15.6591 22.7776 15.6591 22.7776 15.1783 22.2968C14.7199 21.8383 14.2713 21.3674 13.798 20.9238C13.596 20.7354 13.627 20.6301 13.8054 20.4517C14.0805 20.1778 14.4522 19.956 14.477 19.3661Z" fill="#F7FAFC"/>
<path d="M7.45118 5.51941C8.05338 6.13033 8.59114 6.68177 9.13758 7.22577C9.26769 7.35465 9.31725 7.44139 9.15865 7.59629C8.59858 8.14402 8.05214 8.70661 7.42144 9.34355C7.42144 9.12545 7.42764 9.01145 7.4202 8.89868C7.39294 8.45257 7.13273 8.17747 6.69286 8.16756C6.12164 8.15393 5.54794 8.14525 4.97796 8.17128C3.95199 8.21837 3.00037 9.16635 2.9793 10.1936C2.95204 11.553 2.95452 12.9137 2.97806 14.2731C2.99665 15.3412 3.97677 16.2867 5.0523 16.319C5.49961 16.3326 5.9494 16.3326 6.39671 16.3177C6.61479 16.3103 6.67675 16.371 6.68666 16.5978C6.73499 17.8072 6.74242 17.8072 5.52192 17.806C3.0425 17.8047 1.47505 16.2458 1.49239 13.7575C1.50107 12.4465 1.36972 11.1267 1.56426 9.82436C1.83562 8.0077 3.29403 6.74993 5.13284 6.68425C5.5182 6.67062 5.9048 6.67929 6.29139 6.67929C7.22938 6.67805 7.37684 6.54174 7.45118 5.51941Z" fill="#F7FAFC"/>
<path d="M38.5626 5.51807C38.5961 6.51438 38.7671 6.67547 39.6766 6.67795C40.3544 6.68043 41.0433 6.61103 41.7037 6.80311C43.296 7.26656 44.2972 8.32607 44.452 9.97544C44.597 11.5232 44.6305 13.097 44.4273 14.6447C44.1918 16.4403 42.7768 17.6758 40.9677 17.7898C40.5055 17.8195 40.0409 17.791 39.5775 17.8059C39.3792 17.8121 39.2838 17.7576 39.3172 17.5494C39.3197 17.5345 39.3185 17.5184 39.3172 17.5035C39.2751 16.3189 39.2751 16.3189 40.451 16.3189C41.8363 16.3189 42.6727 15.7563 42.9651 14.6162C43.011 14.4402 43.0221 14.2506 43.0221 14.0672C43.0271 12.8466 43.0283 11.626 43.0234 10.4054C43.0184 9.11668 42.0618 8.16746 40.7695 8.16002C40.4138 8.15754 40.0582 8.16002 39.7038 8.16002C38.7634 8.16002 38.6184 8.29385 38.5441 9.35212C37.9233 8.71022 37.3644 8.12408 36.7957 7.54538C36.6582 7.40535 36.7536 7.33472 36.8428 7.2455C37.3954 6.69158 37.9481 6.13642 38.5626 5.51807Z" fill="#F7FAFC"/>
<path d="M23.0231 5.19471C27.5643 5.20339 31.1639 8.84909 31.1565 13.4353C31.149 17.9187 27.4652 21.5248 22.9041 21.5111C18.4595 21.4987 14.8302 17.8208 14.8389 13.3374C14.8488 8.81191 18.4917 5.18728 23.0231 5.19471Z" fill="#457DC3"/>
<path d="M16.3232 13.3213C16.3232 9.714 19.3516 6.68294 22.9611 6.67798C26.6424 6.67303 29.6695 9.6793 29.6695 13.3386C29.6695 17.0178 26.6635 20.0253 22.9883 20.0241C19.3218 20.0228 16.3245 17.0066 16.3232 13.3213Z" fill="#F7FAFC"/>
<path d="M17.8069 13.3176C17.8069 12.8392 17.7983 12.3597 17.8094 11.8814C17.8206 11.4129 18.0919 11.1391 18.5615 11.1304C19.1328 11.1192 19.7065 11.092 20.274 11.1391C20.7225 11.175 20.8055 11.0028 20.782 10.605C20.7498 10.0672 20.7696 9.52441 20.7758 8.98412C20.782 8.4302 21.0434 8.16502 21.5985 8.1613C22.5403 8.15634 23.482 8.1551 24.4237 8.1613C24.9478 8.16502 25.2167 8.43516 25.2241 8.95934C25.2316 9.53061 25.2576 10.1044 25.2154 10.6719C25.1857 11.0808 25.3332 11.1552 25.7012 11.1341C26.255 11.1019 26.8126 11.1217 27.3677 11.1267C27.9216 11.1329 28.188 11.3956 28.1905 11.9495C28.1967 12.8913 28.1967 13.8331 28.1905 14.7749C28.1868 15.299 27.9154 15.5679 27.3913 15.5741C26.8362 15.5816 26.2773 15.6113 25.7247 15.5655C25.2762 15.5283 25.1931 15.7018 25.2167 16.0996C25.2489 16.6374 25.2291 17.1801 25.2229 17.7204C25.2167 18.2731 24.9515 18.5395 24.3989 18.5432C23.4572 18.5494 22.5155 18.5494 21.5738 18.5432C21.0496 18.5395 20.782 18.2681 20.7758 17.744C20.7684 17.1727 20.7547 16.6002 20.7807 16.0302C20.7956 15.6906 20.7299 15.5419 20.3433 15.5679C19.7746 15.6064 19.2021 15.5828 18.6309 15.5766C18.0783 15.5704 17.8156 15.3065 17.8094 14.7526C17.802 14.2755 17.8069 13.7959 17.8069 13.3176Z" fill="#457DC3"/>
<path d="M25.4111 14.0957C25.1175 14.0957 24.8238 14.0908 24.5314 14.097C24.011 14.1094 23.747 14.3758 23.7421 14.9049C23.7359 15.522 23.7297 16.1404 23.7458 16.7575C23.752 16.9954 23.6876 17.0636 23.4422 17.0698C22.2577 17.0958 22.2577 17.1045 22.2577 15.9297C22.2577 15.5902 22.2626 15.2507 22.2564 14.9111C22.2465 14.3622 21.9826 14.1019 21.425 14.097C20.8079 14.092 20.1896 14.0871 19.5725 14.1007C19.3532 14.1057 19.2937 14.0449 19.2838 13.8206C19.2355 12.6124 19.2281 12.6124 20.4461 12.6124C20.7707 12.6124 21.0941 12.6161 21.4188 12.6112C21.9937 12.6038 22.2527 12.341 22.2564 11.7549C22.2601 11.1527 22.2688 10.5504 22.2515 9.94941C22.2453 9.71024 22.3122 9.64333 22.5563 9.63837C23.7396 9.61359 23.7396 9.60491 23.7396 10.7784C23.7396 11.1031 23.7371 11.4265 23.7396 11.7512C23.7458 12.3572 24.0011 12.6075 24.6194 12.6112C25.2216 12.6149 25.8238 12.6211 26.426 12.6075C26.6465 12.6025 26.7047 12.6657 26.7134 12.8888C26.7605 14.0957 26.7679 14.0957 25.5499 14.0957C25.5041 14.0957 25.4582 14.0957 25.4111 14.0957Z" fill="white"/>
</g>
<defs>
<clipPath id="clip0_266_3077">
<rect width="46" height="46" fill="white"/>
</clipPath>
</defs>
</svg>
