<svg width="46" height="46" viewBox="0 0 46 46" fill="none" xmlns="http://www.w3.org/2000/svg">
<g clip-path="url(#clip0_266_3039)">
<path d="M5.4791 46C5.12968 45.7719 4.94957 45.4466 4.81989 45.0481C3.26255 40.297 1.68959 35.5506 0.121435 30.8031C-0.161938 29.946 0.0313799 29.5775 0.905512 29.2894C3.026 28.5908 5.14649 27.8898 7.26698 27.1899C8.10149 26.9151 8.48092 27.1035 8.7631 27.9378C8.86756 28.2487 8.97803 28.5572 9.06448 28.8729C9.12572 29.095 9.19416 29.1634 9.4295 29.0337C10.6314 28.3687 11.8778 27.7997 13.1986 27.4108C13.3463 27.3676 13.4183 27.2716 13.4784 27.1467C14.4678 25.0425 16.2929 23.2587 18.8108 22.2287C18.6091 21.9983 18.4098 21.7822 18.2225 21.5553C16.9149 19.9624 16.24 18.133 16.2196 16.0744C16.2064 14.6975 16.1536 13.3195 16.2545 11.945C16.449 9.26818 17.6701 7.14469 19.805 5.54218C20.044 5.36332 20.1472 5.20247 20.1424 4.89157C20.0992 2.39237 21.9964 0.244875 24.4182 0.0216036C26.9338 -0.211271 29.1431 1.46087 29.6126 3.95887C29.6594 4.20735 29.7014 4.47264 29.6642 4.71751C29.5994 5.14485 29.7831 5.36332 30.1121 5.6166C32.3707 7.35476 33.545 9.6595 33.5954 12.5164C33.6146 13.6232 33.5906 14.7323 33.6002 15.8391C33.6218 18.2051 32.8173 20.2481 31.2204 21.9863C31.1507 22.0619 31.0895 22.1423 31.0186 22.2263C34.5068 23.6308 37.0223 26.735 37.3261 30.952C38.3827 30.4358 39.4178 29.9172 40.4648 29.4215C41.1468 29.0986 41.7904 28.676 42.5889 28.6508C44.0442 28.6052 45.2845 29.4539 45.6928 30.8055C46.1058 32.1691 45.5415 33.6156 44.2471 34.3274C41.6871 35.7367 39.1104 37.1147 36.5372 38.4976C36.0233 38.7737 35.507 38.6332 35.2524 38.1819C34.9859 37.7101 35.148 37.1964 35.6859 36.9059C38.1762 35.5554 40.6713 34.2134 43.164 32.8666C43.7896 32.5281 44.0814 32.0443 43.9913 31.5149C43.8437 30.6531 43.0079 30.2197 42.1866 30.6074C41.0147 31.162 39.8548 31.7418 38.6901 32.3108C37.0031 33.1343 35.3137 33.9517 33.6314 34.7824C31.4533 35.8579 29.1719 36.1412 26.7873 35.7355C25.4929 35.5146 24.1913 35.3274 22.8933 35.1317C22.2857 35.0405 21.8991 34.6467 21.9459 34.1438C21.9976 33.5904 22.4322 33.2495 23.0674 33.3359C24.5767 33.5412 26.0812 33.7777 27.5882 33.9997C28.353 34.1126 29.0458 33.6876 29.31 32.9494C29.5658 32.2352 29.304 31.3409 28.6004 31.0708C25.8675 30.0193 23.1887 28.7709 20.2181 28.4864C16.838 28.1635 13.6573 28.8261 10.6675 30.4298C9.74289 30.9255 9.73689 30.9207 10.0683 31.9243C10.8428 34.271 11.6268 36.613 12.3869 38.9645C12.507 39.3367 12.6282 39.4471 13.0581 39.3907C15.3251 39.093 17.5621 39.2886 19.7486 39.9657C22.5811 40.8419 25.4364 40.9836 28.3254 40.2802C28.9906 40.1181 29.4913 40.3954 29.6138 40.9704C29.7207 41.4709 29.3724 41.8959 28.7301 42.0519C25.5601 42.8226 22.4238 42.6869 19.3115 41.7278C17.418 41.1432 15.4824 40.9524 13.5072 41.1468C13.1914 41.178 13.1229 41.2741 13.2466 41.5622C13.3571 41.8214 13.4279 42.0975 13.5144 42.3664C13.7437 43.0867 13.5348 43.5092 12.8168 43.7469C11.0805 44.3207 9.33825 44.8812 7.60559 45.4658C7.10368 45.6351 6.57656 45.7395 6.10708 46.0012C5.89815 46 5.68922 46 5.4791 46Z" fill="#457DC3"/>
<path d="M45.9999 7.64642C45.7009 8.12418 45.2591 8.27783 44.7139 8.24422C44.3261 8.22021 43.9347 8.25502 43.5468 8.23461C43.2815 8.22021 43.1758 8.28383 43.1914 8.57432C43.2178 9.05208 43.2058 9.53103 43.1962 10.01C43.183 10.699 42.8228 11.0531 42.1336 11.0555C41.0265 11.0591 39.9194 11.0603 38.8111 11.0555C38.1447 11.0531 37.7905 10.7122 37.7689 10.0388C37.7533 9.54543 37.7509 9.05087 37.7713 8.55752C37.7821 8.29463 37.6873 8.22621 37.4387 8.23581C36.9752 8.25382 36.5105 8.24662 36.0471 8.23941C35.287 8.22861 34.9532 7.8913 34.952 7.14106C34.9496 6.06431 34.9496 4.98637 34.952 3.90962C34.9532 3.16898 35.3038 2.81967 36.0531 2.81367C36.5322 2.80887 37.0113 2.80286 37.4891 2.81727C37.7029 2.82327 37.7749 2.75965 37.7689 2.54118C37.7545 2.06343 37.7593 1.58327 37.7653 1.10552C37.7761 0.339672 38.1039 0.0155678 38.8604 0.0143674C39.9675 0.013167 41.0745 0.0107662 42.1828 0.0155678C42.8168 0.0179686 43.177 0.369682 43.1938 1.01069C43.2058 1.50405 43.2094 1.99861 43.1914 2.49196C43.183 2.73924 43.2478 2.83287 43.5096 2.81967C43.9275 2.79806 44.3489 2.83768 44.7656 2.80767C45.3107 2.76925 45.7153 2.96492 45.9975 3.42707C45.9999 4.83272 45.9999 6.23957 45.9999 7.64642Z" fill="#457DC3"/>
<path d="M33.4011 39.6644C33.3951 40.153 32.9592 40.5695 32.4645 40.5575C31.9842 40.5467 31.5796 40.1422 31.5724 39.6656C31.5651 39.1819 31.9998 38.7401 32.4837 38.7401C32.9616 38.7389 33.4071 39.1879 33.4011 39.6644Z" fill="#457DC3"/>
<path d="M25.2143 11.8586C26.4174 13.4444 27.9664 14.5355 29.8683 15.1201C30.3967 15.2821 30.931 15.4226 31.4833 15.455C31.7379 15.4706 31.7955 15.5738 31.8027 15.8163C31.912 19.9096 28.365 23.2419 24.3066 22.8482C20.6515 22.4941 17.9979 19.5327 18.0435 15.8631C18.0459 15.6675 18.0087 15.491 18.3101 15.4586C21.025 15.1693 23.2907 14.0013 25.1014 11.9547C25.1315 11.9235 25.1687 11.8983 25.2143 11.8586Z" fill="white"/>
<path d="M15.7969 26.7734C16.9952 25.1541 18.5189 24.1289 20.4077 23.6392C20.5914 23.5912 20.7523 23.6428 20.9216 23.7256C23.5716 25.0388 26.2276 25.0472 28.88 23.7316C29.0962 23.6248 29.2931 23.6068 29.5224 23.6656C33.1138 24.5875 35.5957 27.8741 35.4913 31.5737C35.4877 31.719 35.5117 31.8486 35.3232 31.9363C34.0672 32.5172 32.8653 33.2183 31.5517 33.6732C31.3607 33.7392 31.1638 33.8485 30.9453 33.7632C31.6393 32.0227 30.9573 30.0625 29.2547 29.3686C27.0801 28.4827 24.9008 27.5825 22.6002 27.0483C20.4521 26.5489 18.2836 26.4529 16.0983 26.771C16.025 26.7818 15.9494 26.7734 15.7969 26.7734Z" fill="#F7FAFC"/>
<path d="M7.16919 29.1382C7.34329 29.1418 7.30247 29.3338 7.33609 29.4347C7.90764 31.1416 8.46718 32.8522 9.02912 34.5627C9.82881 36.9935 10.6213 39.4267 11.4366 41.8527C11.5435 42.172 11.4882 42.2848 11.1748 42.3844C9.68592 42.8586 8.20302 43.3496 6.72372 43.8513C6.44995 43.9437 6.35749 43.9137 6.26144 43.6196C4.90221 39.4627 3.52737 35.3106 2.15374 31.1572C2.0925 30.9712 2.00845 30.8199 2.30263 30.7263C3.86118 30.2293 5.41372 29.7108 6.96867 29.2006C7.0251 29.1814 7.08274 29.1646 7.16919 29.1382Z" fill="white"/>
<path d="M18.0445 12.6701C18.0565 9.23941 20.2406 6.53734 23.5823 5.81951C27.1881 5.04526 30.9259 7.51206 31.6332 11.1264C31.7809 11.8803 31.7953 12.6389 31.8025 13.4012C31.8049 13.676 31.6956 13.6832 31.4807 13.64C28.5473 13.0602 26.4808 11.4997 25.6499 8.52398C25.4914 7.955 25.034 7.6549 24.5585 7.77494C24.0109 7.91299 23.7612 8.36673 23.8969 8.98973C23.9341 9.16379 23.9581 9.35105 24.041 9.5023C24.2871 9.95124 24.1454 10.2789 23.832 10.6487C22.3851 12.3592 20.5336 13.3075 18.3459 13.6544C18.1201 13.6904 18.0145 13.6424 18.0385 13.3867C18.0613 13.1503 18.0445 12.909 18.0445 12.6701Z" fill="#F7FAFC"/>
<path d="M27.8256 4.31663C24.9883 3.66002 24.4083 3.74284 22.0381 4.30583C22.1017 3.04062 23.3325 1.91346 24.7553 1.81502C26.2094 1.71419 27.4906 2.74412 27.8256 4.31663Z" fill="#F7FAFC"/>
<path d="M43.099 6.40406C42.8745 6.40406 42.6499 6.40046 42.4254 6.40526C41.735 6.41966 41.3808 6.76297 41.3628 7.4568C41.3495 7.95016 41.3507 8.44472 41.364 8.93808C41.37 9.16615 41.3063 9.26098 41.0626 9.24898C40.6747 9.23097 40.2833 9.22977 39.8955 9.24898C39.6457 9.26098 39.5941 9.15655 39.6001 8.93447C39.6133 8.47112 39.6061 8.00658 39.6037 7.54323C39.5989 6.75337 39.2471 6.40766 38.445 6.40406C37.9959 6.40166 37.5468 6.39326 37.0978 6.40766C36.8636 6.41486 36.7387 6.37525 36.7568 6.09676C36.7868 5.63701 36.6103 5.03922 36.8384 4.74873C37.0797 4.44263 37.7041 4.6791 38.1604 4.64789C38.3249 4.63709 38.4906 4.6551 38.6539 4.64189C39.2483 4.59508 39.5821 4.25777 39.6013 3.65998C39.6169 3.15101 39.6169 2.64205 39.6001 2.13309C39.5917 1.89061 39.6421 1.78377 39.9123 1.80178C40.2845 1.82579 40.6627 1.83059 41.0338 1.80058C41.3351 1.77657 41.376 1.90501 41.3652 2.15949C41.3471 2.62284 41.3532 3.08739 41.3616 3.55074C41.3748 4.29858 41.7158 4.63349 42.4722 4.64429C42.9513 4.6515 43.4304 4.6587 43.9095 4.64069C44.1485 4.63229 44.2181 4.70911 44.2073 4.94199C44.1893 5.34532 44.1929 5.74985 44.2061 6.15438C44.2121 6.35124 44.1497 6.41726 43.9527 6.40646C43.6694 6.39326 43.3836 6.40406 43.099 6.40406Z" fill="white"/>
<path d="M24.8753 20.0573C24.3397 20.0705 23.8162 19.8496 23.3912 19.4139C23.0454 19.0585 23.0358 18.564 23.3455 18.2015C23.6553 17.8389 24.1512 17.7549 24.5463 18.0526C24.8308 18.2663 25.0398 18.2903 25.3328 18.0598C25.7194 17.7573 26.2333 17.8365 26.5383 18.1871C26.8625 18.558 26.8409 19.0633 26.4855 19.4379C26.1192 19.822 25.5465 20.0549 24.8753 20.0573Z" fill="#457DC3"/>
</g>
<defs>
<clipPath id="clip0_266_3039">
<rect width="46" height="46" fill="white"/>
</clipPath>
</defs>
</svg>
