<svg width="47" height="38" viewBox="0 0 47 38" fill="none" xmlns="http://www.w3.org/2000/svg">
<g clip-path="url(#clip0_266_3013)">
<path d="M0 35.2168C0.204854 34.6835 0.169281 34.114 0.247788 33.5627C0.668537 30.6205 2.16508 28.2695 4.34365 26.2892C5.26734 25.4489 6.30633 24.7675 7.44468 24.2391C7.96357 23.9983 8.25674 23.5854 8.49349 23.1014C8.57813 22.9293 8.53274 22.8306 8.40762 22.7126C6.87796 21.2825 5.86105 19.5128 4.96925 17.665C4.86008 17.4386 4.74723 17.3255 4.47736 17.293C3.03479 17.1184 2.04364 16.3323 1.61308 14.9864C1.17883 13.6273 1.52353 12.4054 2.61404 11.4376C2.87042 11.21 2.9477 11.0126 2.90354 10.6743C2.76247 9.56561 2.82748 8.4641 3.16604 7.38547C3.32919 6.86783 3.63954 6.45251 4.01981 6.07692C4.12285 5.97579 4.24061 5.90718 4.18296 5.70493C3.80146 4.37109 4.26146 3.34904 5.30536 2.44015C7.21897 0.77165 9.44661 0.0012005 11.965 0.0264809C13.583 0.0433344 15.1924 0.166125 16.695 0.87879C19.3471 2.13679 20.8449 4.26756 21.5649 6.99664C21.8912 8.23056 21.9268 9.48495 21.7735 10.7454C21.7416 11.0078 21.7906 11.1631 22.0249 11.3388C22.9388 12.0226 23.178 13.0001 23.1081 14.0619C23.048 14.9804 22.7094 15.8123 22.0948 16.5165C21.5649 17.1232 20.9123 17.5217 20.0647 17.4531C19.7838 17.4302 19.731 17.5915 19.6525 17.7661C18.9681 19.2745 18.1658 20.7155 17.1146 22.0132C17.0949 22.036 17.0765 22.0601 17.0594 22.0854C16.8471 22.3912 16.278 22.6849 16.3847 22.9148C16.6386 23.4662 16.9772 24.0416 17.5476 24.3787C19.417 25.4802 21.035 26.8526 22.3144 28.5957C22.9216 29.4239 23.4147 30.3124 23.8294 31.3139C24.2943 30.5266 24.7911 29.814 25.3419 29.135C26.2557 28.0082 27.4542 27.186 28.5153 26.2157C29.1862 25.6018 29.8609 24.9914 30.538 24.3835C30.9576 24.0067 31.2434 23.9887 31.7193 24.3161C32.5571 24.8915 33.4011 25.4609 34.2205 26.0604C34.4879 26.2567 34.6609 26.235 34.9209 26.0568C35.8336 25.4308 36.7695 24.8362 37.692 24.2234C38.0551 23.9826 38.4427 23.9381 38.7273 24.2691C39.9221 25.6523 41.4554 26.6624 42.7986 27.8782C45.0471 29.9139 46.4271 32.4335 46.881 35.4166C46.9693 35.9944 47.0209 36.5783 46.9975 37.1657C46.9791 37.6545 46.7142 37.9458 46.2211 37.9916C46.0996 38.0024 45.977 37.9952 45.8543 37.9952C30.9428 37.9952 16.0314 37.994 1.11995 38.0012C0.639097 38.0012 0.244108 37.9121 0.00245335 37.4691C0.00245335 36.9587 0.00245335 36.4483 0.00245335 35.9378C0.0588803 35.8885 0.0478403 35.8211 0.0502936 35.7573C0.0478403 35.6935 0.0588803 35.6273 0.00245335 35.5767C0 35.4563 0 35.3371 0 35.2168Z" fill="#457DC3"/>
<path d="M34.9496 0.0120834C35.9837 0.0650518 37.2864 -0.0866304 38.5805 0.084313C40.1826 0.296187 41.2179 1.24119 41.5859 2.80376C42.0827 4.91407 42.6065 7.01835 43.0702 9.13589C43.3143 10.253 43.3327 11.3991 43.2848 12.5403C43.2726 12.8292 43.318 12.9412 43.6528 12.9821C44.8366 13.1242 45.5579 14.517 45.1003 15.7461C44.7973 16.5599 44.2637 17.2388 43.7068 17.8961C42.0152 19.8945 40.0759 21.6196 37.8237 22.9955C35.7285 24.2752 33.6248 24.2873 31.5345 23.004C28.8874 21.3788 26.6413 19.3263 24.8271 16.8283C24.2689 16.0603 23.896 15.2321 24.2493 14.2654C24.5131 13.5419 24.9755 13.0158 25.817 12.9508C26.0084 12.9364 26.0893 12.881 26.0746 12.6836C25.8428 9.64631 26.8621 6.80287 27.4976 3.90044C27.565 3.59347 27.6717 3.29372 27.7159 2.98433C28.0042 0.95468 29.9595 0.0349561 31.4303 0.014491C32.5146 4.51229e-05 33.6003 0.0120834 34.9496 0.0120834Z" fill="#457DC3"/>
<path d="M19.1309 13.513C19.1996 14.4123 19.0389 15.3645 18.6317 16.2963C17.8282 18.1309 16.9548 19.9246 15.5907 21.4318C14.0451 23.1388 11.4434 23.2881 9.66714 21.8074C9.04399 21.2885 8.53615 20.6698 8.07737 20.0137C6.91694 18.3512 6.03864 16.5527 5.39218 14.6398C5.25112 14.2209 5.37746 13.8368 5.41794 13.4432C5.55042 12.1322 5.77859 10.8453 6.29624 9.6102C7.01998 7.88271 8.53737 7.21218 10.3271 7.2519C11.5942 7.27959 12.7952 7.61426 13.8648 8.31247C15.2387 9.20812 16.7316 9.44287 18.3238 9.08654C18.639 9.01551 18.6918 9.107 18.7433 9.3911C18.985 10.7213 19.1211 12.06 19.1309 13.513Z" fill="white"/>
<path d="M5.73008 27.0885C5.73008 28.1539 5.72517 29.0809 5.73499 30.0078C5.73744 30.1944 5.63931 30.2715 5.49456 30.3425C5.14005 30.517 4.78186 30.6844 4.43839 30.877C3.28164 31.5258 2.6818 32.5021 2.67321 33.8167C2.67076 34.2068 2.66217 34.598 2.67566 34.9868C2.69406 35.4852 3.01791 35.7958 3.47668 35.7814C3.9146 35.7681 4.20533 35.4599 4.21637 34.9772C4.22618 34.5872 4.23109 34.1959 4.21637 33.8071C4.19183 33.1823 4.46538 32.7128 4.96341 32.3493C5.38171 32.0435 5.8552 31.8376 6.31888 31.6125C6.41334 31.5668 6.49675 31.5331 6.61083 31.5969C7.08801 31.8617 7.58727 32.0965 7.98348 32.4793C8.2877 32.773 8.46924 33.1245 8.46434 33.5579C8.45943 34.0226 8.4533 34.4885 8.46924 34.9531C8.48764 35.4828 8.81394 35.8018 9.28621 35.7802C9.74008 35.7585 10.0038 35.4479 10.0026 34.917C10.0026 34.3175 10.0578 33.7072 9.96946 33.1185C9.81 32.0615 9.21015 31.2333 8.22514 30.7891C7.43516 30.4328 7.15425 29.95 7.23521 29.1037C7.32108 28.2117 7.26342 27.304 7.23889 26.4048C7.23153 26.1231 7.33457 25.9834 7.57255 25.8474C7.82156 25.7053 7.92951 25.8654 8.07671 25.9822C10.5055 27.8963 14.0899 27.9083 16.5702 26.0195C16.6929 25.9256 16.7714 25.7005 17.0192 25.8281C17.2608 25.9521 17.1921 26.1568 17.1933 26.3398C17.1983 27.3606 17.1848 28.3814 17.2032 29.4011C17.2081 29.6744 17.121 29.82 16.8867 29.9693C16.1126 30.4641 15.8023 31.3549 16.0648 32.2096C16.3187 33.0403 17.0572 33.5952 17.9281 33.6121C18.8101 33.6289 19.5535 33.1209 19.854 32.2939C20.1815 31.3922 19.8466 30.44 18.9867 29.9187C18.7892 29.7996 18.723 29.6828 18.7267 29.4637C18.7402 28.6896 18.7316 27.9144 18.7316 27.0452C19.6835 27.8144 20.444 28.6355 21.1212 29.5395C22.2669 31.0696 22.8287 32.7947 22.9489 34.6751C22.982 35.1987 23.0225 35.7224 23.0765 36.2436C23.0949 36.423 23.0532 36.4952 22.8667 36.4784C22.7759 36.47 22.6827 36.4772 22.5919 36.4772C15.741 36.4772 8.88999 36.4736 2.03902 36.4868C1.64648 36.488 1.54099 36.4146 1.54712 36.0077C1.59006 32.7586 2.645 29.9332 5.08117 27.6664C5.25659 27.5051 5.43813 27.3486 5.73008 27.0885Z" fill="#F7FAFC"/>
<path d="M34.5595 28.751C35.1532 29.5118 35.5875 30.3388 36.072 31.1333C36.6019 32.0013 37.1429 32.0326 37.7231 31.2128C38.48 30.1426 39.2429 29.076 39.9851 27.9962C40.1409 27.7699 40.2316 27.741 40.4659 27.9143C43.2615 29.9897 45.0341 32.6526 45.4266 36.1244C45.456 36.3808 45.4242 36.4856 45.1114 36.4856C38.399 36.4759 31.6866 36.4759 24.9755 36.4832C24.7044 36.4832 24.5965 36.4242 24.594 36.1413C24.5916 35.738 24.5474 35.3335 24.5069 34.9314C24.3953 33.8456 24.751 32.8657 25.2491 31.9339C26.0059 30.5194 27.0977 29.3734 28.3574 28.373C29.0836 27.7963 29.075 27.7891 29.6062 28.5427C30.2576 29.466 30.9077 30.3906 31.564 31.3115C32.0436 31.9857 32.6373 31.9664 33.0642 31.2585C33.561 30.4363 34.0492 29.6081 34.5595 28.751Z" fill="#F7FAFC"/>
<path d="M20.2123 9.45993C20.1436 9.10842 20.0884 8.75208 20.0013 8.40418C19.8762 7.90098 19.4628 7.67947 18.9537 7.83838C18.046 8.12248 17.1358 8.34399 16.1692 8.14535C15.7729 8.06349 15.4221 7.89977 15.075 7.70957C13.971 7.10525 12.8645 6.51176 11.5949 6.28905C9.25439 5.87975 5.95219 6.55149 4.77581 9.74524C4.69117 9.97637 4.57095 10.1943 4.43479 10.4085C4.41762 9.48762 4.58444 8.60762 4.98925 7.77698C5.08493 7.57956 5.28365 7.47723 5.44066 7.33759C5.7964 7.02098 5.92029 6.66344 5.82706 6.17349C5.65165 5.24534 5.91048 4.40025 6.65384 3.78509C8.36628 2.36699 10.3817 1.9011 12.5836 2.04195C13.6508 2.10937 14.7143 2.16956 15.7165 2.58488C18.1711 3.60211 19.491 5.50897 20.1043 7.9696C20.2135 8.40658 20.2932 8.84839 20.2994 9.29982C20.3165 9.37687 20.384 9.4816 20.2123 9.45993Z" fill="#F7FAFC"/>
<path d="M12.2985 25.9436C11.2705 25.9063 10.3039 25.6475 9.4207 25.0853C9.15573 24.9168 9.1496 24.8036 9.34587 24.5809C9.56054 24.3365 9.67707 23.9212 9.93222 23.8261C10.1592 23.7418 10.51 24.0127 10.8154 24.0946C12.1194 24.4437 13.4123 24.4136 14.6672 23.9008C14.9689 23.7768 15.1051 23.8165 15.283 24.0765C15.7736 24.7916 15.7871 24.782 15.0143 25.2201C14.1777 25.6933 13.2712 25.9136 12.2985 25.9436Z" fill="#F7FAFC"/>
<path d="M36.96 29.6431C36.5172 28.9617 36.1185 28.3273 35.6953 27.7061C35.5592 27.5063 35.5849 27.4112 35.7849 27.2836C36.4865 26.8369 37.1784 26.3735 37.8727 25.916C37.9585 25.8594 38.0481 25.7535 38.1499 25.8498C38.4235 26.1098 38.6835 26.3831 38.9485 26.6516C39.0429 26.7467 38.9558 26.8189 38.9092 26.8851C38.2714 27.794 37.6286 28.7005 36.96 29.6431Z" fill="#F7FAFC"/>
<path d="M32.2504 29.6382C31.5917 28.7088 30.9489 27.8035 30.3086 26.897C30.2755 26.8501 30.2277 26.7574 30.2448 26.7405C30.4644 26.5154 30.722 26.3204 30.9146 26.076C31.209 25.7016 31.4224 25.9556 31.6604 26.1206C32.2075 26.4998 32.7472 26.8886 33.3029 27.2546C33.4967 27.3822 33.5213 27.4833 33.4011 27.6807C33.0134 28.3152 32.6454 28.9616 32.2504 29.6382Z" fill="#F7FAFC"/>
<path d="M3.28851 12.9471C3.56083 13.8645 3.81107 14.7083 4.07113 15.5859C3.05667 15.2055 2.71443 14.0763 3.28851 12.9471Z" fill="#FAFAFA"/>
<path d="M21.4254 13.0627C21.8155 14.0415 21.3861 15.3428 20.4551 15.8785C20.7642 14.8974 21.1849 14.0234 21.4254 13.0627Z" fill="#FAF9F9"/>
<path d="M17.5195 31.6052C17.5343 31.3584 17.6508 31.167 17.9501 31.1538C18.2727 31.1393 18.4322 31.3452 18.4383 31.6245C18.4444 31.911 18.2666 32.1144 17.9575 32.1036C17.6778 32.0928 17.5257 31.9134 17.5195 31.6052Z" fill="#F9F9F9"/>
<path d="M20.2122 8.97931C20.2417 8.92513 20.2711 8.87217 20.3006 8.81799C20.4318 8.98653 20.3509 9.17673 20.4061 9.45361C20.2478 9.25378 20.1791 9.1358 20.2122 8.97931Z" fill="#676464"/>
<path d="M41.7789 11.9732C41.7421 12.6919 41.7126 13.4118 41.6636 14.1293C41.6353 14.535 41.7568 14.8372 42.1665 14.9816C42.5541 15.1188 42.8534 14.99 43.0767 14.6698C43.1699 14.5374 43.2681 14.4278 43.4484 14.4868C43.6177 14.5422 43.6569 14.6975 43.6851 14.8444C43.7538 15.2127 43.5809 15.5173 43.3858 15.805C42.5652 17.0101 41.5446 18.0429 40.486 19.0421C39.4605 20.01 38.3724 20.902 37.1703 21.6568C35.5633 22.6656 33.9306 22.7415 32.3126 21.7363C29.8335 20.1942 27.7617 18.2175 26.0259 15.9001C25.7818 15.5739 25.561 15.2272 25.6776 14.7818C25.7144 14.6433 25.7536 14.5193 25.9057 14.476C26.0652 14.4303 26.1682 14.5217 26.248 14.6397C26.4908 14.9985 26.8061 15.1393 27.2281 14.9611C27.6709 14.7733 27.7322 14.4122 27.6942 13.9909C27.5715 12.6137 27.5568 11.2365 27.7065 9.85933C27.7322 9.62458 27.8046 9.55476 28.0364 9.56078C28.6633 9.57643 29.2901 9.58606 29.9157 9.568C30.2126 9.55957 30.3242 9.64625 30.3978 9.94359C30.8885 11.907 32.769 13.289 34.8212 13.2252C36.7409 13.165 38.3933 11.8842 38.9219 10.011C39.0115 9.6932 39.1403 9.59208 39.469 9.60773C40.048 9.63541 40.6319 9.64143 41.2109 9.60652C41.574 9.58485 41.6587 9.74617 41.6697 10.0423C41.6918 10.6852 41.8022 11.3244 41.7789 11.9732Z" fill="white"/>
<path d="M41.2878 8.58358C40.5825 8.58358 39.9102 8.56793 39.2393 8.59081C38.9301 8.60164 38.9964 8.37171 38.9534 8.23206C38.4162 6.50578 37.2766 5.40909 35.4599 5.06359C33.2077 4.63623 30.9997 6.01341 30.4072 8.20558C30.3311 8.48728 30.2318 8.56793 29.9546 8.55951C29.4197 8.54145 28.8849 8.54626 28.3501 8.5583C28.1145 8.56312 28.0753 8.50533 28.1329 8.273C28.5255 6.69237 28.8898 5.10452 29.2811 3.52269C29.4847 2.70048 30.3863 2.02273 31.3382 2.0155C33.5696 1.99624 35.8009 1.99263 38.0322 2.01791C39.0884 2.02995 39.8783 2.73539 40.1225 3.76105C40.504 5.35853 40.894 6.9548 41.2878 8.58358Z" fill="#F7FAFC"/>
<path d="M37.5538 8.85299C37.5563 10.4444 36.2682 11.7145 34.6576 11.7097C33.0863 11.7061 31.7799 10.418 31.7725 8.86623C31.7651 7.29283 33.0752 6.01436 34.6883 6.01918C36.2879 6.02399 37.5514 7.27357 37.5538 8.85299Z" fill="#F9F9FB"/>
<path d="M40.7272 35.8031C40.3053 35.797 40.0023 35.4852 39.9667 35.0037C39.9459 34.7232 40.0452 34.3621 39.9017 34.1803C39.7447 33.9817 39.3595 34.1357 39.0749 34.1081C38.5695 34.0575 38.2543 33.7397 38.2776 33.3003C38.3009 32.8741 38.6125 32.6141 39.1166 32.6009C39.9225 32.5792 39.9225 32.5792 39.963 31.7558C39.99 31.2032 40.2734 30.8914 40.7456 30.8951C41.2228 30.8987 41.4866 31.2044 41.4964 31.7678C41.4988 31.9027 41.5148 32.0411 41.4927 32.1723C41.4314 32.5383 41.5933 32.6478 41.9441 32.6045C42.1244 32.5816 42.3109 32.5936 42.4937 32.6069C42.8825 32.6346 43.2027 32.9283 43.2064 33.2967C43.21 33.6759 43.0322 33.9636 42.6323 34.0575C42.4569 34.0984 42.2704 34.1069 42.0888 34.1093C41.4976 34.1165 41.4976 34.1129 41.4964 34.7124C41.4964 34.8617 41.5025 35.0133 41.4841 35.1614C41.4399 35.5298 41.1051 35.8079 40.7272 35.8031Z" fill="#457DC3"/>
<path d="M36.6271 9.01303C36.6308 9.44521 36.3413 9.76663 35.8445 9.77144C35.5035 9.77505 35.4054 9.85691 35.4213 10.194C35.4422 10.6466 35.133 10.9548 34.7184 10.9789C34.3124 11.003 33.9248 10.7164 33.9223 10.2795C33.9199 9.86534 33.769 9.77505 33.3826 9.75338C32.9618 9.72931 32.6785 9.35612 32.6993 8.98655C32.7226 8.58688 33.044 8.27749 33.4979 8.28833C33.8131 8.29555 33.9064 8.21489 33.9051 7.89588C33.9039 7.39027 34.24 7.06163 34.673 7.06042C35.1245 7.06042 35.4336 7.39509 35.4225 7.94283C35.4164 8.23054 35.5084 8.28833 35.7832 8.28592C36.329 8.28111 36.6234 8.55558 36.6271 9.01303Z" fill="#457DC3"/>
</g>
<defs>
<clipPath id="clip0_266_3013">
<rect width="47" height="38" fill="white"/>
</clipPath>
</defs>
</svg>
